<svg width="25" height="24" viewBox="0 0 25 24" fill="none" xmlns="http://www.w3.org/2000/svg">
<path d="M10.875 16.5C10.6761 16.5 10.4853 16.579 10.3447 16.7197C10.204 16.8603 10.125 17.0511 10.125 17.25V18.75C10.125 18.9489 10.204 19.1397 10.3447 19.2803C10.4853 19.421 10.6761 19.5 10.875 19.5C11.0739 19.5 11.2647 19.421 11.4053 19.2803C11.546 19.1397 11.625 18.9489 11.625 18.75V17.25C11.625 17.0511 11.546 16.8603 11.4053 16.7197C11.2647 16.579 11.0739 16.5 10.875 16.5ZM7.875 16.5C7.67609 16.5 7.48532 16.579 7.34467 16.7197C7.20402 16.8603 7.125 17.0511 7.125 17.25V18.75C7.125 18.9489 7.20402 19.1397 7.34467 19.2803C7.48532 19.421 7.67609 19.5 7.875 19.5C8.07391 19.5 8.26468 19.421 8.40533 19.2803C8.54598 19.1397 8.625 18.9489 8.625 18.75V17.25C8.625 17.0511 8.54598 16.8603 8.40533 16.7197C8.26468 16.579 8.07391 16.5 7.875 16.5ZM13.875 16.5C13.6761 16.5 13.4853 16.579 13.3447 16.7197C13.204 16.8603 13.125 17.0511 13.125 17.25V18.75C13.125 18.9489 13.204 19.1397 13.3447 19.2803C13.4853 19.421 13.6761 19.5 13.875 19.5C14.0739 19.5 14.2647 19.421 14.4053 19.2803C14.546 19.1397 14.625 18.9489 14.625 18.75V17.25C14.625 17.0511 14.546 16.8603 14.4053 16.7197C14.2647 16.579 14.0739 16.5 13.875 16.5ZM16.875 16.5C16.6761 16.5 16.4853 16.579 16.3447 16.7197C16.204 16.8603 16.125 17.0511 16.125 17.25V18.75C16.125 18.9489 16.204 19.1397 16.3447 19.2803C16.4853 19.421 16.6761 19.5 16.875 19.5C17.0739 19.5 17.2647 19.421 17.4053 19.2803C17.546 19.1397 17.625 18.9489 17.625 18.75V17.25C17.625 17.0511 17.546 16.8603 17.4053 16.7197C17.2647 16.579 17.0739 16.5 16.875 16.5ZM21.375 6H3.375C2.97718 6 2.59564 6.15804 2.31434 6.43934C2.03304 6.72064 1.875 7.10218 1.875 7.5V14.25C1.875 14.6478 2.03304 15.0294 2.31434 15.3107C2.59564 15.592 2.97718 15.75 3.375 15.75H21.375C21.7728 15.75 22.1544 15.592 22.4357 15.3107C22.717 15.0294 22.875 14.6478 22.875 14.25V7.5C22.875 7.10218 22.717 6.72064 22.4357 6.43934C22.1544 6.15804 21.7728 6 21.375 6V6ZM19.125 13.5H5.625C5.42609 13.5 5.23532 13.421 5.09467 13.2803C4.95402 13.1397 4.875 12.9489 4.875 12.75C4.875 12.5511 4.95402 12.3603 5.09467 12.2197C5.23532 12.079 5.42609 12 5.625 12H19.125C19.3239 12 19.5147 12.079 19.6553 12.2197C19.796 12.3603 19.875 12.5511 19.875 12.75C19.875 12.9489 19.796 13.1397 19.6553 13.2803C19.5147 13.421 19.3239 13.5 19.125 13.5Z" fill="#EFF0F3"/>
</svg>
