<svg width="20" height="20" viewBox="0 0 20 20" fill="none" xmlns="http://www.w3.org/2000/svg">
<path d="M8.75 13.75C8.58424 13.75 8.42527 13.8158 8.30806 13.9331C8.19085 14.0503 8.125 14.2092 8.125 14.375V15.625C8.125 15.7908 8.19085 15.9497 8.30806 16.0669C8.42527 16.1842 8.58424 16.25 8.75 16.25C8.91576 16.25 9.07473 16.1842 9.19194 16.0669C9.30915 15.9497 9.375 15.7908 9.375 15.625V14.375C9.375 14.2092 9.30915 14.0503 9.19194 13.9331C9.07473 13.8158 8.91576 13.75 8.75 13.75ZM6.25 13.75C6.08424 13.75 5.92527 13.8158 5.80806 13.9331C5.69085 14.0503 5.625 14.2092 5.625 14.375V15.625C5.625 15.7908 5.69085 15.9497 5.80806 16.0669C5.92527 16.1842 6.08424 16.25 6.25 16.25C6.41576 16.25 6.57473 16.1842 6.69194 16.0669C6.80915 15.9497 6.875 15.7908 6.875 15.625V14.375C6.875 14.2092 6.80915 14.0503 6.69194 13.9331C6.57473 13.8158 6.41576 13.75 6.25 13.75ZM11.25 13.75C11.0842 13.75 10.9253 13.8158 10.8081 13.9331C10.6908 14.0503 10.625 14.2092 10.625 14.375V15.625C10.625 15.7908 10.6908 15.9497 10.8081 16.0669C10.9253 16.1842 11.0842 16.25 11.25 16.25C11.4158 16.25 11.5747 16.1842 11.6919 16.0669C11.8092 15.9497 11.875 15.7908 11.875 15.625V14.375C11.875 14.2092 11.8092 14.0503 11.6919 13.9331C11.5747 13.8158 11.4158 13.75 11.25 13.75ZM13.75 13.75C13.5842 13.75 13.4253 13.8158 13.3081 13.9331C13.1908 14.0503 13.125 14.2092 13.125 14.375V15.625C13.125 15.7908 13.1908 15.9497 13.3081 16.0669C13.4253 16.1842 13.5842 16.25 13.75 16.25C13.9158 16.25 14.0747 16.1842 14.1919 16.0669C14.3092 15.9497 14.375 15.7908 14.375 15.625V14.375C14.375 14.2092 14.3092 14.0503 14.1919 13.9331C14.0747 13.8158 13.9158 13.75 13.75 13.75ZM17.5 5H2.5C2.16848 5 1.85054 5.1317 1.61612 5.36612C1.3817 5.60054 1.25 5.91848 1.25 6.25V11.875C1.25 12.2065 1.3817 12.5245 1.61612 12.7589C1.85054 12.9933 2.16848 13.125 2.5 13.125H17.5C17.8315 13.125 18.1495 12.9933 18.3839 12.7589C18.6183 12.5245 18.75 12.2065 18.75 11.875V6.25C18.75 5.91848 18.6183 5.60054 18.3839 5.36612C18.1495 5.1317 17.8315 5 17.5 5V5ZM15.625 11.25H4.375C4.20924 11.25 4.05027 11.1842 3.93306 11.0669C3.81585 10.9497 3.75 10.7908 3.75 10.625C3.75 10.4592 3.81585 10.3003 3.93306 10.1831C4.05027 10.0658 4.20924 10 4.375 10H15.625C15.7908 10 15.9497 10.0658 16.0669 10.1831C16.1842 10.3003 16.25 10.4592 16.25 10.625C16.25 10.7908 16.1842 10.9497 16.0669 11.0669C15.9497 11.1842 15.7908 11.25 15.625 11.25Z" fill="#8593A9"/>
</svg>
