<svg width="25" height="24" viewBox="0 0 25 24" fill="none" xmlns="http://www.w3.org/2000/svg">
<g clip-path="url(#clip0_2601_11739)">
<path d="M23.167 11.9551H2.16699C1.33998 11.9551 0.666992 12.6281 0.666992 13.4551C0.666992 14.2821 1.33998 14.9551 2.16699 14.9551H23.167C23.994 14.9551 24.667 14.2821 24.667 13.4551C24.667 12.6281 23.994 11.9551 23.167 11.9551Z" fill="#8593A9"/>
<path d="M23.3045 13.9745C23.0335 13.8985 22.7615 14.0525 22.6865 14.3185L22.6475 14.4555H2.68648L2.6465 14.3185C2.5715 14.0525 2.29751 13.9005 2.0285 13.9745C1.76248 14.0505 1.60948 14.3275 1.68551 14.5925L3.0635 19.4165C3.49048 20.9115 4.87451 21.9555 6.42851 21.9555H18.9035C20.4585 21.9555 21.8415 20.9115 22.2685 19.4165L23.6465 14.5925C23.7235 14.3274 23.5695 14.0505 23.3045 13.9745ZM6.4295 19.9554C5.7635 19.9554 5.1695 19.5084 4.98748 18.8674L4.3385 16.5934C4.26251 16.3274 4.4165 16.0514 4.68148 15.9754C4.94947 15.8994 5.22448 16.0544 5.29948 16.3194L5.94847 18.5934C6.01048 18.8064 6.20745 18.9564 6.42945 18.9564C6.70545 18.9564 6.92947 19.1805 6.92947 19.4565C6.92951 19.7325 6.7055 19.9554 6.4295 19.9554Z" fill="#8593A9"/>
<path d="M7.38962 21.007C7.14263 20.886 6.84362 20.983 6.7186 21.231L5.71862 23.231C5.59562 23.478 5.6956 23.778 5.94263 23.902C6.01562 23.938 6.09165 23.955 6.16665 23.955C6.34965 23.955 6.52567 23.854 6.61365 23.6781L7.61363 21.678C7.73663 21.431 7.6366 21.131 7.38962 21.007Z" fill="#8593A9"/>
<path d="M19.6146 23.2329L18.6146 21.2328C18.4906 20.9848 18.1906 20.8858 17.9436 21.0088C17.6966 21.1328 17.5966 21.4328 17.7196 21.6799L18.7196 23.6799C18.8076 23.8548 18.9836 23.9559 19.1666 23.9559C19.2416 23.9559 19.3176 23.9388 19.3906 23.9039C19.6376 23.7798 19.7376 23.4798 19.6146 23.2329Z" fill="#8593A9"/>
<path d="M20.7522 0.0449219C20.2422 0.0449219 19.7622 0.243906 19.4012 0.604937L17.8142 2.19194C17.6192 2.38694 17.6192 2.70395 17.8142 2.89895C18.0092 3.09395 18.3262 3.09395 18.5212 2.89895L20.1082 1.31294C20.2792 1.14095 20.5082 1.04594 20.7572 1.04594C21.2592 1.04594 21.6672 1.45394 21.6672 1.95592V12.4559C21.6672 12.7319 21.8912 12.9559 22.1672 12.9559C22.4432 12.9559 22.6672 12.7319 22.6682 12.4549V1.95494C22.6682 0.901937 21.8122 0.0449219 20.7522 0.0449219Z" fill="#8593A9"/>
<path d="M19.0205 2.69185L18.0205 1.69186C17.9065 1.57786 17.7475 1.52485 17.5855 1.55185L15.0856 1.96186C14.9016 1.99186 14.7505 2.12185 14.6916 2.29786C14.6326 2.47388 14.6776 2.66986 14.8076 2.80285L17.8076 5.89285C17.9026 5.99185 18.0336 6.04486 18.1656 6.04486C18.2126 6.04486 18.2606 6.03788 18.3076 6.02386C18.4855 5.97188 18.6205 5.82488 18.6565 5.64286L19.1566 3.14288C19.1895 2.97985 19.1385 2.81082 19.0205 2.69185Z" fill="#8593A9"/>
<path d="M12.5202 6.1023C12.3252 5.9073 12.0082 5.9073 11.8132 6.1023L10.8132 7.10229C10.6182 7.29729 10.6182 7.61431 10.8132 7.80931C10.9113 7.90629 11.0392 7.95532 11.1672 7.95532C11.2953 7.95532 11.4232 7.90634 11.5203 7.80931L12.5202 6.80932C12.7152 6.61427 12.7152 6.2973 12.5202 6.1023Z" fill="#8593A9"/>
<path d="M14.5202 8.1023C14.3252 7.9073 14.0082 7.9073 13.8132 8.1023L12.8132 9.10229C12.6182 9.29729 12.6182 9.61431 12.8132 9.80931C12.9113 9.90629 13.0392 9.95532 13.1672 9.95532C13.2953 9.95532 13.4232 9.90634 13.5203 9.80931L14.5202 8.80932C14.7152 8.61432 14.7152 8.29731 14.5202 8.1023Z" fill="#8593A9"/>
<path d="M15.5202 5.1023C15.3252 4.9073 15.0082 4.9073 14.8132 5.1023L13.8132 6.10229C13.6182 6.29729 13.6182 6.61431 13.8132 6.80931C13.9113 6.90629 14.0392 6.95532 14.1672 6.95532C14.2953 6.95532 14.4232 6.90634 14.5203 6.80931L15.5202 5.80932C15.7152 5.61432 15.7152 5.2973 15.5202 5.1023Z" fill="#8593A9"/>
</g>
<defs>
<clipPath id="clip0_2601_11739">
<rect width="24" height="24" fill="white" transform="translate(0.666992)"/>
</clipPath>
</defs>
</svg>
