<svg width="20" height="20" viewBox="0 0 20 20" fill="none" xmlns="http://www.w3.org/2000/svg">
<g clip-path="url(#clip0_2555_12734)">
<path d="M18.75 9.96289H1.25C0.56082 9.96289 0 10.5237 0 11.2129C0 11.9021 0.56082 12.4629 1.25 12.4629H18.75C19.4392 12.4629 20 11.9021 20 11.2129C20 10.5237 19.4392 9.96289 18.75 9.96289Z" fill="#8593A9"/>
<path d="M18.8651 11.6454C18.6393 11.5821 18.4126 11.7104 18.3501 11.9321L18.3176 12.0463H1.6834L1.65008 11.9321C1.58758 11.7104 1.35926 11.5838 1.13508 11.6454C0.913396 11.7088 0.785896 11.9396 0.849255 12.1604L1.99758 16.1804C2.3534 17.4263 3.50676 18.2963 4.80176 18.2963H15.1976C16.4934 18.2963 17.6459 17.4263 18.0018 16.1804L19.1501 12.1604C19.2143 11.9396 19.0859 11.7088 18.8651 11.6454ZM4.80258 16.6296C4.24758 16.6296 3.75258 16.2571 3.6009 15.7229L3.06008 13.8279C2.99676 13.6062 3.12508 13.3762 3.3459 13.3129C3.56922 13.2496 3.7984 13.3787 3.8609 13.5996L4.40172 15.4946C4.4534 15.6721 4.61754 15.7971 4.80254 15.7971C5.03254 15.7971 5.21922 15.9838 5.21922 16.2138C5.21926 16.4438 5.03258 16.6296 4.80258 16.6296Z" fill="#8593A9"/>
<path d="M5.60235 17.5063C5.39653 17.4054 5.14735 17.4863 5.04317 17.6929L4.20985 19.3596C4.10735 19.5654 4.19067 19.8154 4.39653 19.9188C4.45735 19.9488 4.52071 19.963 4.58321 19.963C4.73571 19.963 4.88239 19.8788 4.95571 19.7322L5.78903 18.0655C5.89153 17.8596 5.80817 17.6096 5.60235 17.5063Z" fill="#8593A9"/>
<path d="M15.79 19.3605L14.9567 17.6938C14.8534 17.4871 14.6034 17.4046 14.3975 17.5071C14.1917 17.6104 14.1083 17.8604 14.2108 18.0663L15.0441 19.733C15.1175 19.8788 15.2641 19.963 15.4166 19.963C15.4791 19.963 15.5425 19.9488 15.6033 19.9197C15.8092 19.8163 15.8925 19.5663 15.79 19.3605Z" fill="#8593A9"/>
<path d="M16.7372 0.0371094C16.3122 0.0371094 15.9122 0.20293 15.6114 0.503789L14.2889 1.82629C14.1264 1.98879 14.1264 2.25297 14.2889 2.41547C14.4514 2.57797 14.7155 2.57797 14.878 2.41547L16.2005 1.09379C16.343 0.950469 16.5338 0.871289 16.7413 0.871289C17.1596 0.871289 17.4996 1.21129 17.4996 1.62961V10.3796C17.4996 10.6096 17.6863 10.7963 17.9163 10.7963C18.1463 10.7963 18.333 10.6096 18.3338 10.3788V1.62879C18.3339 0.751289 17.6205 0.0371094 16.7372 0.0371094Z" fill="#8593A9"/>
<path d="M15.2948 2.24288L14.4615 1.40956C14.3665 1.31456 14.234 1.27038 14.099 1.29288L12.0156 1.63456C11.8623 1.65956 11.7365 1.76788 11.6873 1.91456C11.6381 2.06124 11.6756 2.22456 11.784 2.33538L14.284 4.91038C14.3632 4.99288 14.4723 5.03706 14.5823 5.03706C14.6215 5.03706 14.6615 5.03124 14.7006 5.01956C14.849 4.97624 14.9615 4.85374 14.9915 4.70206L15.4081 2.61874C15.4356 2.48288 15.3931 2.34202 15.2948 2.24288Z" fill="#8593A9"/>
<path d="M9.87738 5.08538C9.71488 4.92288 9.4507 4.92288 9.2882 5.08538L8.45488 5.9187C8.29238 6.0812 8.29238 6.34538 8.45488 6.50788C8.53656 6.5887 8.6432 6.62956 8.74988 6.62956C8.85656 6.62956 8.9632 6.58874 9.04406 6.50788L9.87738 5.67456C10.0399 5.51202 10.0399 5.24788 9.87738 5.08538Z" fill="#8593A9"/>
<path d="M11.5444 6.75212C11.3819 6.58962 11.1177 6.58962 10.9552 6.75212L10.1219 7.58545C9.95937 7.74795 9.95937 8.01213 10.1219 8.17463C10.2036 8.25545 10.3102 8.29631 10.4169 8.29631C10.5236 8.29631 10.6302 8.25549 10.7111 8.17463L11.5444 7.34131C11.7069 7.1788 11.7069 6.91462 11.5444 6.75212Z" fill="#8593A9"/>
<path d="M12.3774 4.252C12.2149 4.0895 11.9507 4.0895 11.7882 4.252L10.9549 5.08532C10.7924 5.24782 10.7924 5.512 10.9549 5.6745C11.0366 5.75532 11.1432 5.79618 11.2499 5.79618C11.3566 5.79618 11.4632 5.75536 11.5441 5.6745L12.3774 4.84118C12.5399 4.67868 12.5399 4.4145 12.3774 4.252Z" fill="#8593A9"/>
</g>
<defs>
<clipPath id="clip0_2555_12734">
<rect width="20" height="20" fill="white"/>
</clipPath>
</defs>
</svg>
