<svg width="16" height="16" viewBox="0 0 16 16" fill="none" xmlns="http://www.w3.org/2000/svg">
<path d="M8 0C3.58169 0 0 3.58169 0 8C0 12.4183 3.58169 16 8 16C12.4183 16 16 12.4183 16 8C16 3.58169 12.4183 0 8 0ZM8.58493 11.9752V13.2993H7.31122V12.0662C6.44066 12.027 5.59657 11.7932 5.10289 11.5078L5.49327 9.98786C6.03896 10.2863 6.80476 10.5589 7.64977 10.5589C8.38983 10.5589 8.89666 10.2735 8.89666 9.75407C8.89666 9.26039 8.48109 8.9483 7.51964 8.62362C6.12985 8.15604 5.18118 7.50687 5.18118 6.24702C5.18118 5.1038 5.98677 4.20806 7.37656 3.93521V2.70092H8.64918V3.84414C9.51937 3.88338 10.1043 4.06406 10.5326 4.27267L10.1561 5.74057C9.8185 5.59803 9.22115 5.29854 8.28508 5.29854C7.44098 5.29854 7.16832 5.66245 7.16832 6.02619C7.16832 6.45453 7.62312 6.72738 8.72674 7.14277C10.2724 7.68864 10.8966 8.40279 10.8966 9.57248C10.8969 10.7283 10.0782 11.7151 8.58493 11.9752Z" fill="#8593A9"/>
</svg>
