<svg width="24" height="24" viewBox="0 0 24 24" fill="none" xmlns="http://www.w3.org/2000/svg">
<path d="M3.76172 8.26771C4.88132 7.39771 5.81012 7.99771 7.04972 9.43291C7.18892 9.59491 7.37612 9.40531 7.48292 9.31291C7.58852 9.21931 9.22412 7.74691 9.30452 7.67971C9.38372 7.60891 9.47972 7.47691 9.35372 7.32931C9.05021 6.95388 8.75297 6.57343 8.46212 6.18811C6.29252 3.35011 14.3973 1.42531 13.1529 1.39531C12.5193 1.37851 9.97772 1.34851 9.59732 1.39051C8.05772 1.55251 6.12452 2.99131 5.15132 3.66211C3.87812 4.53331 3.40292 5.04451 3.32492 5.11531C2.96492 5.42971 3.26732 6.15571 2.61452 6.72811C1.92452 7.33171 1.49372 6.87451 1.09412 7.22491C0.896121 7.40011 0.341721 7.81531 0.183321 7.95331C0.0237206 8.09371 -0.00507941 8.33011 0.158121 8.51851C0.158121 8.51851 1.67492 10.1937 1.80212 10.3425C1.92812 10.4889 2.27132 10.6161 2.48252 10.4277C2.69492 10.2405 3.24092 9.76411 3.33212 9.68011C3.42572 9.60091 3.27212 8.64691 3.76172 8.26771V8.26771ZM10.6113 8.88811C10.4673 8.72131 10.2885 8.71651 10.1349 8.85331L8.41412 10.3557C8.34769 10.416 8.3072 10.4997 8.30116 10.5892C8.29511 10.6787 8.32399 10.767 8.38172 10.8357L18.3345 22.1625C18.5673 22.4301 18.9705 22.4577 19.2357 22.2261L20.3997 21.2505C20.5278 21.1377 20.6063 20.9789 20.618 20.8085C20.6296 20.6382 20.5736 20.4702 20.4621 20.3409L10.6113 8.88811ZM23.8821 4.06771C23.7933 3.47491 23.4861 3.59851 23.3265 3.84931C23.1669 4.10251 22.4613 5.17171 22.1709 5.65651C21.8829 6.13651 21.1725 7.08571 19.8501 6.14851C18.4725 5.17531 18.9513 4.49611 19.1913 4.03891C19.4325 3.57931 20.1729 2.29051 20.2797 2.13091C20.3865 1.96891 20.2617 1.49851 19.8345 1.69531C19.4061 1.89211 16.8069 2.92531 16.4469 4.40731C16.0785 5.91451 16.7553 7.26211 15.4269 8.60011L13.8153 10.2801L15.4341 12.1593L17.4189 10.2753C17.8917 9.80011 18.9021 9.33811 19.8165 9.54691C21.7761 9.98971 22.8453 9.25411 23.4897 8.03731C24.0681 6.95011 23.9721 4.66051 23.8821 4.06771V4.06771ZM3.28652 20.4633C3.16649 20.5842 3.09913 20.7477 3.09913 20.9181C3.09913 21.0885 3.16649 21.252 3.28652 21.3729L4.42772 22.4889C4.67732 22.7397 5.07332 22.6341 5.32292 22.3833L11.2113 16.5945L9.40772 14.5377L3.28652 20.4633V20.4633Z" fill="#8593A9"/>
</svg>
