<svg width="20" height="20" viewBox="0 0 20 20" fill="none" xmlns="http://www.w3.org/2000/svg">
<path d="M2.45203 0.0101573C2.0725 0.0698009 1.83369 0.142225 1.51386 0.291334C1.00214 0.538429 0.528788 1.00706 0.285718 1.51829C-0.00426091 2.12751 3.48114e-06 2.10195 3.48114e-06 4.54307C3.48114e-06 6.9842 -0.00426091 6.95864 0.285718 7.56786C0.528788 8.07483 1.0064 8.55198 1.51813 8.79481C2.16205 9.10155 1.54371 9.08025 10 9.08025C18.4606 9.08025 17.8337 9.10155 18.4861 8.79481C18.9936 8.55198 19.4712 8.07483 19.7143 7.5636C20 6.95864 20 6.97994 20 4.54307C20 2.10621 20 2.12751 19.7143 1.52255C19.484 1.03688 18.9936 0.538429 18.5288 0.308375C17.8593 -0.0196645 18.6183 0.0101573 10.1493 0.00163679C5.97442 -0.00262347 2.51173 0.00163679 2.45203 0.0101573ZM17.565 1.86763C17.791 1.93579 18.0682 2.21271 18.1365 2.43851C18.209 2.68986 18.209 6.39629 18.1365 6.64764C18.0682 6.87344 17.791 7.15035 17.565 7.21852C17.3092 7.2952 2.69083 7.2952 2.43497 7.21852C2.20896 7.15035 1.91898 6.86065 1.85928 6.64764C1.82943 6.54114 1.81237 5.78707 1.81237 4.54307C1.81237 3.29908 1.82943 2.54501 1.85928 2.43851C1.91472 2.23827 2.22175 1.92301 2.41791 1.86337C2.64393 1.79947 17.3433 1.80373 17.565 1.86763Z" fill="black"/>
<path d="M2.45203 10.9165C2.04265 10.9846 1.83369 11.0485 1.51386 11.1977C1.00214 11.4448 0.528788 11.9134 0.285718 12.4246C-0.00426091 13.0338 3.48114e-06 13.0083 3.48114e-06 15.4494C3.48114e-06 17.8905 -0.00426091 17.865 0.285718 18.4742C0.528788 18.9812 1.0064 19.4583 1.51813 19.7011C2.08956 19.9738 2.18764 19.9866 3.64606 19.9866C5.09169 19.9866 5.22388 19.9695 5.77399 19.6884C6.5032 19.322 7.04051 18.6233 7.20256 17.8266C7.30064 17.341 7.30064 13.5578 7.20256 13.0722C7.04051 12.2755 6.48188 11.547 5.75267 11.1934C5.23241 10.942 5.10448 10.9207 3.77399 10.908C3.10448 10.9037 2.51173 10.908 2.45203 10.9165ZM4.8742 12.791C5.08316 12.8762 5.258 13.0466 5.35608 13.2554C5.42857 13.413 5.4371 13.5706 5.4371 15.4494C5.4371 17.3282 5.42857 17.4858 5.35608 17.6434C5.258 17.8522 5.08316 18.0226 4.8742 18.1078C4.66951 18.1973 2.71642 18.2058 2.43497 18.1248C2.20896 18.0567 1.91898 17.767 1.85928 17.554C1.82943 17.4475 1.81237 16.6934 1.81237 15.4494C1.81237 14.2054 1.82943 13.4513 1.85928 13.3448C1.91472 13.1446 2.22175 12.8293 2.41791 12.7697C2.49467 12.7484 3.04478 12.7271 3.63753 12.7271C4.52026 12.7228 4.74201 12.7356 4.8742 12.791Z" fill="black"/>
<path d="M11.4243 10.9335C10.8273 11.023 10.1919 11.368 9.79106 11.8154C9.67166 11.9474 9.49682 12.2031 9.403 12.382C9.10876 12.9529 9.10449 12.9869 9.10449 15.4494C9.10449 17.9118 9.10876 17.9459 9.403 18.5168C9.82091 19.3177 10.5501 19.8247 11.4755 19.9652C11.6759 19.9951 12.7676 20.0078 14.7591 19.9951C18.0682 19.978 17.8934 19.9951 18.5288 19.6841C18.9936 19.454 19.484 18.9556 19.7143 18.4699C20 17.8649 20 17.8862 20 15.4494C20 13.0125 20 13.0338 19.7143 12.4288C19.484 11.9432 18.9936 11.4447 18.5288 11.2147C17.8891 10.9037 18.081 10.9165 14.6908 10.9079C13.0149 10.9037 11.5437 10.9122 11.4243 10.9335ZM17.565 12.7739C17.7911 12.8421 18.0682 13.119 18.1365 13.3448C18.209 13.5962 18.209 17.3026 18.1365 17.5539C18.0682 17.7797 17.7911 18.0566 17.565 18.1248C17.4328 18.1632 16.6653 18.1759 14.5075 18.1759H11.629L11.403 18.0566C11.2367 17.9714 11.1386 17.882 11.0448 17.7286L10.9169 17.5241V15.4494V13.3746L11.0448 13.1701C11.1386 13.0168 11.2367 12.9273 11.403 12.8421L11.629 12.7228H14.5075C16.6653 12.7228 17.4328 12.7356 17.565 12.7739Z" fill="black"/>
</svg>
