<svg width="16" height="16" viewBox="0 0 16 16" fill="none" xmlns="http://www.w3.org/2000/svg">
<g clip-path="url(#clip0_2601_12226)">
<path d="M1.49707 3.49902C1.77267 3.22342 2.21951 3.22342 2.49512 3.49902L9.48144 10.4854C9.75705 10.761 9.75705 11.2078 9.48144 11.4834L8.4834 12.4814C8.20779 12.757 7.76095 12.757 7.48535 12.4814L0.499024 5.49512C0.223421 5.21951 0.223421 4.77267 0.499024 4.49707L1.49707 3.49902Z" fill="#FA5F86"/>
<path d="M6.51855 11.4834C6.24295 11.2078 6.24295 10.761 6.51855 10.4854L13.5049 3.49902C13.7805 3.22342 14.2273 3.22342 14.5029 3.49902L15.501 4.49707C15.7766 4.77267 15.7766 5.21951 15.501 5.49512L8.51465 12.4814C8.23905 12.757 7.7922 12.757 7.5166 12.4814L6.51855 11.4834Z" fill="#FA5F86"/>
</g>
<defs>
<clipPath id="clip0_2601_12226">
<rect width="16" height="16" fill="white"/>
</clipPath>
</defs>
</svg>
