<svg width="20" height="20" viewBox="0 0 20 20" fill="none" xmlns="http://www.w3.org/2000/svg">
<path d="M3.5294 0.0721764C3.15764 0.274145 2.98823 0.56066 2.98823 0.983384C2.98823 1.40141 3.16234 1.69732 3.51529 1.8805C3.61411 1.92747 3.7694 1.96974 3.86823 1.96974C4.19293 1.96974 4.69646 2.10595 4.95529 2.26095C5.27999 2.45822 5.62823 2.83398 5.79764 3.18155L5.9294 3.44928V10.0015V16.5537L5.79764 16.8215C5.62823 17.169 5.27999 17.5448 4.95529 17.7421C4.69646 17.8971 4.19293 18.0333 3.86823 18.0333C3.67529 18.0333 3.4494 18.1272 3.27999 18.2869C2.8847 18.6392 2.8847 19.4001 3.27999 19.7524C3.5294 19.9825 3.67529 20.0201 4.23529 19.9919C5.19529 19.9449 5.91999 19.6396 6.59293 19.0056L6.98823 18.6345L7.38352 19.0056C8.05646 19.6396 8.78117 19.9449 9.74117 19.9919C10.3012 20.0201 10.447 19.9825 10.6965 19.7524C11.1012 19.3907 11.0918 18.6439 10.6729 18.2634C10.5129 18.1131 10.3341 18.0568 9.81176 17.991C9.56234 17.9581 9.31764 17.8924 9.15293 17.8125C8.8094 17.6481 8.35764 17.1925 8.18352 16.8356L8.04705 16.5537V10.0015V3.44928L8.17881 3.18155C8.34823 2.83398 8.69646 2.45822 9.02117 2.26095C9.27999 2.10595 9.78352 1.96974 10.1082 1.96974C10.207 1.96974 10.3623 1.92747 10.4612 1.8805C10.8141 1.69732 10.9882 1.40611 10.9882 0.983384C10.9882 0.555963 10.8141 0.269448 10.447 0.0815703C10.2823 -0.0029747 10.2023 -0.0123686 9.74117 0.0111161C8.78117 0.0580856 8.05646 0.363388 7.38352 0.997475L6.98823 1.36853L6.59293 0.997475C5.91058 0.349297 5.18587 0.0533886 4.21176 0.0158131C3.7694 -0.0029747 3.64705 0.00641918 3.5294 0.0721764Z" fill="black"/>
<path d="M1.42588 4.07874C0.851765 4.26192 0.414118 4.64707 0.150588 5.20131L0 5.51601V10.0016V14.4872L0.150588 14.8019C0.409412 15.3514 0.861176 15.7459 1.42588 15.9197C1.67059 15.9949 1.86353 16.0137 2.46588 16.0137C3.18118 16.0137 3.21412 16.009 3.46353 15.8822C3.67529 15.7788 3.74118 15.7131 3.84471 15.5017C4.05647 15.0884 4.00471 14.6469 3.70824 14.3181C3.48235 14.0644 3.21412 13.994 2.50824 13.994H1.95294V10.0016V6.00918H2.47059C3.19529 6.00918 3.43529 5.94812 3.67529 5.70858C3.99059 5.39389 4.06118 4.95237 3.86353 4.52495C3.65647 4.07874 3.41647 3.9895 2.42824 3.9942C1.85412 3.9942 1.63765 4.01298 1.42588 4.07874Z" fill="black"/>
<path d="M10.6117 4.05056C9.99055 4.24783 9.79761 5.16373 10.2682 5.6851C10.5694 6.01858 10.4658 6.00918 14.48 6.00918H18.047V10.0016V13.994H14.48C11.44 13.994 10.8753 14.0034 10.6729 14.0644C9.84466 14.3087 9.75525 15.5393 10.5364 15.9009L10.7764 16.0137H14.5223C18.127 16.0137 18.2823 16.009 18.5741 15.9197C19.1388 15.7459 19.5905 15.3514 19.8494 14.8019L20 14.4872V10.0016V5.51601L19.8494 5.20131C19.5858 4.64237 19.1482 4.26192 18.56 4.07874C18.287 3.9942 18.0705 3.9895 14.527 3.9942C11.9388 3.99889 10.7247 4.01298 10.6117 4.05056Z" fill="black"/>
<path d="M10.5412 9.10432C10.2024 9.25462 10 9.5928 10 10.0014C10 10.6026 10.3953 10.9831 11.0165 10.9878C11.4024 10.9878 11.6706 10.8469 11.8588 10.5463C11.9765 10.3537 11.9953 10.2739 11.9953 10.0014C11.9953 9.72901 11.9765 9.64916 11.8588 9.45659C11.6706 9.15599 11.4024 9.01508 11.0165 9.01508C10.8424 9.01508 10.6541 9.05265 10.5412 9.10432Z" fill="black"/>
<path d="M14.5129 9.12311C14.3764 9.19356 14.2588 9.31098 14.1647 9.45659C14.047 9.64916 14.0282 9.72901 14.0282 10.0014C14.0282 10.2739 14.047 10.3537 14.1647 10.5463C14.3529 10.8469 14.6211 10.9878 15.007 10.9878C15.6282 10.9831 16.0235 10.6026 16.0235 10.0014C16.0235 9.40023 15.6282 9.01977 15.007 9.01508C14.7953 9.01508 14.6635 9.04326 14.5129 9.12311Z" fill="black"/>
</svg>
