<svg width="25" height="24" viewBox="0 0 25 24" fill="none" xmlns="http://www.w3.org/2000/svg">
<path fill-rule="evenodd" clip-rule="evenodd" d="M4.57558 9.18653C5.07299 8.12953 5.53931 7.01036 6.12999 5.79793C6.44087 5.23834 6.84501 4.70984 7.49786 4.64767H17.7258C18.4098 4.70984 18.7828 5.23834 19.1248 5.79793C19.7155 7.01036 20.1818 8.12953 20.6792 9.18653H4.57558ZM7.49786 3C6.40978 3 5.72584 3.40415 4.82429 4.67876L3.30097 8.09845H0.969364C0.627395 8.09845 -0.025455 9.99482 2.39942 10.057L1.59113 12.0466C1.59113 14.5337 1.62221 17.0518 1.62221 19.5389C1.62221 20.0674 2.02636 20.4715 2.55486 20.4715H5.69475C6.22325 20.4715 6.62739 20.0674 6.62739 19.5389V17.456H18.5963V19.5389C18.5963 20.0674 19.0315 20.4715 19.5289 20.4715H22.6999C23.2284 20.4715 23.6326 20.0674 23.6326 19.5389C23.6326 17.0518 23.6637 14.5337 23.6637 12.0466L22.8243 10.057C25.2802 9.99482 24.5963 8.09845 24.2543 8.09845H21.9227L20.4305 4.67876C19.4979 3.40415 18.845 3 17.7258 3H7.49786ZM20.2129 12.2021C19.3735 12.2021 18.6896 12.886 18.6896 13.7254C18.6896 14.5648 19.3735 15.2487 20.2129 15.2487C21.0523 15.2487 21.7362 14.5648 21.7362 13.7254C21.7362 12.886 21.0523 12.2021 20.2129 12.2021ZM5.01081 12.2021C5.85019 12.2021 6.53413 12.886 6.53413 13.7254C6.53413 14.5648 5.85019 15.2487 5.01081 15.2487C4.17144 15.2487 3.4875 14.5648 3.4875 13.7254C3.4875 12.886 4.17144 12.2021 5.01081 12.2021Z" fill="#EFF0F3"/>
</svg>
