<svg width="20" height="20" viewBox="0 0 20 20" fill="none" xmlns="http://www.w3.org/2000/svg">
<path fill-rule="evenodd" clip-rule="evenodd" d="M3.29215 7.65544C3.70666 6.77461 4.09526 5.84197 4.58749 4.83161C4.84656 4.36529 5.18334 3.92487 5.72738 3.87306H14.2507C14.8206 3.92487 15.1315 4.36529 15.4165 4.83161C15.9087 5.84197 16.2973 6.77461 16.7118 7.65544H3.29215ZM5.72738 2.5C4.82065 2.5 4.2507 2.83679 3.4994 3.89896L2.22997 6.74871H0.28697C0.00199558 6.74871 -0.542046 8.32902 1.47868 8.38083L0.805104 10.0389C0.805104 12.1114 0.831011 14.2098 0.831011 16.2824C0.831011 16.7228 1.1678 17.0596 1.60821 17.0596H4.22479C4.66521 17.0596 5.002 16.7228 5.002 16.2824V14.5466H14.9761V16.2824C14.9761 16.7228 15.3388 17.0596 15.7533 17.0596H18.3958C18.8362 17.0596 19.173 16.7228 19.173 16.2824C19.173 14.2098 19.1989 12.1114 19.1989 10.0389L18.4994 8.38083C20.546 8.32902 19.9761 6.74871 19.6911 6.74871H17.7481L16.5046 3.89896C15.7274 2.83679 15.1833 2.5 14.2507 2.5H5.72738ZM16.3232 10.1684C15.6238 10.1684 15.0538 10.7383 15.0538 11.4378C15.0538 12.1373 15.6238 12.7073 16.3232 12.7073C17.0227 12.7073 17.5927 12.1373 17.5927 11.4378C17.5927 10.7383 17.0227 10.1684 16.3232 10.1684ZM3.65485 10.1684C4.35433 10.1684 4.92428 10.7383 4.92428 11.4378C4.92428 12.1373 4.35433 12.7073 3.65485 12.7073C2.95536 12.7073 2.38542 12.1373 2.38542 11.4378C2.38542 10.7383 2.95536 10.1684 3.65485 10.1684Z" fill="#8593A9"/>
</svg>
