<svg width="25" height="24" viewBox="0 0 25 24" fill="none" xmlns="http://www.w3.org/2000/svg">
<path d="M21.933 11.0769L21.2599 10.5756C21.2377 10.5508 21.213 10.5287 21.1852 10.5099C21.0735 10.4353 18.4196 8.7088 15.5359 10.5036C14.6951 11.0267 14.0242 11.7823 13.494 12.5897C13.8596 11.4553 14.3411 10.2654 14.9662 9.24543C17.4844 8.55843 19.5484 6.81318 20.6441 4.43718L20.7154 4.2823C20.778 4.14655 20.754 3.98643 20.6542 3.87505C20.5541 3.76368 20.3977 3.72205 20.256 3.7693C20.1604 3.80118 17.8789 4.58643 15.2171 7.62805C13.8757 9.16105 13.0155 11.4129 12.4879 13.3063L12.4736 8.87868L12.4729 8.72718L12.4466 0.749429C12.4459 0.572054 12.321 0.419429 12.147 0.383429C11.973 0.348554 11.7979 0.438554 11.7277 0.601679L10.3215 3.8428C10.2862 3.9238 10.281 4.01455 10.3061 4.09968L11.7232 8.83855L11.7334 11.9237C11.2372 9.40405 10.5086 6.7123 9.56398 5.89818C7.68148 4.27555 6.07386 3.48693 4.64848 3.48693C3.17098 3.48693 1.18723 4.72743 1.10361 4.7803C0.968981 4.86543 0.902606 5.0263 0.938231 5.18155C0.974231 5.3368 1.10361 5.45268 1.26223 5.4703L2.69436 5.6293C4.22586 5.79955 5.71873 6.1978 7.13248 6.8128L7.48573 6.96655L10.1584 8.65743C10.5622 9.93918 10.911 11.5708 11.1844 13.1038C10.6335 12.1138 9.87748 11.1411 8.85448 10.5047C5.97073 8.71068 3.31648 10.4368 3.20511 10.5111C3.17736 10.5294 2.45736 11.0781 2.45736 11.0781C1.45386 11.8258 0.907106 13.0172 0.994481 14.2652L1.23111 17.6593C1.24386 17.8423 1.38711 17.9893 1.56973 18.0066C1.58173 18.0077 1.59336 18.0081 1.60573 18.0081C1.71561 18.0081 1.81423 17.9567 1.88398 17.8772L1.88736 17.8802L3.14623 16.4451C4.33086 15.0943 5.21173 13.4657 5.69286 11.7351L6.05136 10.4458C6.77661 10.4409 7.60536 10.6101 8.45848 11.1411C10.5367 12.4341 11.4262 15.4359 11.6839 16.5013H7.99986C7.79248 16.5013 7.62486 16.6693 7.62486 16.8763C7.62486 19.2546 8.17611 21.5132 9.13723 23.0732C9.20586 23.1831 9.32661 23.2506 9.45673 23.2506H14.793C14.9231 23.2506 15.0439 23.1831 15.1125 23.0724C16.0736 21.5124 16.6249 19.2538 16.6249 16.8756C16.6249 16.6686 16.4572 16.5006 16.2499 16.5006H12.6045C12.9124 15.3707 13.8877 12.4127 15.9319 11.1403C16.785 10.6093 17.6137 10.4402 18.3394 10.4451L18.6975 11.7343C19.1786 13.4649 20.0595 15.0936 21.2441 16.4443L22.503 17.8798L22.5064 17.8768C22.5761 17.9563 22.6747 18.0077 22.7846 18.0077C22.7966 18.0077 22.8082 18.0073 22.8206 18.0062C23.0032 17.9889 23.1465 17.8419 23.1592 17.6589L23.3962 14.2644C23.4832 13.0161 22.9361 11.8247 21.933 11.0769V11.0769ZM14.3302 18.3358L15.0694 18.4656C15.054 18.5526 14.6884 20.6087 14.0591 21.6797L13.4122 21.2994C13.9729 20.3458 14.3269 18.3557 14.3302 18.3358V18.3358Z" fill="#EFF0F3"/>
</svg>
