<svg width="20" height="20" viewBox="0 0 20 20" fill="none" xmlns="http://www.w3.org/2000/svg">
<path d="M18.1735 9.23045L17.6125 8.81263C17.5941 8.79201 17.5735 8.77357 17.5504 8.75795C17.4572 8.69576 15.2457 7.25701 12.8425 8.75263C12.1419 9.18857 11.5829 9.81826 11.141 10.4911C11.4457 9.54576 11.8469 8.5542 12.3679 7.7042C14.4663 7.1317 16.1863 5.67732 17.0994 3.69732L17.1588 3.56826C17.211 3.45514 17.191 3.3217 17.1079 3.22889C17.0244 3.13607 16.8941 3.10139 16.776 3.14076C16.6963 3.16732 14.795 3.8217 12.5769 6.35638C11.4591 7.63388 10.7422 9.51045 10.3025 11.0883L10.2907 7.39857L10.29 7.27232L10.2682 0.624198C10.2675 0.476386 10.1635 0.349199 10.0185 0.319199C9.87348 0.290136 9.72754 0.365136 9.66911 0.501073L8.49723 3.20201C8.46786 3.26951 8.46348 3.34514 8.48442 3.41607L9.66536 7.36513L9.67379 9.93607C9.26036 7.83638 8.65317 5.59326 7.86598 4.91482C6.29723 3.56264 4.95754 2.90545 3.76973 2.90545C2.53848 2.90545 0.885355 3.9392 0.815668 3.98326C0.70348 4.0542 0.648168 4.18826 0.677855 4.31764C0.707855 4.44701 0.815668 4.54357 0.947855 4.55826L2.14129 4.69076C3.41754 4.83264 4.66161 5.16451 5.83973 5.67701L6.13411 5.80514L8.36129 7.2142C8.69786 8.28232 8.98848 9.64201 9.21629 10.9195C8.75723 10.0945 8.12723 9.28388 7.27473 8.75357C4.87161 7.25857 2.65973 8.69701 2.56692 8.75888C2.54379 8.7742 1.94379 9.23138 1.94379 9.23138C1.10754 9.85451 0.651918 10.8473 0.72473 11.8873L0.921918 14.7158C0.932543 14.8683 1.05192 14.9908 1.20411 15.0051C1.21411 15.0061 1.22379 15.0064 1.23411 15.0064C1.32567 15.0064 1.40786 14.9636 1.46598 14.8973L1.46879 14.8998L2.51786 13.7039C3.50504 12.5783 4.23911 11.2211 4.64004 9.77888L4.93879 8.70451C5.54317 8.70045 6.23379 8.84138 6.94473 9.28388C8.67661 10.3614 9.41786 12.8629 9.63254 13.7508H6.56254C6.38973 13.7508 6.25004 13.8908 6.25004 14.0633C6.25004 16.0451 6.70942 17.9273 7.51036 19.2273C7.56754 19.3189 7.66817 19.3751 7.77661 19.3751H12.2235C12.3319 19.3751 12.4325 19.3189 12.4897 19.2267C13.2907 17.9267 13.75 16.0445 13.75 14.0626C13.75 13.8901 13.6104 13.7501 13.4375 13.7501H10.3997C10.6563 12.8086 11.4691 10.3436 13.1725 9.28326C13.8835 8.84076 14.5741 8.69982 15.1788 8.70388L15.4772 9.77826C15.8782 11.2204 16.6122 12.5776 17.5994 13.7033L18.6485 14.8995L18.6513 14.897C18.7094 14.9633 18.7916 15.0061 18.8832 15.0061C18.8932 15.0061 18.9029 15.0058 18.9132 15.0048C19.0654 14.9904 19.1847 14.8679 19.1954 14.7154L19.3929 11.8867C19.4654 10.8464 19.0094 9.85357 18.1735 9.23045V9.23045ZM11.8379 15.2795L12.4538 15.3876C12.441 15.4601 12.1363 17.1736 11.6119 18.0661L11.0729 17.7492C11.54 16.9545 11.835 15.2961 11.8379 15.2795V15.2795Z" fill="#8593A9"/>
</svg>
