<svg width="24" height="24" viewBox="0 0 24 24" fill="none" xmlns="http://www.w3.org/2000/svg">
<path d="M21.808 11.0767L21.1349 10.5753C21.1127 10.5506 21.088 10.5284 21.0602 10.5097C20.9485 10.4351 18.2946 8.70856 15.4109 10.5033C14.5701 11.0264 13.8992 11.7821 13.369 12.5894C13.7346 11.4551 14.2161 10.2652 14.8412 9.24518C17.3594 8.55818 19.4234 6.81293 20.5191 4.43693L20.5904 4.28206C20.653 4.14631 20.629 3.98618 20.5292 3.87481C20.4291 3.76343 20.2727 3.72181 20.131 3.76906C20.0354 3.80093 17.7539 4.58618 15.0921 7.62781C13.7507 9.16081 12.8905 11.4127 12.3629 13.3061L12.3486 8.87843L12.3479 8.72693L12.3216 0.749185C12.3209 0.57181 12.196 0.419185 12.022 0.383185C11.848 0.34831 11.6729 0.43831 11.6027 0.601435L10.1965 3.84256C10.1612 3.92356 10.156 4.01431 10.1811 4.09943L11.5982 8.83831L11.6084 11.9234C11.1122 9.40381 10.3836 6.71206 9.43898 5.89793C7.55648 4.27531 5.94886 3.48668 4.52348 3.48668C3.04598 3.48668 1.06223 4.72718 0.978606 4.78006C0.843981 4.86518 0.777606 5.02606 0.813231 5.18131C0.849231 5.33656 0.978606 5.45243 1.13723 5.47006L2.56936 5.62906C4.10086 5.79931 5.59373 6.19756 7.00748 6.81256L7.36073 6.96631L10.0334 8.65718C10.4372 9.93893 10.786 11.5706 11.0594 13.1036C10.5085 12.1136 9.75248 11.1408 8.72948 10.5044C5.84573 8.71043 3.19148 10.4366 3.08011 10.5108C3.05236 10.5292 2.33236 11.0778 2.33236 11.0778C1.32886 11.8256 0.782106 13.0169 0.869481 14.2649L1.10611 17.6591C1.11886 17.8421 1.26211 17.9891 1.44473 18.0063C1.45673 18.0074 1.46836 18.0078 1.48073 18.0078C1.59061 18.0078 1.68923 17.9564 1.75898 17.8769L1.76236 17.8799L3.02123 16.4448C4.20586 15.0941 5.08673 13.4654 5.56786 11.7348L5.92636 10.4456C6.65161 10.4407 7.48036 10.6098 8.33348 11.1408C10.4117 12.4338 11.3012 15.4357 11.5589 16.5011H7.87486C7.66748 16.5011 7.49986 16.6691 7.49986 16.8761C7.49986 19.2543 8.05111 21.5129 9.01223 23.0729C9.08086 23.1828 9.20161 23.2503 9.33173 23.2503H14.668C14.7981 23.2503 14.9189 23.1828 14.9875 23.0722C15.9486 21.5122 16.4999 19.2536 16.4999 16.8753C16.4999 16.6683 16.3322 16.5003 16.1249 16.5003H12.4795C12.7874 15.3704 13.7627 12.4124 15.8069 11.1401C16.66 10.6091 17.4887 10.4399 18.2144 10.4448L18.5725 11.7341C19.0536 13.4647 19.9345 15.0933 21.1191 16.4441L22.378 17.8796L22.3814 17.8766C22.4511 17.9561 22.5497 18.0074 22.6596 18.0074C22.6716 18.0074 22.6832 18.0071 22.6956 18.0059C22.8782 17.9887 23.0215 17.8417 23.0342 17.6587L23.2712 14.2642C23.3582 13.0158 22.8111 11.8244 21.808 11.0767V11.0767ZM14.2052 18.3356L14.9444 18.4653C14.929 18.5523 14.5634 20.6084 13.9341 21.6794L13.2872 21.2992C13.8479 20.3456 14.2019 18.3554 14.2052 18.3356V18.3356Z" fill="#EFF0F3"/>
</svg>
