<svg width="24" height="24" viewBox="0 0 24 24" fill="none" xmlns="http://www.w3.org/2000/svg">
<path d="M11.2936 3.17163C10.8996 3.17163 10.5801 3.49115 10.5801 3.88519C10.5801 3.93665 10.5962 5.88961 10.5962 5.88961H13.4125C13.4125 5.88961 13.4286 3.93665 13.4286 3.88519C13.4286 3.49115 13.1091 3.17163 12.7151 3.17163H11.2936Z" fill="#EFF0F3"/>
<path d="M7.53369 21.629C7.21527 21.629 6.90326 21.5997 6.60059 21.5444V23.6431C6.60059 23.8403 6.76025 23.9999 6.95746 23.9999H17.0511C17.2482 23.9999 17.4078 23.8403 17.4078 23.6431V21.5444C17.1052 21.5997 16.7933 21.629 16.4747 21.629H7.53369Z" fill="#EFF0F3"/>
<path d="M16.9212 4.97201V1.42712H17.0514C17.4454 1.42712 17.765 1.1076 17.765 0.713562C17.765 0.319519 17.4454 0 17.0514 0H6.9577C6.56366 0 6.24414 0.319519 6.24414 0.713562C6.24414 1.1076 6.56348 1.42712 6.9577 1.42712H7.08789V4.97201H8.51502V1.42712H15.4941V4.97201H16.9212Z" fill="#EFF0F3"/>
<path d="M17.2493 4.51305C17.1028 4.49565 7.56226 4.49565 7.41595 4.51305C5.56494 4.73442 4.125 6.31297 4.125 8.22258V18.2404C4.125 19.9789 5.3183 21.444 6.92889 21.8596C7.22736 21.9365 7.53992 21.9775 7.862 21.9775H16.803C17.1251 21.9775 17.4379 21.9365 17.7361 21.8596C19.3467 21.444 20.5402 19.9789 20.5402 18.2404V8.22258C20.5402 6.31297 19.1001 4.73442 17.2493 4.51305ZM13.411 16.2869C13.3511 16.594 13.1697 16.8547 12.9003 17.0208C12.55 17.2369 12.115 17.2367 11.7649 17.021C11.4955 16.8547 11.3141 16.5942 11.2542 16.2869C11.1947 15.9826 11.2636 15.6764 11.4479 15.4252L12.3325 14.2191L13.2173 15.4252C13.4017 15.6764 13.4703 15.9824 13.411 16.2869ZM14.8079 16.5777C14.809 16.5718 14.8107 16.566 14.8118 16.5601C14.9464 15.8703 14.7847 15.1489 14.3679 14.5809L12.908 12.5904C12.7736 12.4073 12.5599 12.2989 12.3327 12.2989C12.1053 12.2989 11.8916 12.4073 11.7572 12.5904L10.2971 14.5811C9.88055 15.1491 9.71887 15.8703 9.85346 16.5603C9.85455 16.5661 9.8562 16.5718 9.8573 16.5777C9.03662 15.5067 8.96924 13.9818 9.81793 12.8246L12.3325 9.39629L14.8473 12.8246C15.696 13.9818 15.6286 15.5067 14.8079 16.5777Z" fill="#EFF0F3"/>
</svg>
