<svg width="20" height="20" viewBox="0 0 20 20" fill="none" xmlns="http://www.w3.org/2000/svg">
<path d="M9.41104 2.64307C9.08267 2.64307 8.81641 2.90933 8.81641 3.2377C8.81641 3.28058 8.82983 4.90805 8.82983 4.90805H11.1768C11.1768 4.90805 11.1902 3.28058 11.1902 3.2377C11.1902 2.90933 10.924 2.64307 10.5956 2.64307H9.41104Z" fill="#8593A9"/>
<path d="M6.27856 18.0241C6.01321 18.0241 5.7532 17.9997 5.50098 17.9536V19.7025C5.50098 19.8668 5.63403 19.9999 5.79837 19.9999H14.2098C14.374 19.9999 14.507 19.8668 14.507 19.7025V17.9536C14.2548 17.9997 13.9949 18.0241 13.7294 18.0241H6.27856Z" fill="#8593A9"/>
<path d="M14.1007 4.14334V1.18927H14.2092C14.5375 1.18927 14.8038 0.923004 14.8038 0.594635C14.8038 0.266266 14.5375 0 14.2092 0H5.79776C5.46939 0 5.20312 0.266266 5.20312 0.594635C5.20312 0.923004 5.46924 1.18927 5.79776 1.18927H5.90625V4.14334H7.09552V1.18927H12.9114V4.14334H14.1007Z" fill="#8593A9"/>
<path d="M14.3744 3.76087C14.2523 3.74638 6.30188 3.74638 6.17996 3.76087C4.63745 3.94535 3.4375 5.26081 3.4375 6.85215V15.2003C3.4375 16.6491 4.43192 17.87 5.77408 18.2163C6.0228 18.2804 6.28326 18.3146 6.55167 18.3146H14.0025C14.2709 18.3146 14.5316 18.2804 14.7801 18.2163C16.1223 17.87 17.1169 16.6491 17.1169 15.2003V6.85215C17.1169 5.26081 15.9167 3.94535 14.3744 3.76087ZM11.1758 13.5724C11.1259 13.8283 10.9747 14.0456 10.7503 14.184C10.4584 14.3641 10.0958 14.3639 9.80408 14.1842C9.57962 14.0456 9.42841 13.8285 9.37851 13.5724C9.32892 13.3188 9.38629 13.0637 9.53995 12.8543L10.2771 11.8493L11.0144 12.8543C11.1681 13.0637 11.2253 13.3187 11.1758 13.5724ZM12.3399 13.8147C12.3409 13.8099 12.3422 13.805 12.3431 13.8001C12.4553 13.2253 12.3206 12.6241 11.9733 12.1508L10.7567 10.492C10.6447 10.3394 10.4666 10.2491 10.2773 10.2491C10.0877 10.2491 9.90967 10.3394 9.79767 10.492L8.58093 12.1509C8.2338 12.6242 8.09906 13.2253 8.21121 13.8002C8.21213 13.8051 8.2135 13.8099 8.21442 13.8147C7.53052 12.9222 7.47437 11.6515 8.18161 10.6871L10.2771 7.83024L12.3727 10.6871C13.08 11.6515 13.0238 12.9222 12.3399 13.8147Z" fill="#8593A9"/>
</svg>
