<svg width="25" height="24" viewBox="0 0 25 24" fill="none" xmlns="http://www.w3.org/2000/svg">
<path d="M11.5436 3.17188C11.1496 3.17188 10.8301 3.49139 10.8301 3.88544C10.8301 3.93689 10.8462 5.88985 10.8462 5.88985H13.6625C13.6625 5.88985 13.6786 3.93689 13.6786 3.88544C13.6786 3.49139 13.3591 3.17188 12.9651 3.17188H11.5436Z" fill="#EFF0F3"/>
<path d="M7.78369 21.6285C7.46527 21.6285 7.15326 21.5992 6.85059 21.5439V23.6426C6.85059 23.8398 7.01025 23.9995 7.20746 23.9995H17.3011C17.4982 23.9995 17.6578 23.8398 17.6578 23.6426V21.5439C17.3552 21.5992 17.0433 21.6285 16.7247 21.6285H7.78369Z" fill="#EFF0F3"/>
<path d="M17.1712 4.97201V1.42712H17.3014C17.6954 1.42712 18.015 1.1076 18.015 0.713562C18.015 0.319519 17.6954 0 17.3014 0H7.2077C6.81366 0 6.49414 0.319519 6.49414 0.713562C6.49414 1.1076 6.81348 1.42712 7.2077 1.42712H7.33789V4.97201H8.76502V1.42712H15.7441V4.97201H17.1712Z" fill="#EFF0F3"/>
<path d="M17.4993 4.51305C17.3528 4.49565 7.81226 4.49565 7.66595 4.51305C5.81494 4.73442 4.375 6.31297 4.375 8.22258V18.2404C4.375 19.9789 5.5683 21.444 7.17889 21.8596C7.47736 21.9365 7.78992 21.9775 8.112 21.9775H17.053C17.3751 21.9775 17.6879 21.9365 17.9861 21.8596C19.5967 21.444 20.7902 19.9789 20.7902 18.2404V8.22258C20.7902 6.31297 19.3501 4.73442 17.4993 4.51305ZM13.661 16.2869C13.6011 16.594 13.4197 16.8547 13.1503 17.0208C12.8 17.2369 12.365 17.2367 12.0149 17.021C11.7455 16.8547 11.5641 16.5942 11.5042 16.2869C11.4447 15.9826 11.5136 15.6764 11.6979 15.4252L12.5825 14.2191L13.4673 15.4252C13.6517 15.6764 13.7203 15.9824 13.661 16.2869ZM15.0579 16.5777C15.059 16.5718 15.0607 16.566 15.0618 16.5601C15.1964 15.8703 15.0347 15.1489 14.6179 14.5809L13.158 12.5904C13.0236 12.4073 12.8099 12.2989 12.5827 12.2989C12.3553 12.2989 12.1416 12.4073 12.0072 12.5904L10.5471 14.5811C10.1306 15.1491 9.96887 15.8703 10.1035 16.5603C10.1046 16.5661 10.1062 16.5718 10.1073 16.5777C9.28662 15.5067 9.21924 13.9818 10.0679 12.8246L12.5825 9.39629L15.0973 12.8246C15.946 13.9818 15.8786 15.5067 15.0579 16.5777Z" fill="#EFF0F3"/>
</svg>
