<svg width="32" height="32" viewBox="0 0 32 32" fill="none" xmlns="http://www.w3.org/2000/svg">
<path d="M16.2056 11.8992C14.4029 11.8992 12.9414 13.3606 12.9414 15.1634C12.9414 16.9661 14.4028 18.4276 16.2056 18.4276C18.0083 18.4276 19.4698 16.9662 19.4698 15.1634C19.4698 13.3606 18.0084 11.8992 16.2056 11.8992ZM16.2056 16.8731C15.2613 16.8731 14.4958 16.1076 14.4958 15.1633C14.4958 14.219 15.2613 13.4535 16.2056 13.4535C17.1499 13.4535 17.9154 14.219 17.9154 15.1633C17.9154 16.1076 17.1499 16.8731 16.2056 16.8731Z" fill="#8593A9"/>
<path d="M29.2231 4.43823L8.00607 2.02903C7.18262 1.91196 6.34831 2.15235 5.71342 2.68966C5.07859 3.1819 4.67167 3.91156 4.5865 4.71031L4.19795 7.89677H2.99323C1.28341 7.89677 0.00105015 9.41224 0.00105015 11.1221V27.0154C-0.0420152 28.6459 1.24481 30.0026 2.87534 30.0457C2.91462 30.0467 2.95396 30.0469 2.99323 30.0464H24.3269C26.0367 30.0464 27.591 28.7252 27.591 27.0154V26.3937C28.1211 26.2913 28.624 26.0795 29.0677 25.7719C29.6973 25.2418 30.1004 24.4911 30.1946 23.6736L31.9821 7.89677C32.1644 6.18301 30.9345 4.64136 29.2231 4.43823ZM26.0367 27.0154C26.0367 27.8703 25.1818 28.492 24.3269 28.492H2.99323C2.22096 28.5147 1.57654 27.9071 1.55386 27.1348C1.55267 27.095 1.55319 27.0552 1.55542 27.0154V24.1398L7.57861 19.7099C8.30217 19.1544 9.32131 19.2038 9.98789 19.8265L14.2235 23.5569C14.8668 24.097 15.6765 24.3989 16.5163 24.4118C17.1729 24.4199 17.8187 24.245 18.3815 23.9067L26.0368 19.4767V27.0154H26.0367ZM26.0367 17.6504L17.5654 22.5855C16.838 23.0164 15.9172 22.9384 15.2727 22.3912L10.9982 18.6218C9.77308 17.5691 7.98249 17.5046 6.6848 18.4664L1.55542 22.1968V11.1221C1.55542 10.2672 2.13832 9.45114 2.99323 9.45114H24.3269C25.2402 9.489 25.9778 10.2099 26.0367 11.1221V17.6504ZM30.4293 7.68695C30.4287 7.69208 30.4283 7.69729 30.4277 7.70242L28.6013 23.4792C28.6045 23.8883 28.4179 24.2757 28.0961 24.5284C27.9407 24.6839 27.591 24.7616 27.591 24.8393V11.1221C27.5296 9.35177 26.0977 7.93686 24.3268 7.89677H5.75224L6.10197 4.86576C6.17784 4.47327 6.38305 4.11759 6.68488 3.8554C7.02568 3.61977 7.43774 3.50991 7.85069 3.5445L29.0289 5.9926C29.8834 6.07375 30.5104 6.83234 30.4293 7.68695Z" fill="#8593A9"/>
</svg>
