<svg width="20" height="20" viewBox="0 0 20 20" fill="none" xmlns="http://www.w3.org/2000/svg">
<path d="M18.7061 2.04891C18.5541 1.99039 18.4518 1.83885 18.4518 1.67192C18.4518 1.50499 18.5541 1.35348 18.7061 1.29493C19.0436 1.16541 19.2143 0.779932 19.0878 0.434063C18.9617 0.0886344 18.5847 -0.0872239 18.2484 0.0429376C17.5899 0.296092 17.1475 0.950544 17.1475 1.67188C17.1475 2.39321 17.5899 3.04767 18.2484 3.30102C18.4008 3.35953 18.5031 3.51084 18.5031 3.67777C18.5031 3.8447 18.4008 3.996 18.2484 4.05452C17.9113 4.18404 17.7402 4.56952 17.8667 4.91539C17.9648 5.18372 18.2132 5.3496 18.4773 5.3496C18.5533 5.3496 18.6305 5.33591 18.7061 5.30695C19.3647 5.0538 19.8075 4.3991 19.8075 3.67781C19.8075 2.95651 19.3647 2.30182 18.7061 2.04891Z" fill="#8593A9"/>
<path d="M15.4464 2.04891C15.2944 1.99039 15.192 1.83885 15.192 1.67192C15.192 1.50499 15.2944 1.35348 15.4464 1.29493C15.7839 1.16541 15.9546 0.779932 15.828 0.434063C15.7019 0.0886344 15.3253 -0.0872239 14.9886 0.0429376C14.3301 0.296092 13.8877 0.950544 13.8877 1.67188C13.8877 2.39321 14.3301 3.04767 14.9886 3.30102C15.141 3.35953 15.2434 3.51084 15.2434 3.67777C15.2434 3.8447 15.1411 3.996 14.9886 4.05452C14.6515 4.18404 14.4804 4.56952 14.607 4.91539C14.705 5.18372 14.9534 5.3496 15.2175 5.3496C15.2935 5.3496 15.3707 5.33591 15.4464 5.30695C16.1049 5.0538 16.5477 4.3991 16.5477 3.67781C16.5477 2.95651 16.1049 2.30182 15.4464 2.04891Z" fill="#8593A9"/>
<path d="M5.0118 2.04891C4.85981 1.99039 4.75746 1.83885 4.75746 1.67192C4.75746 1.50499 4.85981 1.35348 5.0118 1.29493C5.3493 1.16541 5.52 0.779932 5.39348 0.434063C5.26735 0.0886344 4.89074 -0.0872239 4.55406 0.0429376C3.89555 0.296092 3.45312 0.950544 3.45312 1.67188C3.45312 2.39321 3.89555 3.04771 4.55406 3.30102C4.70645 3.35953 4.80879 3.51084 4.80879 3.67777C4.80879 3.8447 4.70649 3.996 4.55406 4.05452C4.21695 4.18404 4.04586 4.56952 4.17238 4.91539C4.27047 5.18372 4.51887 5.3496 4.78293 5.3496C4.85895 5.3496 4.93617 5.33591 5.0118 5.30695C5.67031 5.0538 6.11317 4.3991 6.11317 3.67781C6.11317 2.95651 5.67031 2.30182 5.0118 2.04891Z" fill="#8593A9"/>
<path d="M1.75102 2.04887C1.59903 1.99036 1.49668 1.83881 1.49668 1.67188C1.49668 1.50495 1.59903 1.35345 1.75102 1.29489C2.08852 1.16537 2.25922 0.779893 2.1327 0.434024C2.0066 0.0886349 1.62957 -0.0872235 1.29332 0.0429381C0.634805 0.296092 0.192383 0.950545 0.192383 1.67188C0.192383 2.39322 0.634805 3.04771 1.29332 3.30102C1.4457 3.35954 1.54805 3.51084 1.54805 3.67777C1.54805 3.8447 1.44574 3.99601 1.29332 4.05452C0.956212 4.18404 0.785118 4.56952 0.911641 4.91539C1.00973 5.18372 1.25813 5.34961 1.52219 5.34961C1.5982 5.34961 1.67543 5.33591 1.75106 5.30695C2.40957 5.0538 2.85242 4.39911 2.85242 3.67781C2.85239 2.95648 2.40953 2.30178 1.75102 2.04887Z" fill="#8593A9"/>
<path d="M19.9361 18.6867C19.7803 18.3532 19.3913 18.2115 19.0661 18.3722C18.1567 18.8187 17.0706 18.7389 16.2312 18.1654C14.8237 17.2029 13.0031 17.2025 11.5947 18.1654C10.6263 18.8273 9.37462 18.8277 8.40528 18.1654C6.99778 17.2029 5.17719 17.2025 3.76883 18.1654C2.92902 18.7389 1.84336 18.8184 0.933905 18.3722C0.608671 18.212 0.219764 18.3537 0.0639436 18.6867C-0.0914472 19.0197 0.0461311 19.4191 0.370936 19.5784C1.69266 20.2273 3.27211 20.1124 4.49235 19.278C5.46168 18.6157 6.71332 18.6161 7.6818 19.278C8.38618 19.7595 9.19329 20 10 20C10.8071 20 11.6143 19.7594 12.3183 19.278C13.2876 18.6157 14.5392 18.6161 15.5077 19.278C16.7279 20.1123 18.3065 20.2277 19.6291 19.5784C19.9539 19.4191 20.0914 19.0197 19.9361 18.6867Z" fill="#8593A9"/>
<path d="M16.5219 8.02368H3.47875C2.03805 8.02368 0.870117 9.22113 0.870117 10.6982V13.32C0.870117 13.9668 1.29523 14.5608 1.91449 14.6842C2.74715 14.85 3.47875 14.1974 3.47875 13.3728V11.3669C3.47875 10.9977 3.77074 10.6983 4.1309 10.6983H5.4352C5.79536 10.6983 6.08735 10.9977 6.08735 11.3669V13.4318L6.52051 13.4041C7.43454 13.3455 8.30028 13.7055 9.01497 14.2927C9.29864 14.5258 9.64411 14.6503 10.0003 14.6503C10.3098 14.6503 10.6113 14.5563 10.8715 14.3784C11.7775 13.7592 12.829 13.432 13.9133 13.4318V11.3669C13.9133 10.9977 14.2052 10.6983 14.5654 10.6983H15.8697C16.2299 10.6983 16.5218 10.9977 16.5218 11.3669V13.3201C16.5218 13.9668 16.947 14.5609 17.5662 14.6842C18.3989 14.85 19.1305 14.1975 19.1305 13.3729V10.6983C19.1305 9.22113 17.9626 8.02368 16.5219 8.02368Z" fill="#8593A9"/>
<path d="M10.0002 1.33716C8.56176 1.33716 7.3916 2.53689 7.3916 4.01172C7.3916 5.48655 8.56176 6.68628 10.0002 6.68628C11.4387 6.68628 12.6089 5.48655 12.6089 4.01172C12.6089 2.53689 11.4387 1.33716 10.0002 1.33716Z" fill="#8593A9"/>
<path d="M19.9361 16.0121C19.7803 15.6789 19.3913 15.5374 19.0661 15.6976C18.1567 16.144 17.0706 16.0641 16.2312 15.4908C14.8237 14.5281 13.0031 14.5281 11.5947 15.4908C10.6263 16.1527 9.37462 16.1531 8.40528 15.4908C6.99778 14.5281 5.17719 14.5281 3.76883 15.4908C2.92902 16.0642 1.84336 16.1434 0.933905 15.6976C0.608671 15.5379 0.219764 15.6789 0.0639436 16.0121C-0.0914472 16.3451 0.0461311 16.7446 0.370936 16.9039C1.69266 17.5525 3.27211 17.4376 4.49235 16.6035C5.46168 15.9412 6.71332 15.9416 7.6818 16.6035C8.38618 17.085 9.19329 17.3255 10 17.3255C10.8071 17.3255 11.6143 17.0849 12.3183 16.6035C13.2876 15.9412 14.5392 15.9416 15.5077 16.6035C16.7279 17.4376 18.3065 17.5533 19.6291 16.9039C19.9539 16.7446 20.0914 16.3451 19.9361 16.0121Z" fill="#8593A9"/>
</svg>
