<svg width="24" height="24" viewBox="0 0 24 24" fill="none" xmlns="http://www.w3.org/2000/svg">
<path d="M22.4476 2.45867C22.2652 2.38845 22.1424 2.2066 22.1424 2.00629C22.1424 1.80598 22.2652 1.62417 22.4476 1.5539C22.8526 1.39848 23.0574 0.935911 22.9056 0.520871C22.7542 0.10636 22.3018 -0.104668 21.8983 0.0515247C21.1081 0.355307 20.5771 1.14064 20.5771 2.00624C20.5771 2.87183 21.1081 3.65717 21.8983 3.96119C22.0811 4.03141 22.2039 4.21297 22.2039 4.41329C22.2039 4.6136 22.0812 4.79516 21.8983 4.86538C21.4937 5.0208 21.2884 5.48337 21.4403 5.89841C21.558 6.22041 21.856 6.41947 22.1729 6.41947C22.2641 6.41947 22.3568 6.40303 22.4476 6.36829C23.2378 6.0645 23.7692 5.27888 23.7692 4.41333C23.7692 3.54779 23.2378 2.76216 22.4476 2.45867Z" fill="#EFF0F3"/>
<path d="M18.5354 2.45867C18.353 2.38845 18.2302 2.2066 18.2302 2.00629C18.2302 1.80598 18.353 1.62417 18.5354 1.5539C18.9404 1.39848 19.1453 0.935911 18.9935 0.520871C18.8421 0.10636 18.3902 -0.104668 17.9862 0.0515247C17.1959 0.355307 16.665 1.14064 16.665 2.00624C16.665 2.87183 17.1959 3.65717 17.9862 3.96119C18.169 4.03141 18.2918 4.21297 18.2918 4.41329C18.2918 4.6136 18.1691 4.79516 17.9862 4.86538C17.5816 5.0208 17.3763 5.48337 17.5281 5.89841C17.6458 6.22041 17.9439 6.41947 18.2608 6.41947C18.352 6.41947 18.4447 6.40303 18.5354 6.36829C19.3257 6.0645 19.8571 5.27888 19.8571 4.41333C19.8571 3.54779 19.3257 2.76216 18.5354 2.45867Z" fill="#EFF0F3"/>
<path d="M6.01396 2.45867C5.83157 2.38845 5.70875 2.2066 5.70875 2.00629C5.70875 1.80598 5.83157 1.62417 6.01396 1.5539C6.41896 1.39848 6.6238 0.935911 6.47197 0.520871C6.32061 0.10636 5.86869 -0.104668 5.46468 0.0515247C4.67446 0.355307 4.14355 1.14064 4.14355 2.00624C4.14355 2.87183 4.67446 3.65722 5.46468 3.96119C5.64754 4.03141 5.77035 4.21297 5.77035 4.41329C5.77035 4.6136 5.64758 4.79516 5.46468 4.86538C5.06015 5.0208 4.85483 5.48337 5.00666 5.89841C5.12437 6.22041 5.42244 6.41947 5.73932 6.41947C5.83054 6.41947 5.92321 6.40303 6.01396 6.36829C6.80417 6.0645 7.3356 5.27888 7.3356 4.41333C7.3356 3.54779 6.80417 2.76216 6.01396 2.45867Z" fill="#EFF0F3"/>
<path d="M2.10082 2.45862C1.91843 2.38841 1.79562 2.20655 1.79562 2.00624C1.79562 1.80593 1.91843 1.62412 2.10082 1.55386C2.50582 1.39843 2.71067 0.935863 2.55884 0.520824C2.40753 0.106361 1.95509 -0.104667 1.55159 0.0515253C0.761374 0.355308 0.230469 1.14064 0.230469 2.00624C0.230469 2.87183 0.761374 3.65722 1.55159 3.96119C1.73445 4.03141 1.85726 4.21298 1.85726 4.41329C1.85726 4.6136 1.7345 4.79516 1.55159 4.86538C1.14706 5.0208 0.941749 5.48337 1.09358 5.89841C1.21128 6.22041 1.50936 6.41947 1.82623 6.41947C1.91745 6.41947 2.01012 6.40304 2.10087 6.36829C2.89109 6.06451 3.42251 5.27888 3.42251 4.41333C3.42246 3.54774 2.89104 2.76211 2.10082 2.45862Z" fill="#EFF0F3"/>
<path d="M23.9232 22.4236C23.7362 22.0235 23.2695 21.8534 22.8793 22.0462C21.7879 22.5821 20.4847 22.4863 19.4774 21.7981C17.7884 20.6431 15.6037 20.6426 13.9136 21.7981C12.7515 22.5923 11.2495 22.5928 10.0863 21.7981C8.39731 20.6431 6.21261 20.6426 4.52258 21.7981C3.51482 22.4863 2.21202 22.5817 1.12068 22.0462C0.730403 21.854 0.263716 22.024 0.0767321 22.4236C-0.109736 22.8232 0.0553572 23.3025 0.445122 23.4937C2.03118 24.2723 3.92652 24.1344 5.3908 23.1332C6.554 22.3385 8.05597 22.339 9.21814 23.1332C10.0634 23.711 11.0319 23.9995 12 23.9995C12.9685 23.9995 13.9371 23.7109 14.7819 23.1332C15.9451 22.3385 17.447 22.339 18.6092 23.1332C20.0735 24.1344 21.9678 24.2728 23.5549 23.4937C23.9446 23.3025 24.1096 22.8232 23.9232 22.4236Z" fill="#EFF0F3"/>
<path d="M19.826 9.62891H4.1743C2.44546 9.62891 1.04395 11.0658 1.04395 12.8384V15.9845C1.04395 16.7606 1.55408 17.4734 2.29719 17.6215C3.29638 17.8204 4.1743 17.0373 4.1743 16.0479V13.6408C4.1743 13.1976 4.52469 12.8384 4.95687 12.8384H6.52203C6.95421 12.8384 7.3046 13.1976 7.3046 13.6408V16.1186L7.8244 16.0853C8.92123 16.015 9.96011 16.447 10.8177 17.1516C11.1581 17.4313 11.5727 17.5808 12.0001 17.5808C12.3715 17.5808 12.7333 17.468 13.0456 17.2545C14.1327 16.5115 15.3946 16.1188 16.6957 16.1186V13.6408C16.6957 13.1976 17.0461 12.8384 17.4782 12.8384H19.0434C19.4756 12.8384 19.826 13.1976 19.826 13.6408V15.9845C19.826 16.7606 20.3361 17.4735 21.0792 17.6215C22.0784 17.8205 22.9563 17.0374 22.9563 16.0479V12.8385C22.9564 11.0658 21.5549 9.62891 19.826 9.62891Z" fill="#EFF0F3"/>
<path d="M11.9995 1.60449C10.2733 1.60449 8.86914 3.04415 8.86914 4.81394C8.86914 6.58372 10.2733 8.02338 11.9995 8.02338C13.7257 8.02338 15.1298 6.58372 15.1298 4.81394C15.1298 3.04415 13.7257 1.60449 11.9995 1.60449Z" fill="#EFF0F3"/>
<path d="M23.9232 19.2146C23.7362 18.8147 23.2695 18.6449 22.8793 18.8372C21.7879 19.3729 20.4847 19.277 19.4774 18.5891C17.7884 17.4338 15.6037 17.4338 13.9136 18.5891C12.7515 19.3834 11.2495 19.3839 10.0863 18.5891C8.39731 17.4338 6.21261 17.4338 4.52258 18.5891C3.51482 19.2771 2.21202 19.3721 1.12068 18.8372C0.730403 18.6455 0.263716 18.8148 0.0767321 19.2146C-0.109736 19.6143 0.0553572 20.0936 0.445122 20.2847C2.03118 21.0631 3.92652 20.9252 5.3908 19.9243C6.554 19.1295 8.05597 19.13 9.21814 19.9243C10.0634 20.502 11.0319 20.7906 12 20.7906C12.9685 20.7906 13.9371 20.502 14.7819 19.9243C15.9451 19.1295 17.447 19.13 18.6092 19.9243C20.0735 20.9252 21.9678 21.0641 23.5549 20.2847C23.9446 20.0936 24.1096 19.6143 23.9232 19.2146Z" fill="#EFF0F3"/>
</svg>
