<svg width="24" height="24" viewBox="0 0 24 24" fill="none" xmlns="http://www.w3.org/2000/svg">
<path d="M22.4476 2.45869C22.2652 2.38847 22.1424 2.20662 22.1424 2.0063C22.1424 1.80599 22.2652 1.62418 22.4476 1.55392C22.8526 1.39849 23.0574 0.935919 22.9056 0.520876C22.7542 0.106361 22.3018 -0.104669 21.8983 0.0515252C21.1081 0.35531 20.5771 1.14065 20.5771 2.00626C20.5771 2.87186 21.1081 3.6572 21.8983 3.96123C22.0811 4.03144 22.2039 4.21301 22.2039 4.41332C22.2039 4.61364 22.0812 4.79521 21.8983 4.86542C21.4937 5.02085 21.2884 5.48342 21.4403 5.89846C21.558 6.22046 21.856 6.41953 22.1729 6.41953C22.2641 6.41953 22.3568 6.40309 22.4476 6.36834C23.2378 6.06456 23.7692 5.27893 23.7692 4.41337C23.7692 3.54782 23.2378 2.76219 22.4476 2.45869Z" fill="#EFF0F3"/>
<path d="M18.5354 2.45869C18.3531 2.38847 18.2302 2.20662 18.2302 2.0063C18.2302 1.80599 18.3531 1.62418 18.5354 1.55392C18.9404 1.39849 19.1453 0.935919 18.9935 0.520876C18.8421 0.106361 18.3902 -0.104669 17.9862 0.0515252C17.1959 0.35531 16.665 1.14065 16.665 2.00626C16.665 2.87186 17.1959 3.6572 17.9862 3.96123C18.169 4.03144 18.2918 4.21301 18.2918 4.41332C18.2918 4.61364 18.1691 4.79521 17.9862 4.86542C17.5816 5.02085 17.3763 5.48342 17.5281 5.89846C17.6459 6.22046 17.9439 6.41953 18.2608 6.41953C18.352 6.41953 18.4447 6.40309 18.5354 6.36834C19.3257 6.06456 19.8571 5.27893 19.8571 4.41337C19.8571 3.54782 19.3257 2.76219 18.5354 2.45869Z" fill="#EFF0F3"/>
<path d="M6.01396 2.45869C5.83157 2.38847 5.70876 2.20662 5.70876 2.0063C5.70876 1.80599 5.83157 1.62418 6.01396 1.55392C6.41896 1.39849 6.62381 0.935919 6.47198 0.520876C6.32062 0.106361 5.8687 -0.104669 5.46468 0.0515252C4.67446 0.35531 4.14355 1.14065 4.14355 2.00626C4.14355 2.87186 4.67446 3.65725 5.46468 3.96123C5.64754 4.03144 5.77035 4.21301 5.77035 4.41332C5.77035 4.61364 5.64759 4.79521 5.46468 4.86542C5.06015 5.02085 4.85484 5.48342 5.00666 5.89846C5.12437 6.22046 5.42245 6.41953 5.73932 6.41953C5.83054 6.41953 5.92321 6.40309 6.01396 6.36834C6.80418 6.06456 7.3356 5.27893 7.3356 4.41337C7.3356 3.54782 6.80418 2.76219 6.01396 2.45869Z" fill="#EFF0F3"/>
<path d="M2.10083 2.45864C1.91844 2.38843 1.79563 2.20657 1.79563 2.00626C1.79563 1.80594 1.91844 1.62413 2.10083 1.55387C2.50583 1.39845 2.71067 0.935872 2.55885 0.520828C2.40753 0.106362 1.9551 -0.104668 1.5516 0.0515257C0.761376 0.355311 0.230469 1.14065 0.230469 2.00626C0.230469 2.87186 0.761376 3.65725 1.5516 3.96123C1.73445 4.03144 1.85727 4.21301 1.85727 4.41332C1.85727 4.61364 1.7345 4.79521 1.5516 4.86542C1.14706 5.02085 0.941751 5.48342 1.09358 5.89846C1.21128 6.22046 1.50936 6.41953 1.82624 6.41953C1.91745 6.41953 2.01013 6.40309 2.10088 6.36834C2.8911 6.06456 3.42252 5.27893 3.42252 4.41337C3.42247 3.54777 2.89105 2.76214 2.10083 2.45864Z" fill="#EFF0F3"/>
<path d="M23.9233 22.4239C23.7363 22.0237 23.2696 21.8536 22.8793 22.0464C21.788 22.5824 20.4847 22.4865 19.4774 21.7983C17.7884 20.6433 15.6037 20.6428 13.9137 21.7983C12.7516 22.5926 11.2495 22.5931 10.0863 21.7983C8.39733 20.6433 6.21263 20.6428 4.5226 21.7983C3.51483 22.4866 2.21203 22.5819 1.12069 22.0464C0.730405 21.8542 0.263717 22.0242 0.0767323 22.4239C-0.109737 22.8235 0.0553573 23.3028 0.445123 23.4939C2.03119 24.2726 3.92653 24.1347 5.39082 23.1335C6.55402 22.3387 8.05599 22.3392 9.21816 23.1335C10.0634 23.7112 11.0319 23.9998 12 23.9998C12.9685 23.9998 13.9371 23.7112 14.7819 23.1335C15.9451 22.3387 17.4471 22.3392 18.6092 23.1335C20.0735 24.1346 21.9678 24.273 23.5549 23.4939C23.9447 23.3027 24.1097 22.8235 23.9233 22.4239Z" fill="#EFF0F3"/>
<path d="M19.8261 9.62842H4.17431C2.44546 9.62842 1.04395 11.0654 1.04395 12.8379V15.984C1.04395 16.7601 1.55409 17.473 2.2972 17.621C3.29638 17.82 4.17431 17.0369 4.17431 16.0474V13.6403C4.17431 13.1972 4.5247 12.8379 4.95689 12.8379H6.52204C6.95423 12.8379 7.30462 13.1972 7.30462 13.6403V16.1182L7.82442 16.0849C8.92125 16.0146 9.96014 16.4466 10.8178 17.1512C11.1582 17.4309 11.5727 17.5803 12.0001 17.5803C12.3716 17.5803 12.7333 17.4675 13.0456 17.2541C14.1328 16.5111 15.3946 16.1184 16.6957 16.1182V13.6403C16.6957 13.1972 17.0461 12.8379 17.4783 12.8379H19.0434C19.4756 12.8379 19.826 13.1972 19.826 13.6403V15.9841C19.826 16.7602 20.3362 17.4731 21.0793 17.6211C22.0785 17.8201 22.9564 17.037 22.9564 16.0475V12.838C22.9564 11.0654 21.5549 9.62842 19.8261 9.62842Z" fill="#EFF0F3"/>
<path d="M12.0005 1.60474C10.2743 1.60474 8.87012 3.04441 8.87012 4.81421C8.87012 6.584 10.2743 8.02368 12.0005 8.02368C13.7267 8.02368 15.1308 6.584 15.1308 4.81421C15.1308 3.04441 13.7267 1.60474 12.0005 1.60474Z" fill="#EFF0F3"/>
<path d="M23.9233 19.2147C23.7363 18.8147 23.2696 18.645 22.8793 18.8372C21.788 19.3729 20.4847 19.277 19.4774 18.5891C17.7884 17.4338 15.6037 17.4338 13.9137 18.5891C12.7516 19.3834 11.2495 19.3839 10.0863 18.5891C8.39733 17.4338 6.21263 17.4338 4.5226 18.5891C3.51483 19.2771 2.21203 19.3721 1.12069 18.8372C0.730405 18.6455 0.263717 18.8148 0.0767323 19.2147C-0.109737 19.6143 0.0553573 20.0936 0.445123 20.2848C2.03119 21.0631 3.92653 20.9252 5.39082 19.9243C6.55402 19.1295 8.05599 19.13 9.21816 19.9243C10.0634 20.502 11.0319 20.7906 12 20.7906C12.9685 20.7906 13.9371 20.502 14.7819 19.9243C15.9451 19.1295 17.4471 19.13 18.6092 19.9243C20.0735 20.9252 21.9678 21.0641 23.5549 20.2848C23.9447 20.0936 24.1097 19.6143 23.9233 19.2147Z" fill="#EFF0F3"/>
</svg>
