<svg width="24" height="24" viewBox="0 0 24 24" fill="none" xmlns="http://www.w3.org/2000/svg">
<path d="M7.82446 9.38608L9.91246 12.594L11.3765 10.9306L9.19246 8.38806C10.1285 7.0336 9.88847 4.79994 8.49647 2.97024C6.86447 0.807861 4.24846 -0.0238255 2.66446 1.14053C1.08046 2.30489 1.12847 5.01381 2.76047 7.17618C4.17647 9.02965 6.26446 9.88509 7.82446 9.38608Z" fill="#EFF0F3"/>
<path d="M14.04 14.0439L12.4561 16.4915L16.2961 22.3608C16.8481 23.2162 18.024 23.4301 18.864 22.8123L19.0081 22.6935C19.8241 22.0756 19.9681 20.9113 19.2961 20.1271L14.04 14.0439Z" fill="#EFF0F3"/>
<path d="M22.3445 3.13691C22.1285 2.87552 21.7205 2.89928 21.5285 3.16067C21.5285 3.16067 18.7925 6.62998 18.0245 7.60423C17.9045 7.74681 17.6885 7.77057 17.5445 7.67552C17.4005 7.55671 17.3525 7.36661 17.4725 7.20027L20.7605 2.61413C20.9045 2.42404 20.9045 2.13889 20.7365 1.94879C20.5205 1.6874 20.1125 1.71116 19.9205 1.97255C19.9205 1.97255 17.1845 5.44186 16.4165 6.41611C16.2965 6.55869 16.0805 6.58245 15.9365 6.4874C15.7925 6.36859 15.7445 6.17849 15.8645 6.01215C16.6085 4.99037 19.1765 1.40226 19.1765 1.40226C19.3685 1.14087 19.2725 0.760663 18.9605 0.618089C18.7445 0.52304 18.4805 0.59433 18.3125 0.784429L14.6165 5.48938L14.1365 6.10721C13.6565 6.74879 13.4405 7.50919 13.5365 8.17454L13.7525 9.55275L4.56047 20.1032C3.88847 20.8874 4.03247 22.0518 4.84847 22.6696L4.99247 22.7884C5.80847 23.4062 6.98447 23.1924 7.56047 22.3369L15.1445 10.6221L16.5605 10.432C17.2325 10.3369 17.9045 9.90918 18.4085 9.2676L18.8885 8.64978L22.3685 3.80225C22.5125 3.61215 22.5125 3.32701 22.3445 3.13691Z" fill="#EFF0F3"/>
</svg>
