<svg width="20" height="20" viewBox="0 0 20 20" fill="none" xmlns="http://www.w3.org/2000/svg">
<path d="M6.52038 7.82165L8.26039 10.4949L9.48039 9.10878L7.66039 6.98997C8.44039 5.86125 8.24039 3.99987 7.08039 2.47512C5.72039 0.673136 3.54038 -0.0199359 2.22038 0.950361C0.900384 1.92066 0.940389 4.17809 2.30039 5.98007C3.48039 7.52462 5.22038 8.23749 6.52038 7.82165Z" fill="#8593A9"/>
<path d="M11.6999 11.7028L10.3799 13.7424L13.5799 18.6335C14.0399 19.3463 15.0199 19.5245 15.7199 19.0097L15.8399 18.9107C16.5199 18.3958 16.6399 17.4255 16.0799 16.7721L11.6999 11.7028Z" fill="#8593A9"/>
<path d="M18.6201 2.61368C18.4401 2.39586 18.1001 2.41566 17.9401 2.63348C17.9401 2.63348 15.6601 5.52457 15.0201 6.33645C14.9201 6.45527 14.7401 6.47507 14.6201 6.39586C14.5001 6.29685 14.4601 6.13843 14.5601 5.99982L17.3001 2.17804C17.4201 2.01962 17.4201 1.782 17.2801 1.62359C17.1001 1.40576 16.7601 1.42556 16.6001 1.64338C16.6001 1.64338 14.3201 4.53447 13.6801 5.34636C13.5801 5.46517 13.4001 5.48497 13.2801 5.40576C13.1601 5.30675 13.1201 5.14833 13.2201 5.00972C13.8401 4.15823 15.9801 1.16814 15.9801 1.16814C16.1401 0.950321 16.0601 0.633479 15.8001 0.514667C15.6201 0.43546 15.4001 0.494868 15.2601 0.653284L12.1801 4.57407L11.7801 5.08893C11.3801 5.62359 11.2001 6.25725 11.2801 6.81171L11.4601 7.96022L3.80006 16.7523C3.24006 17.4058 3.36007 18.3761 4.04007 18.8909L4.16006 18.9899C4.84006 19.5048 5.82006 19.3266 6.30006 18.6137L12.6201 8.85131L13.8001 8.6929C14.3601 8.61369 14.9201 8.25725 15.3401 7.72259L15.7401 7.20775L18.6401 3.16814C18.7601 3.00972 18.7601 2.7721 18.6201 2.61368Z" fill="#8593A9"/>
</svg>
