<svg width="24" height="24" viewBox="0 0 24 24" fill="none" xmlns="http://www.w3.org/2000/svg">
<path d="M7.82446 9.38608L9.91246 12.594L11.3765 10.9306L9.19246 8.38806C10.1285 7.0336 9.88847 4.79994 8.49647 2.97024C6.86447 0.807861 4.24846 -0.0238255 2.66446 1.14053C1.08046 2.30489 1.12847 5.0138 2.76047 7.17618C4.17647 9.02965 6.26446 9.88509 7.82446 9.38608Z" fill="#EFF0F3"/>
<path d="M14.04 14.0433L12.4561 16.4909L16.2961 22.3602C16.8481 23.2156 18.024 23.4295 18.864 22.8117L19.0081 22.6928C19.8241 22.075 19.9681 20.9107 19.2961 20.1265L14.04 14.0433Z" fill="#EFF0F3"/>
<path d="M22.3445 3.13642C22.1285 2.87504 21.7205 2.89879 21.5285 3.16018C21.5285 3.16018 18.7925 6.62949 18.0245 7.60374C17.9045 7.74632 17.6885 7.77008 17.5445 7.67503C17.4005 7.55622 17.3525 7.36612 17.4725 7.19978L20.7605 2.61365C20.9045 2.42355 20.9045 2.1384 20.7365 1.9483C20.5205 1.68692 20.1125 1.71067 19.9205 1.97206C19.9205 1.97206 17.1845 5.44137 16.4165 6.41563C16.2965 6.5582 16.0805 6.58196 15.9365 6.48691C15.7925 6.3681 15.7445 6.178 15.8645 6.01166C16.6085 4.98988 19.1765 1.40177 19.1765 1.40177C19.3685 1.14038 19.2725 0.760175 18.9605 0.617601C18.7445 0.522551 18.4805 0.593841 18.3125 0.78394L14.6165 5.48889L14.1365 6.10672C13.6565 6.7483 13.4405 7.5087 13.5365 8.17405L13.7525 9.55226L4.56047 20.1027C3.88847 20.8869 4.03247 22.0513 4.84847 22.6691L4.99247 22.7879C5.80847 23.4057 6.98447 23.1919 7.56047 22.3364L15.1445 10.6216L16.5605 10.4315C17.2325 10.3364 17.9045 9.9087 18.4085 9.26711L18.8885 8.6493L22.3685 3.80176C22.5125 3.61167 22.5125 3.32652 22.3445 3.13642Z" fill="#EFF0F3"/>
</svg>
