<svg width="20" height="20" viewBox="0 0 20 20" fill="none" xmlns="http://www.w3.org/2000/svg">
<path d="M1.88508 0.0784302C1.18903 0.262744 0.586824 0.749018 0.277903 1.37647C-0.0192876 1.98039 0.000264359 1.36863 0.000264359 10C0.000264359 16.651 0.00808516 17.7843 0.0589204 18.0196C0.25053 18.9294 0.981775 19.6863 1.90072 19.9216C2.19009 19.9961 2.35041 20 6.1787 20H10.1517L10.3511 19.902C10.6326 19.7608 10.7656 19.549 10.7851 19.2157C10.8008 18.898 10.6952 18.6667 10.4449 18.4902L10.2768 18.3725L6.28428 18.3529L2.28785 18.3333L2.13143 18.2471C1.93591 18.1412 1.8186 18.0196 1.74039 17.8353C1.68956 17.7059 1.68174 16.851 1.68174 10C1.68174 3.14902 1.68956 2.29412 1.74039 2.1647C1.8186 1.98039 1.93591 1.85882 2.13143 1.75294L2.28785 1.66667L6.28428 1.64706L10.2768 1.62745L10.4449 1.5098C10.6952 1.33333 10.8008 1.10196 10.7851 0.784313C10.7656 0.450979 10.6326 0.239215 10.3511 0.098038L10.1517 -1.18278e-06L6.16305 0.00392039C2.36215 0.00392039 2.15489 0.00784195 1.88508 0.0784302Z" fill="black"/>
<path d="M13.9056 4.1961C13.3777 4.36473 13.1392 5.00394 13.4442 5.43924C13.5029 5.52159 14.3514 6.38042 15.329 7.35296C16.3066 8.32159 17.1161 9.12944 17.12 9.14512C17.1278 9.16473 14.9184 9.17649 12.2124 9.17649H7.28925L7.11719 9.26277C6.90212 9.37649 6.7457 9.57257 6.67923 9.81179C6.58538 10.1687 6.77308 10.5569 7.11719 10.7334L7.28925 10.8236H12.2124C14.9184 10.8236 17.1278 10.8353 17.12 10.8549C17.1161 10.8706 16.3066 11.6785 15.329 12.6471C14.3514 13.6196 13.5029 14.4785 13.4442 14.5608C12.9711 15.2353 13.7766 16.1255 14.5196 15.7373C14.676 15.6588 19.8495 10.5334 19.9355 10.3726C20.0215 10.2157 20.0215 9.78434 19.9355 9.62747C19.8495 9.46277 14.676 4.3412 14.5157 4.25885C14.3593 4.17649 14.0582 4.14512 13.9056 4.1961Z" fill="black"/>
</svg>
