<svg width="16" height="16" viewBox="0 0 16 16" fill="none" xmlns="http://www.w3.org/2000/svg">
<g clip-path="url(#clip0_2610_4304)">
<path d="M12.6518 9.91174C12.3237 9.57067 11.9281 9.38832 11.5087 9.38832C11.0928 9.38832 10.6937 9.56729 10.3521 9.90836L9.28348 10.9721C9.19555 10.9248 9.10763 10.8809 9.02308 10.837C8.90134 10.7762 8.78636 10.7188 8.68828 10.658C7.68726 10.0232 6.77755 9.19583 5.90504 8.12535C5.48232 7.5918 5.19824 7.14267 4.99195 6.68679C5.26926 6.43352 5.52628 6.17012 5.77654 5.91685C5.87123 5.8223 5.96592 5.72437 6.06061 5.62982C6.77079 4.92066 6.77079 4.00215 6.06061 3.29299L5.13737 2.3711C5.03254 2.26641 4.92432 2.15835 4.82286 2.05029C4.61995 1.84092 4.4069 1.6248 4.18708 1.42219C3.85904 1.098 3.46675 0.925781 3.05417 0.925781C2.64159 0.925781 2.24253 1.098 1.90435 1.42219C1.90097 1.42556 1.90097 1.42556 1.89759 1.42894L0.74777 2.58722C0.314898 3.01947 0.0680248 3.54626 0.0139157 4.15748C-0.067248 5.14354 0.223588 6.06206 0.446789 6.66315C0.994643 8.13886 1.81304 9.50651 3.03388 10.9721C4.51512 12.7382 6.29734 14.1329 8.33319 15.1156C9.11101 15.4836 10.1492 15.9193 11.3092 15.9936C11.3802 15.9969 11.4546 16.0003 11.5222 16.0003C12.3034 16.0003 12.9595 15.72 13.4736 15.1628C13.4769 15.1561 13.4837 15.1527 13.4871 15.1459C13.6629 14.9332 13.8658 14.7407 14.0789 14.5347C14.2243 14.3963 14.3731 14.2511 14.5185 14.0991C14.8533 13.7513 15.0292 13.3461 15.0292 12.9307C15.0292 12.512 14.85 12.1101 14.5084 11.7724L12.6518 9.91174ZM13.8625 13.4676C13.8591 13.4676 13.8591 13.471 13.8625 13.4676C13.7306 13.6095 13.5953 13.7378 13.4499 13.8796C13.2301 14.089 13.0069 14.3085 12.7972 14.555C12.4556 14.9197 12.0532 15.0919 11.5256 15.0919C11.4749 15.0919 11.4208 15.0919 11.3701 15.0885C10.3657 15.0244 9.43228 14.6327 8.73225 14.2983C6.81814 13.3731 5.13737 12.0595 3.74068 10.3946C2.58748 9.00673 1.81643 7.7235 1.30577 6.34572C0.991262 5.50487 0.87628 4.84975 0.927007 4.23178C0.960825 3.83668 1.11301 3.50912 1.3937 3.22883L2.5469 2.07731C2.71261 1.92197 2.88846 1.83755 3.06094 1.83755C3.27399 1.83755 3.44646 1.96587 3.55468 2.07393C3.55806 2.07731 3.56144 2.08068 3.56483 2.08406C3.77112 2.27655 3.96726 2.47578 4.17355 2.68853C4.27839 2.79659 4.38661 2.90465 4.49483 3.01609L5.41806 3.93798C5.77654 4.29594 5.77654 4.62687 5.41806 4.98483C5.31999 5.08276 5.2253 5.18069 5.12723 5.27524C4.84315 5.56565 4.57261 5.83581 4.27839 6.09921C4.27163 6.10596 4.26486 6.10934 4.26148 6.11609C3.97064 6.40651 4.02475 6.69017 4.08563 6.88265C4.08901 6.89278 4.09239 6.90291 4.09577 6.91304C4.33588 7.49387 4.67406 8.04093 5.1881 8.69267L5.19148 8.69605C6.12486 9.8442 7.10897 10.7391 8.19454 11.4246C8.33319 11.5124 8.47523 11.5833 8.6105 11.6508C8.73225 11.7116 8.84723 11.769 8.9453 11.8298C8.95883 11.8366 8.97236 11.8467 8.98588 11.8535C9.10086 11.9109 9.20908 11.9379 9.32068 11.9379C9.60137 11.9379 9.77723 11.7623 9.83472 11.7049L10.9913 10.55C11.1063 10.4352 11.2889 10.2967 11.502 10.2967C11.7116 10.2967 11.8841 10.4284 11.9889 10.5432C11.9923 10.5466 11.9923 10.5466 11.9957 10.55L13.8591 12.4107C14.2074 12.7551 14.2074 13.1097 13.8625 13.4676Z" fill="white"/>
<path d="M8.64728 3.80573C9.53332 3.95431 10.3382 4.37305 10.9807 5.01466C11.6233 5.65627 12.0393 6.45998 12.1914 7.34473C12.2286 7.56761 12.4214 7.72294 12.6412 7.72294C12.6683 7.72294 12.6919 7.71957 12.719 7.71619C12.9693 7.67567 13.135 7.43928 13.0944 7.18939C12.9118 6.11891 12.4045 5.14298 11.6301 4.36967C10.8556 3.59636 9.87827 3.08982 8.80623 2.90747C8.55597 2.86695 8.32263 3.03242 8.27866 3.27893C8.2347 3.52544 8.39703 3.76521 8.64728 3.80573Z" fill="white"/>
<path d="M15.9929 7.05794C15.6919 5.29519 14.86 3.69116 13.5817 2.41469C12.3033 1.13821 10.697 0.307495 8.93166 0.00695018C8.68479 -0.0369496 8.45144 0.131896 8.40748 0.37841C8.36689 0.628302 8.5326 0.861308 8.78286 0.905208C10.3588 1.17198 11.7961 1.91828 12.9391 3.0563C14.0822 4.1977 14.8262 5.63288 15.0933 7.20652C15.1305 7.4294 15.3233 7.58474 15.5431 7.58474C15.5702 7.58474 15.5938 7.58136 15.6209 7.57798C15.8678 7.54084 16.0369 7.30445 15.9929 7.05794Z" fill="white"/>
</g>
<defs>
<clipPath id="clip0_2610_4304">
<rect width="16" height="16" fill="white"/>
</clipPath>
</defs>
</svg>
