<svg width="22" height="21" viewBox="0 0 22 21" fill="none" xmlns="http://www.w3.org/2000/svg">
<path d="M21.0851 18.2392L21.0912 18.2261L21.0957 18.2124C21.2073 17.8768 21.0201 17.5183 20.6802 17.395C20.3562 17.2775 19.9571 17.3999 19.8047 17.7348C19.5087 18.3748 18.8081 18.805 18.0014 18.805C17.2372 18.805 16.5727 18.4278 16.2502 17.837L16.2501 17.8367C16.1197 17.5986 15.8578 17.5099 15.6445 17.5099C15.4313 17.5099 15.1696 17.5985 15.0391 17.8363C14.7164 18.4229 14.0451 18.805 13.2875 18.805C12.5233 18.805 11.8588 18.4278 11.5363 17.837L11.5362 17.8367C11.4058 17.5986 11.1439 17.5099 10.9306 17.5099C10.7174 17.5099 10.4557 17.5985 10.3252 17.8363C10.0025 18.4229 9.33118 18.805 8.57362 18.805C7.80945 18.805 7.14492 18.4278 6.82244 17.837L6.82228 17.8367C6.69186 17.5986 6.42998 17.5099 6.21667 17.5099C6.00349 17.5099 5.74179 17.5985 5.6113 17.8363C5.28857 18.4229 4.61728 18.805 3.85972 18.805C3.05307 18.805 2.35242 18.3748 2.05649 17.7348C1.90406 17.3999 1.50496 17.2775 1.18096 17.395C0.8377 17.5195 0.648329 17.8914 0.80488 18.2368L0.804876 18.2368L0.805461 18.2381C1.32453 19.3663 2.535 20.0764 3.86571 20.0764C4.76623 20.0764 5.60995 19.7515 6.22558 19.1877C6.8402 19.7514 7.67944 20.0764 8.5856 20.0764C9.48612 20.0764 10.3298 19.7515 10.9455 19.1877C11.5601 19.7514 12.3993 20.0764 13.3055 20.0764C14.206 20.0764 15.0497 19.7515 15.6654 19.1877C16.28 19.7514 17.1192 20.0764 18.0254 20.0764C19.3569 20.0764 20.5603 19.3657 21.0851 18.2392ZM21.0672 14.3997L21.0682 14.3974C21.2248 14.052 21.0354 13.68 20.6922 13.5556C20.3682 13.4381 19.9691 13.5605 19.8166 13.8954C19.5207 14.5354 18.8201 14.9656 18.0134 14.9656C17.2492 14.9656 16.5847 14.5884 16.2622 13.9976L16.2621 13.9973C16.1316 13.7592 15.8698 13.6705 15.6564 13.6705C15.4433 13.6705 15.1816 13.7591 15.0511 13.9969C14.7283 14.5835 14.0571 14.9656 13.2995 14.9656C12.5353 14.9656 11.8708 14.5884 11.5483 13.9976L11.5482 13.9973C11.4177 13.7592 11.1559 13.6705 10.9425 13.6705C10.7294 13.6705 10.4677 13.7591 10.3372 13.9969C10.0144 14.5835 9.34316 14.9656 8.5856 14.9656C7.82143 14.9656 7.1569 14.5884 6.83442 13.9976L6.83425 13.9973C6.70384 13.7592 6.44196 13.6705 6.22865 13.6705C6.01547 13.6705 5.75377 13.7591 5.62328 13.9969C5.30055 14.5835 4.62926 14.9656 3.8717 14.9656C3.06504 14.9656 2.3644 14.5354 2.06847 13.8954C1.91604 13.5605 1.51694 13.4381 1.19294 13.5556C0.850249 13.6798 0.660938 14.0508 0.816082 14.3957C1.31123 15.5276 2.51828 16.237 3.84774 16.237C4.74827 16.237 5.59198 15.9121 6.20761 15.3483C6.82223 15.912 7.66147 16.237 8.56763 16.237C9.46815 16.237 10.3119 15.9121 10.9275 15.3483C11.5421 15.912 12.3814 16.237 13.2875 16.237C14.188 16.237 15.0318 15.9121 15.6474 15.3483C16.262 15.912 17.1012 16.237 18.0074 16.237C19.339 16.237 20.5423 15.5263 21.0672 14.3997Z" fill="#8593A9" stroke="#8593A9" stroke-width="0.5"/>
<rect x="6.35156" width="1.52905" height="12.9969" fill="#8593A9"/>
<rect x="13.9971" width="1.52905" height="12.9969" fill="#8593A9"/>
<rect x="7.11621" y="8.40979" width="7.64526" height="1.52905" fill="#8593A9"/>
<rect x="7.11621" y="3.05798" width="7.64526" height="1.52905" fill="#8593A9"/>
</svg>
