<svg width="25" height="25" viewBox="0 0 25 25" fill="none" xmlns="http://www.w3.org/2000/svg">
<path d="M6.09174 16.8203C5.69474 17.5418 4.87131 18.0086 3.94604 18.0086C2.96089 18.0086 2.10093 17.4831 1.73671 16.6952C1.73685 16.6955 1.73699 16.6958 1.73713 16.6961L1.50943 16.7993C1.91912 17.6865 2.87508 18.2586 3.94604 18.2586C4.95231 18.2586 5.86514 17.7507 6.31077 16.9408C6.48328 16.6258 7.06548 16.6258 7.23798 16.9408C7.68361 17.7572 8.58926 18.2586 9.60272 18.2586C10.609 18.2586 11.5218 17.7507 11.9675 16.9408M6.09174 16.8203C6.09166 16.8204 6.09158 16.8205 6.0915 16.8207L6.31072 16.9407L6.09174 16.8203ZM6.09174 16.8203C6.23661 16.5562 6.52975 16.4545 6.77438 16.4545C7.01913 16.4545 7.31246 16.5563 7.45725 16.8207L7.45742 16.821C7.85417 17.5478 8.66964 18.0086 9.60272 18.0086C10.528 18.0086 11.3514 17.5418 11.7484 16.8203M11.7484 16.8203C11.7483 16.8204 11.7483 16.8205 11.7482 16.8207L11.9675 16.9408M11.7484 16.8203C11.8933 16.5562 12.1864 16.4545 12.4311 16.4545C12.6758 16.4545 12.9691 16.5563 13.1139 16.8207L13.1141 16.821C13.5108 17.5478 14.3263 18.0086 15.2594 18.0086C16.1847 18.0086 17.0081 17.5418 17.4051 16.8203M11.7484 16.8203L11.9675 16.9408M11.9675 16.9408C12.14 16.6258 12.7222 16.6258 12.8947 16.9408C13.3403 17.7572 14.2459 18.2586 15.2594 18.2586C16.2657 18.2586 17.1785 17.7507 17.6241 16.9408C17.7966 16.6258 18.3788 16.6258 18.5513 16.9408C18.997 17.7572 19.9026 18.2586 20.9161 18.2586C21.987 18.2586 22.943 17.6865 23.3527 16.7993L17.4051 16.8203M17.4051 16.8203C17.55 16.5562 17.8431 16.4545 18.0877 16.4545C18.3325 16.4545 18.6258 16.5563 18.7706 16.8207L18.7708 16.821C19.1675 17.5478 19.983 18.0086 20.9161 18.0086C21.9012 18.0086 22.7612 17.483 23.1254 16.6952C23.2958 16.3207 23.7452 16.1801 24.1135 16.3136C24.5011 16.4541 24.7109 16.8711 24.5363 17.2561L24.5353 17.2585C23.9146 18.5908 22.4896 19.4343 20.9089 19.4343C19.8166 19.4343 18.8076 19.0365 18.0769 18.3496M17.4051 16.8203L18.0769 18.3496M18.0769 18.3496C17.3451 19.0366 16.3304 19.4343 15.245 19.4343C14.1528 19.4343 13.1438 19.0365 12.413 18.3496M24.5568 21.8658L24.5629 21.8527L24.5674 21.8391C24.6922 21.4638 24.4834 21.0602 24.0992 20.9209C23.7308 20.7873 23.2812 20.928 23.1109 21.3027C22.7467 22.0904 21.8867 22.6159 20.9017 22.6159C19.9686 22.6159 19.1531 22.1551 18.7564 21.4283L18.7562 21.428C18.6114 21.1636 18.3181 21.0618 18.0734 21.0618C17.8287 21.0618 17.5356 21.1635 17.3907 21.4275C16.9937 22.1491 16.1703 22.6159 15.245 22.6159C14.3119 22.6159 13.4965 22.1551 13.0997 21.4283L13.0996 21.428C12.9548 21.1636 12.6614 21.0618 12.4167 21.0618C12.1721 21.0618 11.8789 21.1635 11.734 21.4275C11.337 22.1491 10.5136 22.6159 9.58834 22.6159C8.65526 22.6159 7.83979 22.1551 7.44304 21.4283L7.44288 21.428C7.29809 21.1636 7.00476 21.0618 6.76 21.0618C6.51538 21.0618 6.22223 21.1635 6.07736 21.4275C5.68036 22.1491 4.85694 22.6159 3.93166 22.6159C2.94651 22.6159 2.08653 22.0903 1.72233 21.3025C1.55192 20.928 1.10251 20.7874 0.734197 20.9209C0.346612 21.0614 0.136875 21.4784 0.311395 21.8634L0.311392 21.8634L0.311977 21.8647C0.925684 23.1987 2.35897 24.0415 3.93885 24.0415C5.02426 24.0415 6.03891 23.6439 6.77072 22.9569C7.50146 23.6437 8.51048 24.0415 9.60272 24.0415C10.6881 24.0415 11.7028 23.6439 12.4346 22.9569C13.1653 23.6437 14.1743 24.0415 15.2666 24.0415C16.352 24.0415 17.3666 23.6439 18.0984 22.9569C18.8292 23.6437 19.8382 24.0415 20.9304 24.0415C22.5112 24.0415 23.9361 23.1981 24.5568 21.8658ZM7.22361 21.5481C7.66924 22.3645 8.57488 22.8659 9.58834 22.8659C10.5946 22.8659 11.5074 22.358 11.9531 21.5481C12.1256 21.2331 12.7078 21.2331 12.8803 21.5481H7.22361Z" fill="#EFF0F3" stroke="#EFF0F3" stroke-width="0.5"/>
<rect x="6.92188" width="1.83486" height="15.5963" fill="#EFF0F3"/>
<rect x="16.0957" width="1.83486" height="15.5963" fill="#EFF0F3"/>
<rect x="7.83887" y="10.0918" width="9.17431" height="1.83486" fill="#EFF0F3"/>
<rect x="7.83887" y="3.66992" width="9.17431" height="1.83486" fill="#EFF0F3"/>
</svg>
