<svg width="26" height="25" viewBox="0 0 26 25" fill="none" xmlns="http://www.w3.org/2000/svg">
<path d="M25.0568 21.8659L25.0629 21.8528L25.0674 21.8392C25.1922 21.4639 24.9834 21.0604 24.5992 20.921C24.2308 20.7875 23.7812 20.9281 23.6109 21.3029C23.2466 22.0906 22.3867 22.616 21.4017 22.616C20.4686 22.616 19.6531 22.1552 19.2564 21.4284L19.2562 21.4281C19.1114 21.1637 18.8181 21.0619 18.5734 21.0619C18.3287 21.0619 18.0356 21.1636 17.8907 21.4277C17.4937 22.1492 16.6703 22.616 15.745 22.616C14.8119 22.616 13.9965 22.1552 13.5997 21.4284L13.5996 21.4281C13.4548 21.1637 13.1614 21.0619 12.9167 21.0619C12.6721 21.0619 12.3789 21.1636 12.234 21.4277C11.837 22.1492 11.0136 22.616 10.0883 22.616C9.15526 22.616 8.33979 22.1552 7.94304 21.4284L7.94288 21.4281C7.79809 21.1637 7.50476 21.0619 7.26 21.0619C7.01538 21.0619 6.72223 21.1636 6.57736 21.4277C6.18036 22.1492 5.35694 22.616 4.43166 22.616C3.44652 22.616 2.58656 22.0905 2.22234 21.3026C2.05194 20.9281 1.60252 20.7875 1.2342 20.921C0.846612 21.0616 0.636875 21.4785 0.811395 21.8635L0.811392 21.8635L0.811977 21.8648C1.42568 23.1988 2.85897 24.0417 4.43885 24.0417C5.52426 24.0417 6.53891 23.644 7.27072 22.9571C8.00146 23.6439 9.01048 24.0417 10.1027 24.0417C11.1881 24.0417 12.2028 23.644 12.9346 22.9571C13.6653 23.6439 14.6743 24.0417 15.7666 24.0417C16.852 24.0417 17.8666 23.644 18.5984 22.9571C19.3292 23.6439 20.3382 24.0417 21.4304 24.0417C23.0112 24.0417 24.4361 23.1982 25.0568 21.8659ZM25.0353 17.2586L25.0363 17.2562C25.2109 16.8712 25.0011 16.4543 24.6135 16.3137C24.2452 16.1802 23.7958 16.3208 23.6254 16.6953C23.2612 17.4832 22.4012 18.0087 21.4161 18.0087C20.483 18.0087 19.6675 17.548 19.2708 16.8211L19.2706 16.8208C19.1258 16.5564 18.8325 16.4546 18.5877 16.4546C18.3431 16.4546 18.05 16.5563 17.9051 16.8204C17.5081 17.5419 16.6847 18.0087 15.7594 18.0087C14.8263 18.0087 14.0108 17.548 13.6141 16.8211L13.6139 16.8208C13.4691 16.5564 13.1758 16.4546 12.9311 16.4546C12.6864 16.4546 12.3933 16.5563 12.2484 16.8204C11.8514 17.5419 11.028 18.0087 10.1027 18.0087C9.16964 18.0087 8.35417 17.548 7.95742 16.8211L7.95725 16.8208C7.81246 16.5564 7.51913 16.4546 7.27438 16.4546C7.02975 16.4546 6.73661 16.5563 6.59174 16.8204C6.19474 17.5419 5.37131 18.0087 4.44604 18.0087C3.46089 18.0087 2.60092 17.4832 2.23671 16.6953C2.0663 16.3208 1.61689 16.1802 1.24857 16.3137C0.861557 16.4541 0.651869 16.87 0.825002 17.2545C1.41 18.5922 2.83866 19.4344 4.41729 19.4344C5.5027 19.4344 6.51735 19.0367 7.24916 18.3498C7.9799 19.0366 8.98891 19.4344 10.0812 19.4344C11.1666 19.4344 12.1812 19.0367 12.913 18.3498C13.6438 19.0366 14.6528 19.4344 15.745 19.4344C16.8304 19.4344 17.8451 19.0367 18.5769 18.3498C19.3076 19.0366 20.3166 19.4344 21.4089 19.4344C22.9896 19.4344 24.4146 18.5909 25.0353 17.2586Z" fill="#EFF0F3" stroke="#EFF0F3" stroke-width="0.5"/>
<rect x="7.42188" width="1.83486" height="15.5963" fill="#EFF0F3"/>
<rect x="16.5957" width="1.83486" height="15.5963" fill="#EFF0F3"/>
<rect x="8.33887" y="10.0918" width="9.17431" height="1.83486" fill="#EFF0F3"/>
<rect x="8.33887" y="3.66956" width="9.17431" height="1.83486" fill="#EFF0F3"/>
</svg>
