<svg width="64" height="64" viewBox="0 0 64 64" fill="none" xmlns="http://www.w3.org/2000/svg">
<path d="M23.3125 7.00008C21.45 7.32508 19.85 8.46259 18.9625 10.0876C18.7625 10.4626 18.15 12.4751 17.4375 15.1376C16.775 17.5626 16.225 19.5751 16.2 19.5876C16.1875 19.6001 15.525 19.7876 14.7375 19.9876C11.9125 20.7251 9.13749 21.8376 7.43749 22.9376C6.49999 23.5251 5.23749 24.7376 4.76249 25.4876C3.98749 26.7001 3.81249 28.0876 4.26249 29.4001C4.57499 30.3501 5.01249 30.9876 5.96249 31.8876C6.87499 32.7626 7.79999 33.3626 9.44999 34.1501C20.1125 39.2501 43.8 39.2626 54.475 34.1751C57.1375 32.9126 58.7625 31.5501 59.5125 29.9376C60.4625 27.9126 59.9875 25.9876 58.0875 24.1626C56.3375 22.4876 53.3625 21.0751 49.25 19.9751C48.4625 19.7751 47.8 19.5876 47.7875 19.5751C47.775 19.5626 47.225 17.5626 46.5625 15.1376C45.85 12.4751 45.2375 10.4626 45.0375 10.0876C43.9875 8.16259 42 6.97508 39.8125 6.96258C38 6.96258 37.1875 7.32508 34.8125 9.18759C32.9125 10.6876 32.6 10.8751 32.025 10.8751C31.45 10.8751 31.0125 10.6251 29.4375 9.37509C28.6875 8.77509 27.8125 8.11259 27.5 7.90009C26.4 7.16258 24.6125 6.77508 23.3125 7.00008ZM24.75 11.0001C25 11.0626 25.9625 11.7251 26.9375 12.5126C28.9 14.0751 29.8375 14.5876 31.125 14.7876C32.25 14.9626 33.475 14.7751 34.5375 14.2751C34.9625 14.0751 36.1 13.2751 37.0625 12.5126C38.85 11.0876 39.425 10.7876 40.0875 10.9501C40.6875 11.0876 41.25 11.5126 41.4875 11.9876C41.6125 12.2376 42.4625 15.2126 43.375 18.6001C44.6375 23.2626 45.0125 24.7876 44.8875 24.8626C44.7125 24.9751 42.6 25.3001 40.375 25.5501C34.55 26.2251 27.2875 26.1126 21.2375 25.2501C19.1875 24.9501 19 24.9126 19 24.7251C19 24.4501 22.2625 12.5501 22.4625 12.0876C22.6875 11.5876 23.1625 11.1626 23.725 11.0001C24.1875 10.8626 24.25 10.8626 24.75 11.0001ZM14.6875 25.2501C14.325 26.6251 14.4 27.1751 15.05 27.8251C15.5 28.2751 16.1125 28.4376 19.4375 29.0001C24.175 29.7876 28.2125 30.0626 33.625 29.9626C38.575 29.8626 42.1625 29.5001 46.4375 28.6751C48.35 28.3001 48.7875 28.1126 49.2 27.5126C49.575 26.9626 49.5875 26.3001 49.25 25.0001C49.125 24.4876 49.025 24.0501 49.05 24.0376C49.075 24.0126 49.7625 24.2251 50.575 24.5126C53.2875 25.4501 55.3125 26.6126 55.8125 27.5501C56.0375 27.9626 56.0375 28.0126 55.8375 28.4251C54.875 30.4626 48 32.7376 40.375 33.5501C31.075 34.5501 20.9875 33.8251 14 31.6501C10.575 30.5876 8.32499 29.2626 8.04999 28.1626C7.81249 27.2251 10.2375 25.5876 13.475 24.5001C14.275 24.2251 14.9375 24.0251 14.9625 24.0376C14.975 24.0626 14.85 24.6001 14.6875 25.2501Z" fill="#8593A9"/>
<path d="M13.1625 42.1875C10.95 42.7875 9.20004 44.625 8.73754 46.8375C8.66254 47.25 8.62504 47.9375 8.66254 48.4375C8.76254 49.575 10.0125 53.95 10.5125 54.8875C11.25 56.2625 12.725 57.4 14.3375 57.8125C15.3875 58.0875 24.3625 58.0875 25.4125 57.8125C27.4 57.3 28.8625 55.975 29.6625 53.9625C29.875 53.4125 29.9375 52.9375 29.9875 51.0125L30.0625 48.7L30.65 48.4C31.45 47.9875 32.55 47.9875 33.35 48.4L33.9375 48.7L34.0125 51.0125C34.0875 53.4625 34.175 53.9 34.9125 55.1625C35.3375 55.875 36.4375 56.9 37.225 57.3C38.525 57.9625 38.9125 58 44.0125 58C46.6375 58 49.0125 57.95 49.3875 57.875C50.9 57.5875 52.5375 56.4375 53.3375 55.1125C53.6125 54.6625 54 53.525 54.525 51.75C55.225 49.3125 55.2875 48.9625 55.2875 47.9375C55.2625 45.175 53.4875 42.8875 50.8125 42.1875C49.725 41.9125 39.65 41.9125 38.5625 42.1875C37.4625 42.475 36.4625 43.0625 35.675 43.9L34.975 44.6375L34.1375 44.35C32.9625 43.95 31.0375 43.95 29.8625 44.35L29.025 44.6375L28.325 43.9C27.5375 43.0625 26.5375 42.475 25.4375 42.1875C24.4 41.925 14.1625 41.925 13.1625 42.1875ZM25.075 46.325C25.925 46.9625 25.9375 46.9875 25.9375 50C25.9375 53.0125 25.925 53.0375 25.075 53.675C24.75 53.925 24.55 53.9375 20.05 53.975C15.6375 54.0125 15.3375 54 14.825 53.7625C14.5125 53.6375 14.175 53.375 14.05 53.1875C13.7375 52.7125 12.6375 48.675 12.625 48C12.625 47.225 12.975 46.625 13.6375 46.275L14.175 45.9875L19.45 46.025C24.5625 46.0625 24.7375 46.075 25.075 46.325ZM50.45 46.325C51.525 47.125 51.5625 47.6 50.7625 50.5C50.1125 52.8375 49.95 53.2125 49.325 53.675C48.9875 53.925 48.8375 53.9375 44.125 53.9375C39.4125 53.9375 39.2625 53.925 38.925 53.675C38.0875 53.0625 38.0625 52.9625 38.025 50.3375C37.975 47.575 38.0125 47.275 38.4625 46.7375C39.0875 46 39.0625 46 44.8375 46.0375C49.9375 46.0625 50.1125 46.075 50.45 46.325Z" fill="#8593A9"/>
</svg>
