<svg width="64" height="64" viewBox="0 0 64 64" fill="none" xmlns="http://www.w3.org/2000/svg">
<g clip-path="url(#clip0_1232_5960)">
<path d="M23.4875 0.225084C21.4875 0.750085 20.375 1.83758 18.9 4.71258C18.3375 5.81258 17.775 6.80008 17.6625 6.88758C17.5 7.02508 16.9125 7.05008 14.7625 7.02508C11.6625 6.97508 11.0375 7.10008 9.67499 7.97508C8.46249 8.77508 7.68749 9.81258 7.23749 11.2501C7.01249 11.9876 6.98749 12.3251 7.02499 14.7626C7.04999 16.9001 7.02499 17.5001 6.88749 17.6626C6.79999 17.7751 5.82499 18.3376 4.71249 18.9001C3.31249 19.6251 2.48749 20.1376 2.01249 20.5751C0.349986 22.1126 -0.325014 24.3001 0.187486 26.4751C0.424986 27.4501 0.587486 27.7876 1.92499 29.8626C2.52499 30.7876 3.03749 31.6751 3.07499 31.8251C3.16249 32.1626 2.97499 32.5251 1.79999 34.3376C0.624986 36.1376 0.412486 36.5626 0.187486 37.5251C-0.325014 39.7001 0.362486 41.9251 2.01249 43.4126C2.47499 43.8251 3.42499 44.4126 4.76249 45.1126C6.16249 45.8501 6.84999 46.2876 6.96249 46.4876C7.06249 46.7126 7.08749 47.4751 7.03749 49.3126C6.96249 51.6501 6.98749 51.9001 7.23749 52.7251C7.76249 54.4501 9.14999 55.9626 10.8375 56.6501C11.525 56.9251 11.7 56.9376 14.5125 56.9376C16.825 56.9376 17.5 56.9751 17.6625 57.1126C17.7875 57.2001 18.3375 58.1751 18.9 59.2626C19.6 60.6251 20.125 61.4751 20.5625 61.9751C22.0875 63.6376 24.2875 64.3251 26.475 63.8126C27.45 63.5751 27.7875 63.4126 29.8625 62.0751C30.7875 61.4751 31.675 60.9626 31.825 60.9251C32.1625 60.8376 32.525 61.0251 34.3375 62.2001C36.1375 63.3751 36.5625 63.5876 37.525 63.8126C39.7125 64.3251 41.9125 63.6376 43.4375 61.9751C43.875 61.4751 44.4 60.6251 45.1 59.2626C45.6625 58.1751 46.2125 57.2001 46.3375 57.1126C46.5 56.9751 47.175 56.9376 49.4875 56.9376C52.3 56.9376 52.475 56.9251 53.1625 56.6501C54.825 55.9751 56.225 54.4626 56.75 52.7751C57 52.0126 57.0125 51.7001 56.975 49.2376C56.95 47.0876 56.975 46.5001 57.1125 46.3376C57.2 46.2251 58.175 45.6626 59.2625 45.1001C60.625 44.4001 61.475 43.8751 61.975 43.4376C63.6375 41.9126 64.325 39.7126 63.8125 37.5251C63.5875 36.5626 63.375 36.1376 62.2 34.3376C61.025 32.5251 60.8375 32.1626 60.925 31.8251C60.9625 31.6751 61.475 30.7876 62.075 29.8626C63.4125 27.7876 63.575 27.4501 63.8125 26.4751C64.325 24.3001 63.65 22.1126 61.9875 20.5751C61.4875 20.1126 60.7125 19.6251 59.2875 18.9001C58.1875 18.3376 57.2125 17.7876 57.1125 17.6751C56.975 17.5001 56.9375 16.8501 56.9375 14.5126C56.9375 11.7001 56.925 11.5251 56.65 10.8376C55.975 9.17508 54.4625 7.77508 52.775 7.25008C52.0125 7.00008 51.7 6.98758 49.2375 7.02508C47.0875 7.05008 46.5 7.02508 46.3375 6.88758C46.225 6.80008 45.6625 5.82508 45.1 4.73758C44.4 3.37508 43.875 2.52508 43.4375 2.02508C41.9125 0.362585 39.7125 -0.324916 37.525 0.187584C36.55 0.425085 36.2125 0.587585 34.1375 1.92508C33.2125 2.52508 32.325 3.03758 32.175 3.07508C31.8375 3.16258 31.475 2.97508 29.6625 1.80008C27.8625 0.625085 27.4375 0.412585 26.475 0.187584C25.45 -0.0499155 24.5125 -0.0374155 23.4875 0.225084ZM25.625 5.18758C25.825 5.28758 26.725 5.85008 27.625 6.43758C29.625 7.72508 30.525 8.05008 32 8.05008C33.5125 8.05008 34.35 7.72508 36.5875 6.30008C37.6 5.65008 38.5625 5.08758 38.725 5.03758C38.875 5.00008 39.175 5.03758 39.375 5.12508C39.675 5.25008 39.9375 5.66258 40.875 7.42508C42.1375 9.83758 42.8375 10.6751 44.125 11.3626C45.3625 12.0251 46.175 12.1376 48.9375 12.0501L51.375 11.9626L51.7 12.2626L52.0375 12.5626L51.95 15.0626C51.8625 17.8876 51.975 18.6376 52.6375 19.8876C53.3 21.1251 54.2875 21.9376 56.6375 23.1626C58.3625 24.0626 58.75 24.3126 58.875 24.6251C58.9625 24.8251 59 25.1251 58.9625 25.2751C58.9125 25.4376 58.35 26.4001 57.7 27.4126C56.275 29.6501 55.95 30.4876 55.95 32.0001C55.95 33.5126 56.275 34.3501 57.7 36.5876C58.35 37.6001 58.9125 38.5626 58.9625 38.7251C59 38.8751 58.9625 39.1751 58.875 39.3751C58.75 39.6876 58.35 39.9501 56.5625 40.8751C54.1625 42.1501 53.325 42.8376 52.6375 44.1251C51.975 45.3626 51.8625 46.1751 51.95 48.9376L52.0375 51.3751L51.7375 51.7001L51.4375 52.0376L48.9375 51.9501C46.1125 51.8626 45.3625 51.9751 44.125 52.6376C42.8375 53.3251 42.1375 54.1626 40.875 56.5751C39.9375 58.3376 39.675 58.7501 39.375 58.8751C39.175 58.9626 38.875 59.0001 38.725 58.9626C38.5625 58.9126 37.6 58.3501 36.5875 57.7001C34.35 56.2751 33.5125 55.9501 32 55.9501C30.4875 55.9501 29.6625 56.2751 27.425 57.7001C26.4 58.3501 25.4375 58.9126 25.2875 58.9626C25.125 59.0001 24.825 58.9626 24.625 58.8751C24.3125 58.7501 24.0625 58.3626 23.1625 56.6376C21.9375 54.2876 21.1375 53.3001 19.8875 52.6376C18.6375 51.9751 17.8875 51.8626 15.0625 51.9501L12.5625 52.0376L12.2625 51.7001L11.9625 51.3751L12.05 48.9376C12.1125 46.9626 12.0875 46.3376 11.9375 45.6626C11.4375 43.5376 10.3 42.3376 7.28749 40.7751C5.62499 39.9251 5.24999 39.6876 5.12499 39.3751C5.03749 39.1751 4.99999 38.8751 5.03749 38.7251C5.08749 38.5626 5.64999 37.5876 6.31249 36.5626C7.73749 34.3126 8.04999 33.5001 8.04999 32.0001C8.04999 30.5001 7.73749 29.6876 6.31249 27.4376C5.64999 26.4001 5.08749 25.4376 5.03749 25.2751C4.99999 25.1251 5.03749 24.8251 5.12499 24.6251C5.24999 24.3126 5.63749 24.0626 7.36249 23.1626C9.71249 21.9376 10.7 21.1376 11.3625 19.8876C12.025 18.6376 12.1375 17.8376 12.05 15.0626L11.9625 12.6251L12.2625 12.3001L12.5625 11.9626L15.0625 12.0501C17.8875 12.1376 18.6375 12.0251 19.8875 11.3626C21.125 10.7001 21.9375 9.71258 23.1625 7.36258C24.425 4.96258 24.7 4.71258 25.625 5.18758Z" fill="#8593A9"/>
<path d="M19.775 16.1251C18.4125 16.4876 17.4375 17.0501 16.375 18.1251C15.2875 19.2001 14.7375 20.1626 14.375 21.5751C13.925 23.3376 14.15 25.2501 15.025 26.9126C15.55 27.9251 17.075 29.4501 18.0875 29.9751C19.75 30.8501 21.6625 31.0751 23.425 30.6251C24.85 30.2626 25.8 29.7126 26.875 28.6251C27.9625 27.5376 28.525 26.5626 28.875 25.1751C29.325 23.4126 29.1 21.5001 28.225 19.8376C27.7 18.8251 26.175 17.3001 25.1625 16.7751C23.5125 15.9126 21.525 15.6751 19.775 16.1251ZM23 21.3001C23.7375 21.7876 24.0625 22.4126 24.0625 23.3751C24.0625 24.3501 23.7375 24.9626 22.9625 25.4751C22.2625 25.9376 21.05 25.9626 20.3375 25.5126C19.3875 24.9251 18.95 23.7626 19.2375 22.6501C19.4125 22.0126 20.175 21.1876 20.775 21.0126C21.4375 20.8126 22.4625 20.9376 23 21.3001Z" fill="#8593A9"/>
<path d="M37.1125 17.4002C37.025 17.5627 33.425 24.2377 29.0875 32.2502C24.7625 40.2627 21.1875 46.8877 21.1625 46.9752C21.1125 47.1002 21.6875 47.1252 23.925 47.1002L26.7625 47.0627L34.775 32.2502C39.175 24.1002 42.8125 17.3627 42.8375 17.2752C42.8875 17.1627 42.2875 17.1252 40.075 17.1252C37.2875 17.1252 37.2625 17.1252 37.1125 17.4002Z" fill="#8593A9"/>
<path d="M40.4 33.6251C39.0375 33.9876 38.0625 34.5501 37 35.6251C35.9125 36.7001 35.3625 37.6626 35 39.0751C34.55 40.8376 34.775 42.7501 35.65 44.4126C36.175 45.4251 37.7 46.9501 38.7125 47.4751C40.375 48.3501 42.2875 48.5751 44.05 48.1251C45.4625 47.7626 46.425 47.2126 47.5 46.1251C48.5875 45.0501 49.1375 44.0876 49.5 42.6751C49.95 40.9126 49.725 39.0001 48.85 37.3376C48.325 36.3251 46.8 34.8001 45.7875 34.2751C44.1375 33.4126 42.15 33.1751 40.4 33.6251ZM43.625 38.8001C44.3625 39.2876 44.6875 39.9126 44.6875 40.8751C44.6875 41.8501 44.3625 42.4626 43.5875 42.9751C42.8875 43.4376 41.675 43.4626 40.9625 43.0126C40.0125 42.4251 39.575 41.2626 39.8625 40.1501C40.0375 39.5126 40.8 38.6876 41.4 38.5126C42.0625 38.3126 43.0875 38.4376 43.625 38.8001Z" fill="#8593A9"/>
</g>
<defs>
<clipPath id="clip0_1232_5960">
<rect width="64" height="64" fill="white"/>
</clipPath>
</defs>
</svg>
