<svg width="25" height="24" viewBox="0 0 25 24" fill="none" xmlns="http://www.w3.org/2000/svg">
<path d="M12.75 17.7775C14.8211 17.7775 16.5 16.1193 16.5 14.0738C16.5 12.0283 14.8211 10.3701 12.75 10.3701C10.6789 10.3701 9 12.0283 9 14.0738C9 16.1193 10.6789 17.7775 12.75 17.7775Z" fill="#EFF0F3"/>
<path d="M20.25 1.48145H5.25C4.85218 1.48145 4.47064 1.63753 4.18934 1.91536C3.90804 2.19319 3.75 2.57001 3.75 2.96293V5.92589H21.75V2.96293C21.75 2.57001 21.592 2.19319 21.3107 1.91536C21.0294 1.63753 20.6478 1.48145 20.25 1.48145ZM8.25 5.18515H6.75C6.55109 5.18515 6.36032 5.10711 6.21967 4.96819C6.07902 4.82927 6 4.64086 6 4.44441C6 4.24795 6.07902 4.05954 6.21967 3.92063C6.36032 3.78171 6.55109 3.70367 6.75 3.70367H8.25C8.44891 3.70367 8.63968 3.78171 8.78033 3.92063C8.92098 4.05954 9 4.24795 9 4.44441C9 4.64086 8.92098 4.82927 8.78033 4.96819C8.63968 5.10711 8.44891 5.18515 8.25 5.18515ZM18.75 5.18515H14.25C14.0511 5.18515 13.8603 5.10711 13.7197 4.96819C13.579 4.82927 13.5 4.64086 13.5 4.44441C13.5 4.24795 13.579 4.05954 13.7197 3.92063C13.8603 3.78171 14.0511 3.70367 14.25 3.70367H18.75C18.9489 3.70367 19.1397 3.78171 19.2803 3.92063C19.421 4.05954 19.5 4.24795 19.5 4.44441C19.5 4.64086 19.421 4.82927 19.2803 4.96819C19.1397 5.10711 18.9489 5.18515 18.75 5.18515Z" fill="#EFF0F3"/>
<path d="M3.75 20.7406C3.75 21.1335 3.90804 21.5103 4.18934 21.7881C4.47064 22.066 4.85218 22.222 5.25 22.222H20.25C20.6478 22.222 21.0294 22.066 21.3107 21.7881C21.592 21.5103 21.75 21.1335 21.75 20.7406V7.40723H3.75V20.7406ZM12.75 8.88871C13.7884 8.88871 14.8034 9.19281 15.6667 9.76257C16.5301 10.3323 17.203 11.1421 17.6004 12.0896C17.9977 13.0371 18.1017 14.0796 17.8991 15.0855C17.6966 16.0913 17.1965 17.0152 16.4623 17.7404C15.7281 18.4655 14.7926 18.9594 13.7742 19.1594C12.7558 19.3595 11.7002 19.2568 10.7409 18.8644C9.7816 18.4719 8.96166 17.8073 8.38478 16.9546C7.80791 16.1019 7.5 15.0994 7.5 14.0739C7.5 12.6987 8.05312 11.3798 9.03769 10.4074C10.0223 9.435 11.3576 8.88871 12.75 8.88871V8.88871Z" fill="#EFF0F3"/>
</svg>
