<svg width="20" height="20" viewBox="0 0 20 20" fill="none" xmlns="http://www.w3.org/2000/svg">
<path d="M10 14.8148C11.7259 14.8148 13.125 13.433 13.125 11.7284C13.125 10.0238 11.7259 8.64197 10 8.64197C8.27411 8.64197 6.875 10.0238 6.875 11.7284C6.875 13.433 8.27411 14.8148 10 14.8148Z" fill="#8593A9"/>
<path d="M16.25 1.23462H3.75C3.41848 1.23462 3.10054 1.36469 2.86612 1.59622C2.6317 1.82774 2.5 2.14176 2.5 2.46919V4.93832H17.5V2.46919C17.5 2.14176 17.3683 1.82774 17.1339 1.59622C16.8995 1.36469 16.5815 1.23462 16.25 1.23462ZM6.25 4.32104H5C4.83424 4.32104 4.67527 4.256 4.55806 4.14024C4.44085 4.02448 4.375 3.86747 4.375 3.70375C4.375 3.54004 4.44085 3.38303 4.55806 3.26727C4.67527 3.15151 4.83424 3.08647 5 3.08647H6.25C6.41576 3.08647 6.57473 3.15151 6.69194 3.26727C6.80915 3.38303 6.875 3.54004 6.875 3.70375C6.875 3.86747 6.80915 4.02448 6.69194 4.14024C6.57473 4.256 6.41576 4.32104 6.25 4.32104ZM15 4.32104H11.25C11.0842 4.32104 10.9253 4.256 10.8081 4.14024C10.6908 4.02448 10.625 3.86747 10.625 3.70375C10.625 3.54004 10.6908 3.38303 10.8081 3.26727C10.9253 3.15151 11.0842 3.08647 11.25 3.08647H15C15.1658 3.08647 15.3247 3.15151 15.4419 3.26727C15.5592 3.38303 15.625 3.54004 15.625 3.70375C15.625 3.86747 15.5592 4.02448 15.4419 4.14024C15.3247 4.256 15.1658 4.32104 15 4.32104Z" fill="#8593A9"/>
<path d="M2.5 17.284C2.5 17.6114 2.6317 17.9254 2.86612 18.1569C3.10054 18.3885 3.41848 18.5185 3.75 18.5185H16.25C16.5815 18.5185 16.8995 18.3885 17.1339 18.1569C17.3683 17.9254 17.5 17.6114 17.5 17.284V6.17285H2.5V17.284ZM10 7.40742C10.8653 7.40742 11.7112 7.66084 12.4306 8.13564C13.1501 8.61043 13.7108 9.28528 14.042 10.0748C14.3731 10.8644 14.4597 11.7332 14.2909 12.5714C14.1221 13.4096 13.7054 14.1795 13.0936 14.7838C12.4817 15.3881 11.7022 15.7996 10.8535 15.9664C10.0049 16.1331 9.12519 16.0475 8.32576 15.7205C7.52633 15.3934 6.84305 14.8396 6.36232 14.129C5.88159 13.4184 5.625 12.583 5.625 11.7284C5.625 10.5824 6.08594 9.48335 6.90641 8.67301C7.72688 7.86267 8.83968 7.40742 10 7.40742V7.40742Z" fill="#8593A9"/>
</svg>
