<svg width="24" height="24" viewBox="0 0 24 24" fill="none" xmlns="http://www.w3.org/2000/svg">
<path d="M12 17.7778C14.0711 17.7778 15.75 16.1196 15.75 14.0741C15.75 12.0286 14.0711 10.3704 12 10.3704C9.92893 10.3704 8.25 12.0286 8.25 14.0741C8.25 16.1196 9.92893 17.7778 12 17.7778Z" fill="#EFF0F3"/>
<path d="M19.5 1.48157H4.5C4.10218 1.48157 3.72064 1.63765 3.43934 1.91548C3.15804 2.19331 3 2.57014 3 2.96305V5.92601H21V2.96305C21 2.57014 20.842 2.19331 20.5607 1.91548C20.2794 1.63765 19.8978 1.48157 19.5 1.48157ZM7.5 5.18527H6C5.80109 5.18527 5.61032 5.10723 5.46967 4.96831C5.32902 4.8294 5.25 4.64099 5.25 4.44453C5.25 4.24807 5.32902 4.05966 5.46967 3.92075C5.61032 3.78183 5.80109 3.70379 6 3.70379H7.5C7.69891 3.70379 7.88968 3.78183 8.03033 3.92075C8.17098 4.05966 8.25 4.24807 8.25 4.44453C8.25 4.64099 8.17098 4.8294 8.03033 4.96831C7.88968 5.10723 7.69891 5.18527 7.5 5.18527ZM18 5.18527H13.5C13.3011 5.18527 13.1103 5.10723 12.9697 4.96831C12.829 4.8294 12.75 4.64099 12.75 4.44453C12.75 4.24807 12.829 4.05966 12.9697 3.92075C13.1103 3.78183 13.3011 3.70379 13.5 3.70379H18C18.1989 3.70379 18.3897 3.78183 18.5303 3.92075C18.671 4.05966 18.75 4.24807 18.75 4.44453C18.75 4.64099 18.671 4.8294 18.5303 4.96831C18.3897 5.10723 18.1989 5.18527 18 5.18527Z" fill="#EFF0F3"/>
<path d="M3 20.7408C3 21.1337 3.15804 21.5105 3.43934 21.7884C3.72064 22.0662 4.10218 22.2223 4.5 22.2223H19.5C19.8978 22.2223 20.2794 22.0662 20.5607 21.7884C20.842 21.5105 21 21.1337 21 20.7408V7.40747H3V20.7408ZM12 8.88895C13.0384 8.88895 14.0534 9.19306 14.9167 9.76281C15.7801 10.3326 16.453 11.1424 16.8504 12.0899C17.2477 13.0373 17.3517 14.0799 17.1491 15.0857C16.9466 16.0915 16.4465 17.0155 15.7123 17.7406C14.9781 18.4658 14.0426 18.9596 13.0242 19.1597C12.0058 19.3598 10.9502 19.2571 9.99091 18.8646C9.0316 18.4722 8.21166 17.8076 7.63478 16.9549C7.05791 16.1022 6.75 15.0997 6.75 14.0741C6.75 12.6989 7.30312 11.3801 8.28769 10.4077C9.27226 9.43525 10.6076 8.88895 12 8.88895V8.88895Z" fill="#EFF0F3"/>
</svg>
