<svg width="17" height="16" viewBox="0 0 17 16" fill="none" xmlns="http://www.w3.org/2000/svg">
<g clip-path="url(#clip0_2610_2134)">
<path d="M14.1226 2.32349C12.6195 0.82605 10.62 0.000854494 8.49194 0C6.36865 0 4.36597 0.824463 2.85303 2.32153C1.3374 3.82117 0.501953 5.81409 0.5 7.9259V7.92834V7.92981C0.500244 9.20801 0.83606 10.4974 1.47351 11.6744L0.521851 16L4.89722 15.0048C6.00537 15.5632 7.24182 15.8577 8.48889 15.8582H8.49207C10.615 15.8582 12.6177 15.0336 14.1309 13.5364C15.6478 12.0355 16.4836 10.0452 16.4846 7.93201C16.4852 5.83374 15.6465 3.84192 14.1226 2.32349ZM8.49194 14.6094H8.48914C7.36938 14.6089 6.25989 14.3278 5.28076 13.7961L5.07385 13.6838L2.16443 14.3456L2.79639 11.4735L2.67456 11.2634C2.06885 10.2189 1.74878 9.0658 1.74878 7.92847C1.7511 4.24719 4.77576 1.24878 8.4917 1.24878C10.2869 1.24951 11.9736 1.94543 13.2412 3.20813C14.528 4.49036 15.2363 6.16785 15.2357 7.93164C15.2343 11.6138 12.209 14.6094 8.49194 14.6094Z" fill="white"/>
<path d="M6.3175 4.43262H5.96716C5.84521 4.43262 5.64722 4.47827 5.47974 4.66052C5.31213 4.8429 4.83984 5.28369 4.83984 6.18018C4.83984 7.07666 5.495 7.94287 5.5863 8.06457C5.67773 8.18616 6.85095 10.0846 8.70911 10.8149C10.2534 11.4219 10.5677 11.3011 10.9028 11.2707C11.238 11.2405 11.9845 10.8301 12.1368 10.4047C12.2892 9.97925 12.2892 9.6145 12.2435 9.53833C12.1978 9.4624 12.0758 9.41687 11.8931 9.3258C11.7102 9.23462 10.8142 8.78638 10.6466 8.72546C10.479 8.66479 10.3572 8.6344 10.2352 8.81689C10.1133 8.99902 9.75427 9.42041 9.64758 9.54199C9.54102 9.66369 9.43433 9.67895 9.25146 9.58777C9.0686 9.49634 8.48584 9.30054 7.78748 8.67993C7.2439 8.1969 6.8667 7.58093 6.76001 7.39856C6.65344 7.21631 6.74866 7.11767 6.84033 7.02673C6.92249 6.94519 7.03345 6.83362 7.12488 6.72729C7.21619 6.62085 7.24219 6.54492 7.30322 6.42334C7.36414 6.30176 7.33362 6.19531 7.28796 6.10425C7.24219 6.01306 6.89136 5.11206 6.72876 4.75171H6.72888C6.59192 4.44824 6.44775 4.43799 6.3175 4.43262Z" fill="white"/>
</g>
<defs>
<clipPath id="clip0_2610_2134">
<rect width="16" height="16" fill="white" transform="translate(0.5)"/>
</clipPath>
</defs>
</svg>
