<svg width="100" height="28" viewBox="0 0 100 28" fill="none" xmlns="http://www.w3.org/2000/svg">
<path d="M42.1849 8.41833C43.6105 8.41833 44.3232 7.74999 44.3232 6.41345C44.3232 5.69448 44.1419 5.18769 43.7789 4.88993C43.416 4.5953 42.8847 4.44654 42.1849 4.44654H36.8585L36.8617 8.98853C37.3023 8.73513 37.7527 8.57673 38.2127 8.51344C38.6728 8.45015 39.1426 8.41844 39.622 8.41844H42.1848L42.1849 8.41833ZM34.7397 16.5331V2.35596H42.1979C42.8329 2.35596 43.4128 2.44782 43.9409 2.63154C44.4657 2.81525 44.9128 3.08131 45.2822 3.4297C45.6549 3.77809 45.94 4.20255 46.1408 4.70296C46.3417 5.20336 46.4422 5.77031 46.4422 6.40381C46.4422 7.0373 46.3417 7.60425 46.1408 8.10466C45.94 8.60506 45.6549 9.03591 45.2822 9.39696C44.9129 9.75801 44.4658 10.0336 43.9377 10.2237C43.4128 10.4137 42.8329 10.5088 42.1945 10.5088H39.6254C39.1556 10.5088 38.6891 10.5468 38.2225 10.6228C37.756 10.6989 37.2991 10.8509 36.8585 11.079V16.5332H34.7397V16.5331Z" fill="#282828"/>
<path d="M53.2556 2.10889H55.5883L62.5669 16.533H60.1953L59.2427 14.4616H54.8301C54.1691 14.4616 53.5827 14.5059 53.0708 14.5947C52.5589 14.6834 52.1215 14.7974 51.7586 14.9368C51.3957 15.0762 51.1042 15.2282 50.8839 15.393C50.6635 15.5576 50.5146 15.716 50.4368 15.868L50.0674 16.5332H47.7736L54.0525 3.85747L53.2554 2.10912L53.2556 2.10889ZM58.2904 12.3711L55.1218 6.38482L51.9144 13.1693C52.1736 12.9539 52.6012 12.767 53.1974 12.6086C53.7935 12.4502 54.597 12.371 55.6079 12.371H58.2905L58.2904 12.3711Z" fill="#282828"/>
<path d="M71.0218 4.44667V16.5333H68.9613V4.44667H63.7904V2.3562H76.1344V4.44667H71.0218Z" fill="#282828"/>
<path d="M78.8422 16.5333V2.3562H80.9222V16.5333H78.8422Z" fill="#282828"/>
<path d="M97.827 9.34003C97.827 8.56718 97.6747 7.85774 97.3701 7.2052C97.0655 6.55591 96.6508 5.9921 96.126 5.51701C95.6012 5.04192 94.9953 4.67762 94.3084 4.41795C93.6216 4.15828 92.8894 4.02833 92.1118 4.02833C91.3083 4.02833 90.5566 4.16141 89.8568 4.42747C89.157 4.69352 88.5512 5.06723 88.0392 5.5551C87.5273 6.04285 87.1256 6.61932 86.834 7.28126C86.5423 7.94646 86.3966 8.67495 86.3966 9.47311C86.3966 10.2333 86.5521 10.9365 86.8631 11.5889C87.1741 12.2382 87.5953 12.7989 88.1266 13.2676C88.658 13.7364 89.2671 14.1006 89.954 14.3666C90.6408 14.6327 91.3665 14.7658 92.1311 14.7658C92.9087 14.7658 93.6442 14.6264 94.3375 14.3477C95.0309 14.069 95.6335 13.6889 96.1454 13.2011C96.6572 12.7134 97.0655 12.1401 97.3701 11.4844C97.6747 10.8256 97.827 10.1129 97.827 9.34003ZM99.9458 9.46359C99.9458 10.5152 99.7352 11.4907 99.3141 12.3902C98.8929 13.2898 98.3227 14.0689 97.6099 14.7277C96.8972 15.3865 96.0678 15.9059 95.1185 16.286C94.1724 16.6661 93.1713 16.8561 92.1216 16.8561C91.0201 16.8561 89.9931 16.6597 89.047 16.267C88.0978 15.8742 87.2748 15.3357 86.575 14.6516C85.8752 13.9675 85.3212 13.1598 84.9195 12.2285C84.5177 11.2973 84.3168 10.2996 84.3168 9.2354C84.3168 8.19649 84.5274 7.2304 84.9487 6.33724C85.3699 5.44408 85.9433 4.67123 86.6626 4.01869C87.3818 3.36627 88.2177 2.85622 89.1638 2.4889C90.1098 2.12146 91.1044 1.93774 92.1412 1.93774C93.2169 1.93774 94.231 2.13099 95.177 2.51735C96.1263 2.90372 96.9524 3.43583 97.6588 4.11368C98.3651 4.79154 98.9255 5.58645 99.3338 6.49866C99.7421 7.41087 99.9462 8.39902 99.9462 9.46336L99.9458 9.46359Z" fill="#282828"/>
<path d="M34.7396 25.4142V19.3975H35.6223V25.4142H34.7396Z" fill="#282828"/>
<path d="M36.8533 19.3975H38.0165L41.9683 23.9947V19.3975H42.8675V25.4142H41.9779L38.4538 21.2767V25.4142H37.5711V20.2443L36.8533 19.3975Z" fill="#282828"/>
<path d="M47.7943 23.7366L45.7071 21.2767V25.4142H44.8244V20.2443L44.1066 19.3975H45.2698L47.786 22.3494L50.3352 19.3975H51.4985L50.7808 20.2443V25.4142H49.8981V21.2767L47.7943 23.7366Z" fill="#282828"/>
<path d="M58.0511 22.3617C58.0511 22.0337 57.9865 21.7326 57.8572 21.4556C57.728 21.18 57.5519 20.9408 57.3292 20.7392C57.1065 20.5376 56.8493 20.383 56.5578 20.2727C56.2663 20.1625 55.9555 20.1073 55.6255 20.1073C55.2845 20.1073 54.9655 20.1638 54.6686 20.2768C54.3716 20.3897 54.1144 20.5483 53.8972 20.7553C53.6799 20.9623 53.5094 21.207 53.3857 21.4879C53.2619 21.7702 53.2 22.0794 53.2 22.4181C53.2 22.7407 53.266 23.0392 53.398 23.316C53.53 23.5916 53.7088 23.8296 53.9342 24.0285C54.1597 24.2274 54.4182 24.382 54.7097 24.4949C55.0012 24.6077 55.3092 24.6642 55.6336 24.6642C55.9636 24.6642 56.2758 24.6051 56.57 24.4867C56.8643 24.3684 57.12 24.2071 57.3373 24.0002C57.5546 23.7931 57.7278 23.5498 57.857 23.2715C57.9862 22.9919 58.0509 22.6895 58.0509 22.3615L58.0511 22.3617ZM58.9503 22.414C58.9503 22.8603 58.861 23.2743 58.6822 23.6561C58.5034 24.0378 58.2615 24.3685 57.959 24.648C57.6566 24.9277 57.3045 25.1481 56.9017 25.3094C56.5002 25.4707 56.0753 25.5514 55.6298 25.5514C55.1624 25.5514 54.7264 25.468 54.3249 25.3014C53.9221 25.1347 53.5727 24.9062 53.2758 24.6159C52.9788 24.3255 52.7437 23.9827 52.5731 23.5875C52.4027 23.1923 52.3174 22.7689 52.3174 22.3173C52.3174 21.8764 52.4067 21.4664 52.5855 21.0874C52.7643 20.7083 53.0075 20.3804 53.3128 20.1034C53.6181 19.8265 53.9728 19.6101 54.3743 19.4541C54.7758 19.2981 55.1979 19.2202 55.6379 19.2202C56.0944 19.2202 56.5248 19.3022 56.9263 19.4662C57.3291 19.6302 57.6798 19.856 57.9795 20.1437C58.2792 20.4313 58.5171 20.7687 58.6903 21.1559C58.8635 21.5431 58.9502 21.9624 58.9502 22.414H58.9503Z" fill="#282828"/>
<path d="M61.1961 22.1291C61.3831 22.023 61.5729 21.957 61.7681 21.9302C61.9634 21.9033 62.1613 21.8899 62.3648 21.8899H63.4179C63.6971 21.8899 63.9198 21.8214 64.0834 21.6828C64.2484 21.5457 64.331 21.336 64.331 21.0551C64.331 20.7687 64.2457 20.5685 64.0752 20.4557C63.906 20.3414 63.6861 20.2849 63.4179 20.2849H61.196V22.1292L61.1961 22.1291ZM61.1961 24.5272H63.5088C63.6299 24.5272 63.7577 24.5098 63.8911 24.4748C64.0258 24.4399 64.1483 24.3861 64.2583 24.3149C64.3668 24.2423 64.4576 24.1509 64.5291 24.042C64.6006 23.9318 64.6364 23.8014 64.6364 23.6522C64.6364 23.4761 64.6006 23.3309 64.5291 23.2179C64.4576 23.1063 64.3641 23.0176 64.2499 22.9532C64.1345 22.89 64.0038 22.8442 63.8581 22.8174C63.7137 22.7906 63.5665 22.7771 63.4181 22.7771H62.3649C62.1669 22.7771 61.9703 22.7933 61.7722 22.8255C61.5742 22.8578 61.3831 22.921 61.1961 23.0177V24.5273V24.5272ZM65.5356 23.7718C65.5356 24.0729 65.4737 24.3256 65.3499 24.5325C65.2262 24.7395 65.0626 24.9089 64.8618 25.0393C64.6611 25.171 64.4342 25.2665 64.1799 25.3256C63.9268 25.3847 63.6738 25.4143 63.4209 25.4143H60.297V19.3977H63.4155C63.6739 19.3977 63.9146 19.4339 64.1373 19.5066C64.3601 19.5792 64.5526 19.6854 64.7149 19.8266C64.8771 19.9664 65.0037 20.1384 65.0944 20.3428C65.1852 20.5471 65.2305 20.7823 65.2305 21.0458C65.2305 21.3039 65.1837 21.5392 65.0903 21.7489C64.9968 21.9586 64.8592 22.1212 64.6778 22.2342C64.7837 22.2826 64.8882 22.3511 64.994 22.4385C65.0999 22.5272 65.1921 22.636 65.269 22.7651C65.3474 22.8942 65.4106 23.042 65.4602 23.2088C65.511 23.3741 65.5358 23.5623 65.5358 23.772L65.5356 23.7718Z" fill="#282828"/>
<path d="M66.9645 25.4142V19.3975H67.8472V25.4142H66.9645Z" fill="#282828"/>
<path d="M69.6146 25.4142V19.3975H70.5138V24.527H73.9293V25.4142H69.6146Z" fill="#282828"/>
<path d="M74.9543 25.4142V19.3975H75.8371V25.4142H74.9543Z" fill="#282828"/>
<path d="M79.1885 19.293H80.1785L83.1402 25.4144H82.1337L81.7294 24.5353H79.8567C79.5763 24.5353 79.3274 24.5542 79.1101 24.5918C78.8929 24.6294 78.7073 24.6778 78.5533 24.7369C78.3993 24.7961 78.2755 24.8606 78.182 24.9305C78.0886 25.0004 78.0252 25.0677 77.9923 25.1321L77.8355 25.4144H76.8621L79.5267 20.0349L79.1885 19.293ZM81.3252 23.6482L79.9805 21.1076L78.6193 23.987C78.7293 23.8956 78.9108 23.8163 79.1638 23.749C79.4169 23.6818 79.7578 23.6482 80.1868 23.6482H81.3253H81.3252Z" fill="#282828"/>
<path d="M85.1465 22.2716C85.3335 22.1627 85.5233 22.0955 85.7158 22.0713C85.9083 22.0471 86.1062 22.035 86.3097 22.035H87.4812C87.7947 22.035 88.0477 21.9625 88.2402 21.8186C88.4326 21.6747 88.529 21.4436 88.529 21.1236C88.529 20.9691 88.5015 20.8387 88.4464 20.7325C88.3914 20.6264 88.3171 20.5389 88.2237 20.4731C88.1302 20.4058 88.0202 20.3588 87.8937 20.3292C87.7672 20.2996 87.6297 20.2848 87.4811 20.2848H85.1464V22.2716H85.1465ZM87.0316 22.9222H86.3125C86.1131 22.9222 85.9164 22.9369 85.7213 22.9665C85.526 22.9961 85.3335 23.0593 85.1465 23.156V25.4143H84.2473V19.3977H87.4868C87.7673 19.3977 88.0258 19.4367 88.2637 19.5146C88.5002 19.5926 88.7051 19.7068 88.8783 19.8575C89.0529 20.008 89.1876 20.1935 89.284 20.414C89.3802 20.6344 89.4283 20.8871 89.4283 21.1721C89.4283 21.6292 89.3018 22.0027 89.0502 22.2932C88.7972 22.5835 88.4479 22.7825 88.0011 22.89L88.4795 23.8497C88.5799 23.9895 88.6652 24.1024 88.738 24.1884C88.8095 24.2745 88.8796 24.343 88.9457 24.3941C89.0117 24.4452 89.0818 24.4802 89.1533 24.499C89.2261 24.5178 89.3114 24.5272 89.4118 24.5272L89.7006 24.5192V25.4144C89.5245 25.4144 89.3472 25.4091 89.1685 25.3983C88.9884 25.3875 88.8165 25.3527 88.6515 25.2934C88.4865 25.2343 88.3284 25.1401 88.18 25.0111C88.0315 24.8821 87.8995 24.6993 87.7839 24.4626L87.0317 22.9222H87.0316Z" fill="#282828"/>
<path d="M91.1295 25.4142V19.3975H92.0122V25.4142H91.1295Z" fill="#282828"/>
<path d="M99.1008 22.3617C99.1008 22.0337 99.0362 21.7326 98.9069 21.4556C98.7777 21.18 98.6016 20.9408 98.3789 20.7392C98.1562 20.5376 97.899 20.383 97.6075 20.2727C97.316 20.1625 97.0052 20.1073 96.6752 20.1073C96.3342 20.1073 96.0152 20.1638 95.7183 20.2768C95.4213 20.3897 95.1641 20.5483 94.9468 20.7553C94.7296 20.9623 94.5591 21.207 94.4353 21.4879C94.3116 21.7702 94.2497 22.0794 94.2497 22.4181C94.2497 22.7407 94.3157 23.0392 94.4477 23.316C94.5797 23.5916 94.7584 23.8296 94.9839 24.0285C95.2094 24.2274 95.4678 24.382 95.7594 24.4949C96.0509 24.6077 96.3589 24.6642 96.6833 24.6642C97.0133 24.6642 97.3255 24.6051 97.6197 24.4867C97.914 24.3684 98.1697 24.2071 98.387 24.0002C98.6042 23.7931 98.7774 23.5498 98.9067 23.2715C99.0359 22.9919 99.1005 22.6895 99.1005 22.3615L99.1008 22.3617ZM100 22.414C100 22.8603 99.9107 23.2743 99.7319 23.6561C99.5531 24.0378 99.3112 24.3685 99.0087 24.648C98.7063 24.9277 98.3542 25.1481 97.9514 25.3094C97.5499 25.4707 97.125 25.5514 96.6795 25.5514C96.2121 25.5514 95.7761 25.468 95.3746 25.3014C94.9718 25.1347 94.6224 24.9062 94.3255 24.6159C94.0285 24.3255 93.7934 23.9827 93.6228 23.5875C93.4524 23.1923 93.3671 22.7689 93.3671 22.3173C93.3671 21.8764 93.4564 21.4664 93.6352 21.0874C93.8139 20.7083 94.0572 20.3804 94.3625 20.1034C94.6678 19.8265 95.0225 19.6101 95.424 19.4541C95.8255 19.2981 96.2476 19.2202 96.6876 19.2202C97.1441 19.2202 97.5745 19.3022 97.976 19.4662C98.3788 19.6302 98.7294 19.856 99.0292 20.1437C99.3289 20.4313 99.5668 20.7687 99.74 21.1559C99.9132 21.5431 99.9999 21.9624 99.9999 22.414H100Z" fill="#282828"/>
<path fill-rule="evenodd" clip-rule="evenodd" d="M2.03681 21.9493C2.12935 23.7588 3.31582 25.0108 4.54671 25.5946C5.4621 26.0287 6.15286 26.0093 7.25201 26.0093L22.833 26.0094C24.8233 26.0082 26.11 24.9476 26.7893 23.7652C27.2496 22.9639 27.3244 22.2789 27.3244 21.239V9.0584C27.3244 8.08604 27.3727 6.98988 27.3169 6.0325C27.2142 4.26824 26.0225 2.9454 24.8031 2.39796C23.8584 1.97385 23.234 1.99011 22.1064 1.99011L6.52538 1.98999C5.57507 1.99022 4.74414 2.237 4.08795 2.65019C3.47 3.03923 2.94412 3.54812 2.57421 4.22272C2.10583 5.07674 2.0304 5.64613 2.0304 6.74322V18.9238C2.0304 19.904 1.98728 20.9808 2.03681 21.9493Z" fill="#282828"/>
<path fill-rule="evenodd" clip-rule="evenodd" d="M2.03664 21.9493C1.9871 20.9809 2.03022 19.904 2.03022 18.9239V6.74326C2.03022 5.64617 2.10565 5.07678 2.57404 4.22276C2.94407 3.54815 3.46983 3.03939 4.08777 2.65023C4.74408 2.23704 5.57489 1.99026 6.52521 1.99003L22.1062 1.99015C23.2339 1.99015 23.8582 1.97377 24.8029 2.398C26.0223 2.94555 27.214 4.26828 27.3168 6.03254C27.3725 6.98992 27.3242 8.08608 27.3242 9.05844V21.239C27.3242 22.279 27.2495 22.9639 26.7891 23.7652C26.1097 24.9477 24.823 26.0083 22.8328 26.0094L7.25184 26.0093C6.15268 26.0093 5.46192 26.0287 4.54653 25.5946C3.31564 25.0108 2.12917 23.759 2.03664 21.9493ZM0.0280309 22.1597C0.185189 24.3239 1.42048 25.8857 2.59507 26.7385C4.55699 28.1631 6.18202 27.9824 8.57052 27.9824C10.9835 27.9824 13.3965 27.9824 15.8094 27.9824C18.2118 27.9824 20.6504 28.0229 23.0483 27.981C25.3156 27.9414 26.991 26.775 27.9137 25.6536C29.4573 23.7778 29.3427 22.2387 29.3427 19.9761V9.34772C29.3427 8.5132 29.3778 6.54119 29.3262 5.83686C29.1667 3.65987 27.9284 2.1079 26.7519 1.25469C24.7723 -0.181149 23.1006 0.0169698 20.7878 0.0169698C18.3748 0.0169698 15.9618 0.0169698 13.5489 0.0169698C11.1454 0.0169698 8.7082 -0.0220501 6.30889 0.0182472C5.25523 0.0360152 4.21499 0.320187 3.42908 0.743832C1.83885 1.60111 0.70014 2.93661 0.222132 4.68635C-0.0611798 5.7234 0.0118756 6.89504 0.0118756 8.00595V18.6343C0.0118756 19.4749 -0.0235236 21.4505 0.0279121 22.1596L0.0280309 22.1597Z" fill="#282828"/>
<path fill-rule="evenodd" clip-rule="evenodd" d="M16.4729 20.355L16.4773 14.3909L12.9017 14.3987L12.9053 18.4488L9.86936 18.4486L9.86806 12.2155C9.92139 12.0977 10.863 11.6847 11.0348 11.5982C11.4415 11.3933 11.8441 11.1873 12.2463 10.9937C12.6519 10.7985 13.0457 10.5715 13.4532 10.3862C15.1721 9.60538 14.1903 9.58749 15.8758 10.3612C16.2254 10.5216 19.4009 12.1096 19.4844 12.1893L19.4865 21.9565H23.0744V12.6366C23.0744 12.1448 23.1265 11.2363 23.0462 10.7964C22.849 9.71512 21.9578 9.4788 21.0481 9.01462C19.3669 8.15676 17.6819 7.33398 16.0015 6.47752C14.6819 5.805 14.4412 5.95121 13.1595 6.59887C12.3176 7.02426 11.478 7.43223 10.6295 7.86133C10.08 8.13923 7.22333 9.49866 6.87243 9.79374C6.56453 10.0526 6.29274 10.5291 6.28039 11.0838C6.25295 12.3174 6.28003 13.5831 6.28003 14.8201C6.28003 15.4519 6.24451 20.0214 6.29405 20.4183C6.36009 20.9483 6.68261 21.3851 6.98968 21.6006C7.48859 21.9509 7.82263 21.9565 8.54356 21.9565H14.2754C14.9516 21.9565 15.3756 21.9245 15.8076 21.5798C16.0614 21.3774 16.4963 20.8958 16.4729 20.3552V20.355Z" fill="white"/>
</svg>
