<svg width="112" height="32" viewBox="0 0 112 32" fill="none" xmlns="http://www.w3.org/2000/svg">
<path d="M47.1321 9.62129C48.7249 9.62129 49.5212 8.85749 49.5212 7.33C49.5212 6.50833 49.3186 5.92913 48.9131 5.58884C48.5076 5.25213 47.914 5.08211 47.1321 5.08211H41.1811L41.1846 10.273C41.6769 9.98336 42.1801 9.80232 42.6941 9.72999C43.2081 9.65766 43.733 9.62143 44.2687 9.62143H47.132L47.1321 9.62129ZM38.8137 18.8953V2.69287H47.1466C47.8561 2.69287 48.5041 2.79785 49.094 3.00782C49.6804 3.21778 50.1799 3.52185 50.5927 3.92001C51.009 4.31817 51.3276 4.80326 51.552 5.37516C51.7764 5.94705 51.8887 6.59499 51.8887 7.31899C51.8887 8.04298 51.7764 8.69092 51.552 9.26281C51.3276 9.83471 51.009 10.3271 50.5927 10.7397C50.1801 11.1524 49.6805 11.4673 49.0904 11.6846C48.5041 11.9017 47.8561 12.0104 47.1429 12.0104H44.2724C43.7475 12.0104 43.2263 12.0538 42.705 12.1407C42.1838 12.2277 41.6733 12.4014 41.1811 12.6621V18.8954H38.8137V18.8953Z" fill="#111319"/>
<path d="M59.5013 2.41016H62.1076L69.9046 18.8949H67.2549L66.1906 16.5275H61.2604C60.522 16.5275 59.8667 16.5782 59.2948 16.6796C58.7229 16.781 58.2343 16.9114 57.8288 17.0706C57.4233 17.2299 57.0976 17.4036 56.8514 17.592C56.6052 17.7801 56.4388 17.9612 56.3519 18.1349L55.9392 18.8951H53.3764L60.3916 4.40853L59.5011 2.41042L59.5013 2.41016ZM65.1266 14.1384L61.5864 7.29693L58.0028 15.0506C58.2924 14.8044 58.7702 14.5909 59.4363 14.4098C60.1023 14.2288 61 14.1383 62.1295 14.1383H65.1267L65.1266 14.1384Z" fill="#111319"/>
<path d="M79.3511 5.08198V18.8953H77.0489V5.08198H71.2716V2.69287H85.0633V5.08198H79.3511Z" fill="#111319"/>
<path d="M88.0887 18.8953V2.69287H90.4127V18.8953H88.0887Z" fill="#111319"/>
<path d="M109.3 10.6746C109.3 9.79134 109.129 8.98055 108.789 8.23479C108.449 7.49275 107.986 6.84839 107.399 6.30543C106.813 5.76247 106.136 5.34612 105.368 5.04936C104.601 4.7526 103.783 4.60408 102.914 4.60408C102.016 4.60408 101.177 4.75618 100.395 5.06024C99.6129 5.36431 98.936 5.7914 98.364 6.34896C97.7921 6.90639 97.3432 7.56522 97.0174 8.32172C96.6915 9.08195 96.5287 9.91451 96.5287 10.8267C96.5287 11.6955 96.7024 12.4991 97.0499 13.2447C97.3973 13.9868 97.868 14.6276 98.4616 15.1632C99.0553 15.699 99.7359 16.1152 100.503 16.4193C101.271 16.7233 102.081 16.8754 102.936 16.8754C103.805 16.8754 104.626 16.7162 105.401 16.3977C106.176 16.0791 106.849 15.6447 107.421 15.0873C107.993 14.5299 108.449 13.8746 108.789 13.1253C109.129 12.3724 109.3 11.5579 109.3 10.6746ZM111.667 10.8158C111.667 12.0176 111.432 13.1325 110.961 14.1605C110.491 15.1886 109.853 16.079 109.057 16.8319C108.261 17.5848 107.334 18.1785 106.273 18.6129C105.216 19.0473 104.098 19.2644 102.925 19.2644C101.694 19.2644 100.547 19.04 99.49 18.5911C98.4294 18.1423 97.5099 17.5268 96.728 16.745C95.9462 15.9631 95.3272 15.04 94.8783 13.9758C94.4294 12.9115 94.205 11.7713 94.205 10.555C94.205 9.3677 94.4403 8.26359 94.911 7.24284C95.3816 6.22208 96.0222 5.33883 96.8259 4.59307C97.6295 3.84744 98.5634 3.26453 99.6204 2.84474C100.677 2.42481 101.789 2.21484 102.947 2.21484C104.149 2.21484 105.282 2.43569 106.339 2.87725C107.399 3.31881 108.323 3.92694 109.112 4.70163C109.901 5.47632 110.527 6.3848 110.983 7.42732C111.439 8.46984 111.667 9.59916 111.667 10.8155L111.667 10.8158Z" fill="#111319"/>
<path d="M38.8137 29.0447V22.1685H39.7999V29.0447H38.8137Z" fill="#111319"/>
<path d="M41.1754 22.1685H42.475L46.8902 27.4225V22.1685H47.8949V29.0447H46.901L42.9636 24.3161V29.0447H41.9773V23.1363L41.1754 22.1685Z" fill="#111319"/>
<path d="M53.3998 27.1274L51.0677 24.3161V29.0447H50.0815V23.1363L49.2796 22.1685H50.5792L53.3905 25.5421L56.2387 22.1685H57.5384L56.7365 23.1363V29.0447H55.7503V24.3161L53.3998 27.1274Z" fill="#111319"/>
<path d="M64.8592 25.556C64.8592 25.1812 64.787 24.8371 64.6426 24.5206C64.4982 24.2056 64.3015 23.9322 64.0526 23.7018C63.8038 23.4714 63.5164 23.2948 63.1907 23.1687C62.865 23.0427 62.5178 22.9797 62.1491 22.9797C61.7681 22.9797 61.4117 23.0442 61.0799 23.1733C60.7481 23.3023 60.4608 23.4836 60.2181 23.7203C59.9753 23.9568 59.7849 24.2364 59.6466 24.5575C59.5083 24.8801 59.4391 25.2334 59.4391 25.6206C59.4391 25.9892 59.5129 26.3303 59.6604 26.6467C59.8078 26.9617 60.0076 27.2336 60.2595 27.461C60.5114 27.6883 60.8002 27.865 61.1259 27.994C61.4516 28.123 61.7957 28.1875 62.1582 28.1875C62.5269 28.1875 62.8757 28.1199 63.2044 27.9847C63.5332 27.8495 63.8189 27.6651 64.0616 27.4286C64.3044 27.192 64.4979 26.9139 64.6423 26.5959C64.7867 26.2763 64.8589 25.9307 64.8589 25.5559L64.8592 25.556ZM65.8639 25.6159C65.8639 26.126 65.7641 26.5991 65.5643 27.0354C65.3646 27.4716 65.0942 27.8496 64.7563 28.1691C64.4184 28.4886 64.025 28.7405 63.575 28.9249C63.1264 29.1092 62.6516 29.2015 62.1539 29.2015C61.6317 29.2015 61.1446 29.1062 60.696 28.9157C60.2459 28.7253 59.8556 28.4641 59.5238 28.1323C59.192 27.8005 58.9293 27.4087 58.7387 26.957C58.5483 26.5054 58.453 26.0215 58.453 25.5053C58.453 25.0014 58.5528 24.5329 58.7526 24.0997C58.9523 23.6665 59.2241 23.2917 59.5652 22.9752C59.9063 22.6588 60.3026 22.4114 60.7512 22.2331C61.1998 22.0549 61.6713 21.9658 62.1629 21.9658C62.673 21.9658 63.1538 22.0595 63.6024 22.2469C64.0525 22.4343 64.4443 22.6925 64.7791 23.0212C65.114 23.35 65.3798 23.7355 65.5733 24.178C65.7668 24.6205 65.8637 25.0998 65.8637 25.6159H65.8639Z" fill="#111319"/>
<path d="M68.3731 25.2905C68.582 25.1692 68.7941 25.0938 69.0121 25.0632C69.2303 25.0325 69.4514 25.0171 69.6788 25.0171H70.8555C71.1674 25.0171 71.4162 24.9388 71.599 24.7805C71.7834 24.6237 71.8756 24.3842 71.8756 24.0631C71.8756 23.7358 71.7803 23.507 71.5898 23.378C71.4008 23.2474 71.1551 23.1829 70.8555 23.1829H68.373V25.2907L68.3731 25.2905ZM68.3731 28.0312H70.957C71.0923 28.0312 71.2351 28.0113 71.3841 27.9714C71.5346 27.9314 71.6715 27.87 71.7944 27.7886C71.9157 27.7057 72.0171 27.6012 72.097 27.4767C72.1769 27.3508 72.2168 27.2017 72.2168 27.0312C72.2168 26.83 72.1769 26.6641 72.097 26.5349C72.0171 26.4074 71.9126 26.306 71.7851 26.2323C71.6561 26.1601 71.5101 26.1078 71.3472 26.0772C71.186 26.0465 71.0215 26.0311 70.8556 26.0311H69.6789C69.4577 26.0311 69.238 26.0496 69.0168 26.0865C68.7955 26.1234 68.582 26.1956 68.3731 26.3061V28.0314V28.0312ZM73.2215 27.1679C73.2215 27.512 73.1524 27.8008 73.0141 28.0373C72.8758 28.2738 72.693 28.4675 72.4687 28.6165C72.2444 28.767 71.9909 28.8761 71.7068 28.9437C71.4241 29.0112 71.1414 29.0451 70.8588 29.0451H67.3685V22.1689H70.8527C71.1415 22.1689 71.4104 22.2104 71.6593 22.2934C71.9081 22.3764 72.1232 22.4977 72.3045 22.6591C72.4858 22.8189 72.6272 23.0154 72.7286 23.249C72.83 23.4825 72.8807 23.7514 72.8807 24.0525C72.8807 24.3474 72.8284 24.6163 72.7239 24.856C72.6195 25.0957 72.4658 25.2815 72.2631 25.4106C72.3814 25.466 72.4982 25.5443 72.6164 25.6441C72.7347 25.7455 72.8377 25.8699 72.9237 26.0175C73.0113 26.1649 73.0819 26.3339 73.1372 26.5244C73.194 26.7134 73.2218 26.9284 73.2218 27.1681L73.2215 27.1679Z" fill="#111319"/>
<path d="M74.8182 29.0447V22.1685H75.8044V29.0447H74.8182Z" fill="#111319"/>
<path d="M77.779 29.0447V22.1685H78.7837V28.0307H82.5998V29.0447H77.779Z" fill="#111319"/>
<path d="M83.7448 29.0447V22.1685H84.7311V29.0447H83.7448Z" fill="#111319"/>
<path d="M88.4755 22.0488H89.5816L92.8906 29.0448H91.766L91.3144 28.0401H89.222C88.9087 28.0401 88.6306 28.0616 88.3879 28.1046C88.1452 28.1476 87.9378 28.203 87.7657 28.2705C87.5937 28.3381 87.4554 28.4119 87.3509 28.4918C87.2465 28.5717 87.1758 28.6485 87.139 28.7222L86.9638 29.0448H85.8762L88.8533 22.8968L88.4755 22.0488ZM90.8627 27.0263L89.3603 24.1227L87.8395 27.4134C87.9624 27.3089 88.1652 27.2183 88.4479 27.1415C88.7306 27.0646 89.1115 27.0263 89.5909 27.0263H90.8629H90.8627Z" fill="#111319"/>
<path d="M95.1325 25.4534C95.3414 25.3289 95.5535 25.2522 95.7685 25.2244C95.9836 25.1968 96.2047 25.183 96.4321 25.183H97.741C98.0912 25.183 98.3739 25.1001 98.5889 24.9356C98.804 24.7712 98.9116 24.5071 98.9116 24.1414C98.9116 23.9648 98.8809 23.8157 98.8194 23.6944C98.7579 23.5731 98.6749 23.4732 98.5705 23.3979C98.466 23.3211 98.3432 23.2673 98.2018 23.2335C98.0605 23.1997 97.9069 23.1828 97.7409 23.1828H95.1324V25.4534H95.1325ZM97.2386 26.1969H96.4352C96.2124 26.1969 95.9927 26.2137 95.7746 26.2476C95.5564 26.2814 95.3414 26.3536 95.1325 26.4642V29.0451H94.1278V22.1689H97.7472C98.0606 22.1689 98.3494 22.2135 98.6152 22.3026C98.8795 22.3917 99.1084 22.5222 99.3019 22.6944C99.497 22.8664 99.6475 23.0785 99.7552 23.3304C99.8627 23.5823 99.9164 23.8711 99.9164 24.1968C99.9164 24.7192 99.7751 25.1461 99.494 25.4781C99.2113 25.8099 98.8211 26.0372 98.3218 26.1601L98.8564 27.2569C98.9685 27.4167 99.0638 27.5457 99.1452 27.6441C99.2251 27.7424 99.3034 27.8207 99.3772 27.8791C99.451 27.9375 99.5293 27.9775 99.6092 27.999C99.6905 28.0205 99.7858 28.0312 99.898 28.0312L100.221 28.0221V29.0452C100.024 29.0452 99.8258 29.0391 99.6262 29.0268C99.425 29.0144 99.2329 28.9746 99.0486 28.9069C98.8642 28.8394 98.6876 28.7317 98.5217 28.5843C98.3558 28.4368 98.2083 28.2279 98.0792 27.9574L97.2388 26.1969H97.2386Z" fill="#111319"/>
<path d="M101.817 29.0447V22.1685H102.804V29.0447H101.817Z" fill="#111319"/>
<path d="M110.723 25.556C110.723 25.1812 110.651 24.8371 110.507 24.5206C110.362 24.2056 110.166 23.9322 109.917 23.7018C109.668 23.4714 109.381 23.2948 109.055 23.1687C108.729 23.0427 108.382 22.9797 108.013 22.9797C107.632 22.9797 107.276 23.0442 106.944 23.1733C106.612 23.3023 106.325 23.4836 106.082 23.7203C105.84 23.9568 105.649 24.2364 105.511 24.5575C105.372 24.8801 105.303 25.2334 105.303 25.6206C105.303 25.9892 105.377 26.3303 105.525 26.6467C105.672 26.9617 105.872 27.2336 106.124 27.461C106.376 27.6883 106.664 27.865 106.99 27.994C107.316 28.123 107.66 28.1875 108.022 28.1875C108.391 28.1875 108.74 28.1199 109.069 27.9847C109.397 27.8495 109.683 27.6651 109.926 27.4286C110.169 27.192 110.362 26.9139 110.507 26.5959C110.651 26.2763 110.723 25.9307 110.723 25.5559L110.723 25.556ZM111.728 25.6159C111.728 26.126 111.628 26.5991 111.429 27.0354C111.229 27.4716 110.958 27.8496 110.621 28.1691C110.283 28.4886 109.889 28.7405 109.439 28.9249C108.991 29.1092 108.516 29.2015 108.018 29.2015C107.496 29.2015 107.009 29.1062 106.56 28.9157C106.11 28.7253 105.72 28.4641 105.388 28.1323C105.056 27.8005 104.794 27.4087 104.603 26.957C104.412 26.5054 104.317 26.0215 104.317 25.5053C104.317 25.0014 104.417 24.5329 104.617 24.0997C104.816 23.6665 105.088 23.2917 105.429 22.9752C105.77 22.6588 106.167 22.4114 106.615 22.2331C107.064 22.0549 107.536 21.9658 108.027 21.9658C108.537 21.9658 109.018 22.0595 109.467 22.2469C109.917 22.4343 110.308 22.6925 110.643 23.0212C110.978 23.35 111.244 23.7355 111.438 24.178C111.631 24.6205 111.728 25.0998 111.728 25.6159H111.728Z" fill="#111319"/>
<path fill-rule="evenodd" clip-rule="evenodd" d="M2.27551 25.085C2.37889 27.1531 3.70451 28.5839 5.07976 29.2511C6.10251 29.7472 6.87428 29.725 8.10234 29.725L25.5107 29.7252C27.7344 29.7239 29.172 28.5117 29.9309 27.1604C30.4452 26.2446 30.5288 25.4618 30.5288 24.2733V10.3526C30.5288 9.24133 30.5827 7.98857 30.5205 6.89442C30.4057 4.87813 29.0742 3.36631 27.7118 2.74066C26.6563 2.25597 25.9587 2.27455 24.6988 2.27455L7.29049 2.27441C6.22873 2.27468 5.30034 2.55671 4.56719 3.02893C3.87678 3.47355 3.28923 4.05513 2.87593 4.8261C2.35262 5.80213 2.26834 6.45286 2.26834 7.70668V21.6274C2.26834 22.7475 2.22016 23.9782 2.27551 25.085Z" fill="#FF2E63"/>
<path fill-rule="evenodd" clip-rule="evenodd" d="M2.27549 25.0849C2.22015 23.9781 2.26833 22.7474 2.26833 21.6273V7.70658C2.26833 6.45277 2.3526 5.80204 2.87592 4.82601C3.28935 4.05503 3.87677 3.47358 4.56718 3.02884C5.30046 2.55662 6.22871 2.27459 7.29048 2.27432L24.6988 2.27445C25.9587 2.27445 26.6563 2.25574 27.7118 2.74057C29.0742 3.36635 30.4057 4.87804 30.5205 6.89433C30.5827 7.98848 30.5288 9.24123 30.5288 10.3525V24.2732C30.5288 25.4617 30.4453 26.2445 29.9309 27.1603C29.1719 28.5116 27.7343 29.7238 25.5107 29.7251L8.10233 29.725C6.87427 29.725 6.1025 29.7471 5.07975 29.251C3.7045 28.5838 2.37888 27.1531 2.27549 25.0849ZM0.0313184 25.3254C0.206908 27.7988 1.58707 29.5836 2.89941 30.5583C5.09143 32.1864 6.90705 31.9799 9.57567 31.9799C12.2716 31.9799 14.9676 31.9799 17.6635 31.9799C20.3477 31.9799 23.0723 32.0262 25.7514 31.9783C28.2846 31.933 30.1565 30.6 31.1874 29.3184C32.9121 27.1746 32.784 25.4156 32.784 22.8298V10.6831C32.784 9.72938 32.8232 7.47565 32.7656 6.67069C32.5873 4.18271 31.2038 2.40903 29.8894 1.43393C27.6776 -0.207028 25.8098 0.019394 23.2257 0.019394C20.5298 0.019394 17.8338 0.019394 15.1379 0.019394C12.4525 0.019394 9.72949 -0.0252001 7.0488 0.020854C5.87156 0.0411602 4.70933 0.365928 3.83125 0.850093C2.05451 1.82984 0.782252 3.35613 0.248184 5.35583C-0.0683549 6.54103 0.0132683 7.88005 0.0132683 9.14965V21.2964C0.0132683 22.257 -0.0262824 24.5149 0.0311856 25.3253L0.0313184 25.3254Z" fill="#FF2E63"/>
<path fill-rule="evenodd" clip-rule="evenodd" d="M18.4049 23.2631L18.4099 16.4469L14.415 16.4558L14.4189 21.0846L11.027 21.0843L11.0255 13.9608C11.0851 13.8261 12.1372 13.3542 12.3291 13.2553C12.7836 13.0212 13.2333 12.7857 13.6827 12.5645C14.1358 12.3414 14.5758 12.0819 15.0312 11.8702C16.9516 10.9778 15.8547 10.9573 17.7379 11.8415C18.1285 12.025 21.6764 13.8398 21.7697 13.9308L21.7721 25.0933H25.7808V14.4421C25.7808 13.88 25.8389 12.8417 25.7492 12.339C25.5289 11.1032 24.5332 10.8331 23.5168 10.3026C21.6384 9.32223 19.7558 8.3819 17.8783 7.40309C16.4039 6.6345 16.135 6.80159 14.703 7.54178C13.7624 8.02793 12.8243 8.49418 11.8763 8.98459C11.2623 9.30219 8.07064 10.8558 7.67858 11.1931C7.33457 11.4889 7.03091 12.0334 7.0171 12.6675C6.98644 14.0772 7.0167 15.5237 7.0167 16.9375C7.0167 17.6595 6.97702 22.8818 7.03237 23.3354C7.10616 23.9412 7.46649 24.4403 7.80958 24.6866C8.36701 25.0869 8.74022 25.0933 9.5457 25.0933H15.9497C16.7053 25.0933 17.179 25.0568 17.6617 24.6629C17.9452 24.4316 18.4311 23.8812 18.4049 23.2633V23.2631Z" fill="white"/>
</svg>
