<svg width="40" height="40" viewBox="0 0 40 40" fill="none" xmlns="http://www.w3.org/2000/svg">
<rect width="40" height="40" rx="20" fill="#F2F2F2"/>
<path d="M18.9111 28C18.9111 28.5523 19.3588 29 19.9111 29C20.4634 29 20.9111 28.5523 20.9111 28H18.9111ZM19.9111 16.5714L20.6066 15.8529L19.8955 15.1646L19.1999 15.8685L19.9111 16.5714ZM15.2887 19.8262C14.9005 20.219 14.9043 20.8522 15.2971 21.2404C15.6899 21.6286 16.3231 21.6248 16.7113 21.232L15.2887 19.8262ZM23.3045 21.2476C23.7014 21.6317 24.3344 21.6214 24.7185 21.2246C25.1026 20.8277 25.0923 20.1947 24.6955 19.8106L23.3045 21.2476ZM20.9111 28L20.9111 16.5714H18.9111L18.9111 28H20.9111ZM19.1999 15.8685L15.2887 19.8262L16.7113 21.232L20.6224 17.2743L19.1999 15.8685ZM19.2156 17.29L23.3045 21.2476L24.6955 19.8106L20.6066 15.8529L19.2156 17.29ZM14 13H26V11H14V13ZM27 14.2857V15.4286H29V14.2857H27ZM13 15.4286V14.2857H11V15.4286H13ZM26 13C26.431 13 27 13.446 27 14.2857H29C29 12.6007 27.7781 11 26 11V13ZM14 11C12.2219 11 11 12.6007 11 14.2857H13C13 13.446 13.569 13 14 13V11Z" fill="black"/>
</svg>
