<svg width="16" height="16" viewBox="0 0 16 16" fill="none" xmlns="http://www.w3.org/2000/svg">
<g clip-path="url(#clip0_3224_29676)">
<path d="M15 7.97021H1C0.448656 7.97021 0 8.41887 0 8.97021C0 9.52156 0.448656 9.97021 1 9.97021H15C15.5513 9.97021 16 9.52156 16 8.97021C16 8.41887 15.5513 7.97021 15 7.97021Z" fill="#8593A9"/>
<path d="M15.0919 9.3164C14.9113 9.26574 14.7299 9.3684 14.6799 9.54574L14.6539 9.63709H1.34657L1.31991 9.54574C1.26991 9.3684 1.08726 9.26709 0.907914 9.3164C0.73057 9.36706 0.62857 9.55174 0.679258 9.7284L1.59791 12.9444C1.88257 13.9411 2.80526 14.6371 3.84126 14.6371H12.1579C13.1946 14.6371 14.1166 13.9411 14.4013 12.9444L15.3199 9.7284C15.3713 9.55171 15.2686 9.36706 15.0919 9.3164ZM3.84191 13.3037C3.39791 13.3037 3.00191 13.0057 2.88057 12.5784L2.44791 11.0624C2.39726 10.885 2.49991 10.701 2.67657 10.6504C2.85523 10.5997 3.03857 10.703 3.08857 10.8797L3.52123 12.3957C3.56257 12.5377 3.69388 12.6377 3.84188 12.6377C4.02588 12.6377 4.17523 12.7871 4.17523 12.9711C4.17526 13.1551 4.02591 13.3037 3.84191 13.3037Z" fill="#8593A9"/>
<path d="M4.48208 14.0051C4.31742 13.9244 4.11808 13.9891 4.03473 14.1544L3.36808 15.4877C3.28608 15.6524 3.35273 15.8524 3.51742 15.9351C3.56608 15.9591 3.61676 15.9704 3.66676 15.9704C3.78876 15.9704 3.90611 15.9031 3.96476 15.7858L4.63142 14.4524C4.71342 14.2877 4.64673 14.0877 4.48208 14.0051Z" fill="#8593A9"/>
<path d="M12.6321 15.4886L11.9655 14.1552C11.8828 13.9899 11.6828 13.9239 11.5181 14.0059C11.3535 14.0885 11.2868 14.2885 11.3688 14.4532L12.0355 15.7866C12.0941 15.9032 12.2115 15.9706 12.3335 15.9706C12.3835 15.9706 12.4341 15.9592 12.4828 15.9359C12.6475 15.8532 12.7141 15.6532 12.6321 15.4886Z" fill="#8593A9"/>
<path d="M13.3901 0.0297852C13.0501 0.0297852 12.7301 0.162441 12.4895 0.403129L11.4315 1.46113C11.3015 1.59113 11.3015 1.80247 11.4315 1.93247C11.5615 2.06247 11.7728 2.06247 11.9028 1.93247L12.9608 0.875129C13.0748 0.760473 13.2275 0.697129 13.3935 0.697129C13.7281 0.697129 14.0001 0.969129 14.0001 1.30379V8.30379C14.0001 8.48779 14.1495 8.63713 14.3335 8.63713C14.5175 8.63713 14.6668 8.48779 14.6675 8.30313V1.30313C14.6675 0.601129 14.0968 0.0297852 13.3901 0.0297852Z" fill="#8593A9"/>
<path d="M12.236 1.7944L11.5694 1.12775C11.4934 1.05175 11.3874 1.0164 11.2794 1.0344L9.61271 1.30775C9.49005 1.32775 9.38936 1.4144 9.35005 1.53175C9.31071 1.64909 9.34071 1.77975 9.42739 1.8684L11.4274 3.9284C11.4907 3.9944 11.578 4.02975 11.666 4.02975C11.6974 4.02975 11.7294 4.02509 11.7607 4.01575C11.8794 3.98109 11.9694 3.88309 11.9934 3.76175L12.3267 2.09509C12.3487 1.9864 12.3147 1.87372 12.236 1.7944Z" fill="#8593A9"/>
<path d="M7.902 4.0682C7.772 3.9382 7.56066 3.9382 7.43066 4.0682L6.764 4.73486C6.634 4.86486 6.634 5.0762 6.764 5.2062C6.82935 5.27086 6.91466 5.30355 7 5.30355C7.08535 5.30355 7.17066 5.27089 7.23535 5.2062L7.902 4.53955C8.032 4.40952 8.032 4.1982 7.902 4.0682Z" fill="#8593A9"/>
<path d="M9.23526 5.4017C9.10526 5.2717 8.89391 5.2717 8.76391 5.4017L8.09726 6.06836C7.96726 6.19836 7.96726 6.4097 8.09726 6.5397C8.1626 6.60436 8.24791 6.63704 8.33326 6.63704C8.4186 6.63704 8.50391 6.60439 8.5686 6.5397L9.23526 5.87304C9.36526 5.74304 9.36526 5.5317 9.23526 5.4017Z" fill="#8593A9"/>
<path d="M9.902 3.4017C9.772 3.2717 9.56066 3.2717 9.43066 3.4017L8.764 4.06836C8.634 4.19836 8.634 4.4097 8.764 4.5397C8.82935 4.60436 8.91466 4.63704 9 4.63704C9.08535 4.63704 9.17066 4.60439 9.23535 4.5397L9.902 3.87304C10.032 3.74304 10.032 3.5317 9.902 3.4017Z" fill="#8593A9"/>
</g>
<defs>
<clipPath id="clip0_3224_29676">
<rect width="16" height="16" fill="white"/>
</clipPath>
</defs>
</svg>
