<svg width="24" height="24" viewBox="0 0 24 24" fill="none" xmlns="http://www.w3.org/2000/svg">
<path d="M4.00093 16C4.27693 16 4.50095 15.776 4.50095 15.5V13.5C4.50095 13.224 4.27796 13 4.00093 13C3.72395 13 3.50092 13.224 3.50092 13.5V15.5C3.50092 15.776 3.7239 16 4.00093 16Z" fill="#636D7E"/>
<path d="M4.99994 22H4.49992V21.5C4.49992 21.224 4.27694 21 3.99995 21C3.72297 21 3.49994 21.224 3.49994 21.5V22.5C3.49994 22.776 3.72292 23 3.99995 23H4.99994C5.27594 23 5.49995 22.776 5.49995 22.5C5.49995 22.224 5.27594 22 4.99994 22Z" fill="#636D7E"/>
<path d="M4 20C4.276 20 4.49997 19.776 4.49997 19.5V17.5C4.49997 17.224 4.27699 17 3.99995 17C3.72297 17 3.49994 17.224 3.49994 17.5V19.5C3.49999 19.776 3.72297 20 4 20Z" fill="#636D7E"/>
<path d="M12 22H11C10.724 22 10.5 22.224 10.5 22.5C10.5 22.776 10.724 23 11 23H12C12.276 23 12.5 22.776 12.5 22.5C12.5 22.224 12.276 22 12 22Z" fill="#636D7E"/>
<path d="M8.99997 22H6.99995C6.72297 22 6.49994 22.224 6.49994 22.5C6.49994 22.776 6.72292 23 6.99995 23H8.99997C9.27597 23 9.49999 22.776 9.49999 22.5C9.49999 22.224 9.27597 22 8.99997 22Z" fill="#636D7E"/>
<path d="M22.3533 11.1462L12.3533 1.14625C12.1583 0.95125 11.8413 0.95125 11.6463 1.14625C11.4512 1.34125 11.4512 1.65827 11.6463 1.85327L12.0003 2.20727V11.0003C11.7243 11.0003 11.5002 11.2243 11.5002 11.5003C11.5002 11.7763 11.7243 12.0002 12.0003 12.0002H22.0002C22.2022 12.0002 22.3852 11.8782 22.4622 11.6912C22.5393 11.5043 22.4963 11.2902 22.3533 11.1462Z" fill="#636D7E"/>
<path d="M12.3532 1.14723C12.1582 0.952227 11.8412 0.952227 11.6462 1.14723L10.9392 1.85424C10.7442 2.04924 10.7442 2.36626 10.9392 2.56126C11.0372 2.65824 11.1652 2.70727 11.2932 2.70727C11.4212 2.70727 11.5492 2.65829 11.6462 2.56126L12.3532 1.85424C12.5482 1.65924 12.5482 1.34223 12.3532 1.14723Z" fill="#636D7E"/>
<path d="M4.80587 7.98609L3.57887 9.21309C3.38387 9.40809 3.38387 9.72511 3.57887 9.92011C3.67688 10.0171 3.80485 10.0661 3.93287 10.0661C4.06088 10.0661 4.18885 10.0181 4.28687 9.92011L5.51288 8.69311C5.70788 8.49811 5.70788 8.18109 5.51288 7.98609C5.31788 7.79109 5.00087 7.79109 4.80587 7.98609Z" fill="#636D7E"/>
<path d="M10.4201 3.07984C10.2251 2.88484 9.90809 2.88484 9.71309 3.07984L8.48609 4.30684C8.29109 4.50184 8.29109 4.81886 8.48609 5.01386C8.58411 5.11084 8.71208 5.15987 8.84009 5.15987C8.96811 5.15987 9.09509 5.11089 9.19311 5.01386L10.4201 3.78686C10.6151 3.59181 10.6151 3.27484 10.4201 3.07984Z" fill="#636D7E"/>
<path d="M7.25991 5.53297L6.03291 6.75997C5.83791 6.95497 5.83791 7.27198 6.03291 7.46698C6.13092 7.56397 6.25889 7.613 6.38691 7.613C6.51389 7.613 6.64191 7.56401 6.73992 7.46698L7.96692 6.23998C8.16192 6.04498 8.16192 5.72797 7.96692 5.53297C7.77192 5.33797 7.45491 5.33797 7.25991 5.53297Z" fill="#636D7E"/>
<path d="M3.1508 11.0232C3.24778 10.8352 3.21778 10.5972 3.05981 10.4392C2.86481 10.2442 2.5478 10.2442 2.3528 10.4392L1.64578 11.1462C1.5038 11.2892 1.46077 11.5042 1.53778 11.6912C1.6148 11.8782 1.7978 12.0002 1.99978 12.0002H2.99977C3.27577 12.0002 3.49978 11.7762 3.49978 11.5002C3.49978 11.2763 3.35278 11.0873 3.1508 11.0232Z" fill="#636D7E"/>
<path d="M9.39985 11H7.79982C7.52284 11 7.2998 11.224 7.2998 11.5C7.2998 11.776 7.52382 12 7.79982 12H9.39882C9.6758 12 9.89982 11.776 9.89982 11.5C9.89982 11.224 9.67585 11 9.39985 11Z" fill="#636D7E"/>
<path d="M6.19868 11H4.59865C4.32265 11 4.09863 11.224 4.09863 11.5C4.09863 11.776 4.32265 12 4.59865 12H6.19863C6.47463 12 6.69864 11.776 6.69864 11.5C6.69864 11.224 6.47468 11 6.19868 11Z" fill="#636D7E"/>
<path d="M12 11H11C10.724 11 10.5 11.224 10.5 11.5C10.5 11.776 10.724 12 11 12H12C12.276 12 12.5 11.776 12.5 11.5C12.5 11.224 12.276 11 12 11Z" fill="#636D7E"/>
<path d="M20.0001 11H12.0001C11.7241 11 11.5001 11.224 11.5001 11.5V22.5C11.5001 22.776 11.7241 23 12.0001 23H20.0001C20.2761 23 20.5001 22.776 20.5001 22.5V11.5C20.5001 11.224 20.2761 11 20.0001 11Z" fill="#636D7E"/>
</svg>
