<svg width="24" height="24" viewBox="0 0 24 24" fill="none" xmlns="http://www.w3.org/2000/svg">
<path d="M22.4478 2.45867C22.2654 2.38845 22.1426 2.2066 22.1426 2.00629C22.1426 1.80598 22.2654 1.62417 22.4478 1.5539C22.8528 1.39848 23.0576 0.935911 22.9058 0.520871C22.7545 0.10636 22.302 -0.104668 21.8985 0.0515247C21.1083 0.355307 20.5774 1.14064 20.5774 2.00624C20.5774 2.87183 21.1083 3.65717 21.8985 3.96119C22.0814 4.03141 22.2042 4.21297 22.2042 4.41329C22.2042 4.6136 22.0814 4.79516 21.8985 4.86538C21.494 5.0208 21.2887 5.48337 21.4405 5.89841C21.5582 6.22041 21.8563 6.41947 22.1732 6.41947C22.2644 6.41947 22.357 6.40303 22.4478 6.36829C23.238 6.0645 23.7694 5.27888 23.7694 4.41333C23.7694 3.54779 23.238 2.76216 22.4478 2.45867Z" fill="#636D7E"/>
<path d="M18.5352 2.45867C18.3528 2.38845 18.23 2.2066 18.23 2.00629C18.23 1.80598 18.3528 1.62417 18.5352 1.5539C18.9402 1.39848 19.145 0.935911 18.9932 0.520871C18.8419 0.10636 18.3899 -0.104668 17.9859 0.0515247C17.1957 0.355307 16.6648 1.14064 16.6648 2.00624C16.6648 2.87183 17.1957 3.65717 17.9859 3.96119C18.1688 4.03141 18.2916 4.21297 18.2916 4.41329C18.2916 4.6136 18.1688 4.79516 17.9859 4.86538C17.5814 5.0208 17.3761 5.48337 17.5279 5.89841C17.6456 6.22041 17.9437 6.41947 18.2606 6.41947C18.3517 6.41947 18.4444 6.40303 18.5352 6.36829C19.3254 6.0645 19.8568 5.27888 19.8568 4.41333C19.8568 3.54779 19.3254 2.76216 18.5352 2.45867Z" fill="#636D7E"/>
<path d="M6.01371 2.45867C5.83132 2.38845 5.70851 2.2066 5.70851 2.00629C5.70851 1.80598 5.83132 1.62417 6.01371 1.5539C6.41871 1.39848 6.62356 0.935911 6.47173 0.520871C6.32037 0.10636 5.86845 -0.104668 5.46443 0.0515247C4.67422 0.355307 4.14331 1.14064 4.14331 2.00624C4.14331 2.87183 4.67422 3.65722 5.46443 3.96119C5.64729 4.03141 5.7701 4.21297 5.7701 4.41329C5.7701 4.6136 5.64734 4.79516 5.46443 4.86538C5.0599 5.0208 4.85459 5.48337 5.00642 5.89841C5.12412 6.22041 5.4222 6.41947 5.73907 6.41947C5.83029 6.41947 5.92296 6.40303 6.01371 6.36829C6.80393 6.0645 7.33535 5.27888 7.33535 4.41333C7.33535 3.54779 6.80393 2.76216 6.01371 2.45867Z" fill="#636D7E"/>
<path d="M2.1007 2.45862C1.91831 2.38841 1.7955 2.20655 1.7955 2.00624C1.7955 1.80593 1.91831 1.62412 2.1007 1.55386C2.5057 1.39843 2.71055 0.935863 2.55872 0.520824C2.40741 0.106361 1.95497 -0.104667 1.55147 0.0515253C0.761252 0.355308 0.230347 1.14064 0.230347 2.00624C0.230347 2.87183 0.761252 3.65722 1.55147 3.96119C1.73433 4.03141 1.85714 4.21298 1.85714 4.41329C1.85714 4.6136 1.73438 4.79517 1.55147 4.86538C1.14694 5.0208 0.941627 5.48337 1.09345 5.89841C1.21116 6.22041 1.50923 6.41947 1.82611 6.41947C1.91733 6.41947 2.01 6.40304 2.10075 6.36829C2.89097 6.06451 3.42239 5.27888 3.42239 4.41333C3.42234 3.54774 2.89092 2.76211 2.1007 2.45862Z" fill="#636D7E"/>
<path d="M23.9232 22.4236C23.7362 22.0235 23.2695 21.8534 22.8793 22.0462C21.7879 22.5821 20.4847 22.4863 19.4774 21.7981C17.7884 20.6431 15.6037 20.6426 13.9136 21.7981C12.7515 22.5923 11.2495 22.5928 10.0863 21.7981C8.39731 20.6431 6.21261 20.6426 4.52258 21.7981C3.51482 22.4863 2.21202 22.5817 1.12068 22.0462C0.730403 21.854 0.263716 22.024 0.0767321 22.4236C-0.109736 22.8232 0.0553572 23.3025 0.445122 23.4937C2.03118 24.2723 3.92652 24.1344 5.3908 23.1332C6.554 22.3385 8.05597 22.339 9.21814 23.1332C10.0634 23.711 11.0319 23.9995 12 23.9995C12.9685 23.9995 13.9371 23.7109 14.7819 23.1332C15.9451 22.3385 17.447 22.339 18.6092 23.1332C20.0735 24.1344 21.9678 24.2728 23.5549 23.4937C23.9446 23.3025 24.1096 22.8232 23.9232 22.4236Z" fill="#636D7E"/>
<path d="M19.8258 9.62842H4.17405C2.44521 9.62842 1.0437 11.0653 1.0437 12.8379V15.984C1.0437 16.7601 1.55384 17.473 2.29695 17.621C3.29613 17.8199 4.17405 17.0369 4.17405 16.0474V13.6403C4.17405 13.1972 4.52444 12.8379 4.95663 12.8379H6.52178C6.95397 12.8379 7.30436 13.1972 7.30436 13.6403V16.1182L7.82416 16.0849C8.92098 16.0145 9.95987 16.4465 10.8175 17.1511C11.1579 17.4309 11.5725 17.5803 11.9999 17.5803C12.3713 17.5803 12.733 17.4675 13.0454 17.254C14.1325 16.511 15.3943 16.1183 16.6954 16.1182V13.6403C16.6954 13.1972 17.0458 12.8379 17.478 12.8379H19.0431C19.4753 12.8379 19.8257 13.1972 19.8257 13.6403V15.984C19.8257 16.7601 20.3359 17.473 21.079 17.621C22.0782 17.82 22.9561 17.0369 22.9561 16.0474V12.838C22.9561 11.0653 21.5546 9.62842 19.8258 9.62842Z" fill="#636D7E"/>
<path d="M12 1.60449C10.2738 1.60449 8.86963 3.04415 8.86963 4.81394C8.86963 6.58372 10.2738 8.02338 12 8.02338C13.7262 8.02338 15.1303 6.58372 15.1303 4.81394C15.1303 3.04415 13.7262 1.60449 12 1.60449Z" fill="#636D7E"/>
<path d="M23.9232 19.2146C23.7362 18.8147 23.2695 18.6449 22.8793 18.8372C21.7879 19.3729 20.4847 19.277 19.4774 18.5891C17.7884 17.4338 15.6037 17.4338 13.9136 18.5891C12.7515 19.3834 11.2495 19.3839 10.0863 18.5891C8.39731 17.4338 6.21261 17.4338 4.52258 18.5891C3.51482 19.2771 2.21202 19.3721 1.12068 18.8372C0.730403 18.6455 0.263716 18.8148 0.0767321 19.2146C-0.109736 19.6143 0.0553572 20.0936 0.445122 20.2847C2.03118 21.0631 3.92652 20.9252 5.3908 19.9243C6.554 19.1295 8.05597 19.13 9.21814 19.9243C10.0634 20.502 11.0319 20.7906 12 20.7906C12.9685 20.7906 13.9371 20.502 14.7819 19.9243C15.9451 19.1295 17.447 19.13 18.6092 19.9243C20.0735 20.9252 21.9678 21.0641 23.5549 20.2847C23.9446 20.0936 24.1096 19.6143 23.9232 19.2146Z" fill="#636D7E"/>
</svg>
