<svg width="20" height="20" viewBox="0 0 20 20" fill="none" xmlns="http://www.w3.org/2000/svg">
<g clip-path="url(#clip0_3284_29912)">
<path d="M3.71266 7.46394L4.15365 8.65961C4.17022 8.70462 4.21308 8.73447 4.261 8.73447C4.30891 8.73447 4.35177 8.70462 4.36835 8.65961L4.80933 7.46394C5.16629 6.49598 5.92932 5.73295 6.89721 5.37606L8.09288 4.93507C8.13782 4.9185 8.16768 4.87564 8.16768 4.82773C8.16768 4.77981 8.13782 4.73695 8.09288 4.72038L6.89715 4.27939C5.92925 3.92244 5.16622 3.15947 4.80933 2.19158L4.36835 0.995913C4.35177 0.950965 4.30891 0.921112 4.261 0.921112C4.21308 0.921112 4.17022 0.950965 4.15365 0.995913L3.71266 2.19158C3.35571 3.15947 2.59274 3.92244 1.62478 4.27939L0.429049 4.72038C0.384101 4.73695 0.354248 4.77981 0.354248 4.82773C0.354248 4.87564 0.384101 4.9185 0.429049 4.93507L1.62471 5.37606C2.59267 5.73295 3.35571 6.49591 3.71266 7.46394Z" fill="white"/>
<path d="M13.4067 12.5141L12.2111 12.0732C11.2431 11.7163 10.4801 10.9533 10.1232 9.9854L9.68224 8.78974C9.66567 8.74479 9.62281 8.71494 9.57489 8.71494C9.52698 8.71494 9.48412 8.74479 9.46754 8.78974L9.02656 9.98533C8.6696 10.9533 7.90657 11.7163 6.93868 12.0732L5.74301 12.5141C5.69807 12.5307 5.66821 12.5736 5.66821 12.6215C5.66821 12.6694 5.69807 12.7123 5.74301 12.7288L6.93875 13.1699C7.90664 13.5268 8.6696 14.2898 9.02656 15.2577L9.46754 16.4534C9.48412 16.4984 9.52698 16.5282 9.57489 16.5282C9.62281 16.5282 9.66567 16.4984 9.68224 16.4534L10.1232 15.2577C10.4802 14.2898 11.2431 13.5268 12.211 13.1699L13.4068 12.7288C13.4517 12.7123 13.4816 12.6694 13.4816 12.6215C13.4816 12.5736 13.4517 12.5307 13.4067 12.5141Z" fill="white"/>
<path d="M19.595 7.39994L18.7824 7.10026C18.1246 6.85767 17.6061 6.33912 17.3635 5.68134L17.0638 4.86878C17.0525 4.83825 17.0234 4.8179 16.9908 4.8179C16.9583 4.8179 16.9292 4.83825 16.9179 4.86878L16.6182 5.68128C16.3756 6.33912 15.8571 6.85767 15.1993 7.10026L14.3867 7.39994C14.3562 7.41119 14.3358 7.4403 14.3358 7.47285C14.3358 7.5054 14.3562 7.53458 14.3867 7.54583L15.1993 7.84544C15.8571 8.0881 16.3756 8.60665 16.6182 9.26443L16.9179 10.0771C16.9292 10.1077 16.9583 10.128 16.9908 10.128C17.0234 10.128 17.0525 10.1077 17.0638 10.0771L17.3635 9.26443C17.6061 8.60659 18.1246 8.0881 18.7824 7.84551L19.595 7.54583C19.6256 7.53458 19.6459 7.5054 19.6459 7.47285C19.6459 7.4403 19.6256 7.41119 19.595 7.39994Z" fill="white"/>
<path d="M17.6265 18.0972L17.0597 17.8881C16.6008 17.7189 16.2392 17.3572 16.0699 16.8984L15.8608 16.3317C15.853 16.3104 15.8327 16.2962 15.81 16.2962C15.7873 16.2962 15.7669 16.3104 15.7591 16.3317L15.55 16.8984C15.3808 17.3573 15.0191 17.7189 14.5603 17.8881L13.9935 18.0972C13.9722 18.105 13.958 18.1253 13.958 18.1481C13.958 18.1708 13.9722 18.1911 13.9935 18.1989L14.5603 18.408C15.0192 18.5772 15.3808 18.939 15.55 19.3978L15.7592 19.9646C15.767 19.9859 15.7873 20.0001 15.81 20.0001C15.8327 20.0001 15.8531 19.9859 15.8609 19.9646L16.07 19.3978C16.2392 18.939 16.6009 18.5772 17.0598 18.408L17.6266 18.1989C17.6479 18.1911 17.6621 18.1708 17.6621 18.1481C17.6621 18.1253 17.6479 18.105 17.6265 18.0972Z" fill="white"/>
<path d="M13.4461 1.80101L12.8793 1.59197C12.4204 1.42276 12.0587 1.06109 11.8896 0.602246L11.6805 0.0355134C11.6727 0.0141515 11.6523 0 11.6296 0C11.6069 0 11.5866 0.0141515 11.5787 0.0354461L11.3697 0.602111C11.2005 1.06096 10.8387 1.42269 10.3799 1.59191L9.81303 1.80094C9.79174 1.80876 9.77759 1.82911 9.77759 1.85182C9.77759 1.87453 9.79174 1.89488 9.81303 1.9027L10.3798 2.1118C10.8387 2.28101 11.2005 2.64275 11.3697 3.10167L11.5787 3.6684C11.5866 3.68969 11.6069 3.70384 11.6296 3.70384C11.6523 3.70384 11.6727 3.68969 11.6805 3.6684L11.8896 3.1016C12.0588 2.64269 12.4205 2.28101 12.8794 2.11187L13.4462 1.90277C13.4675 1.89495 13.4816 1.8746 13.4816 1.85189C13.4816 1.82918 13.4675 1.80883 13.4461 1.80101Z" fill="white"/>
<path d="M6.49347 16.9319L5.78051 16.6691C5.2034 16.4563 4.74839 16.0013 4.53545 15.4241L4.27257 14.7111C4.26266 14.6844 4.23712 14.6665 4.20855 14.6665C4.17998 14.6665 4.15444 14.6844 4.14453 14.7111L3.88165 15.424C3.66884 16.0012 3.21384 16.4562 2.63659 16.6691L1.92376 16.9319C1.89687 16.9417 1.87915 16.9673 1.87915 16.9959C1.87915 17.0245 1.89694 17.0501 1.92376 17.0599L2.63666 17.3229C3.21377 17.5357 3.66877 17.9907 3.88165 18.5679L4.14453 19.2808C4.15444 19.3076 4.17998 19.3254 4.20855 19.3254C4.23712 19.3254 4.26273 19.3076 4.27257 19.2808L4.53552 18.5678C4.74833 17.9907 5.20326 17.5357 5.78044 17.3229L6.49347 17.0599C6.52029 17.0501 6.53808 17.0245 6.53808 16.9959C6.53808 16.9673 6.52036 16.9417 6.49347 16.9319Z" fill="white"/>
</g>
<defs>
<clipPath id="clip0_3284_29912">
<rect width="20" height="20" fill="white"/>
</clipPath>
</defs>
</svg>
