<svg width="24" height="24" viewBox="0 0 24 24" fill="none" xmlns="http://www.w3.org/2000/svg">
<g clip-path="url(#clip0_3148_33581)">
<path d="M22.5 11.9551H1.5C0.672984 11.9551 0 12.6281 0 13.4551C0 14.2821 0.672984 14.9551 1.5 14.9551H22.5C23.327 14.9551 24 14.2821 24 13.4551C24 12.6281 23.327 11.9551 22.5 11.9551Z" fill="#636D7E"/>
<path d="M22.6375 13.9745C22.3665 13.8985 22.0945 14.0525 22.0195 14.3185L21.9805 14.4555H2.01949L1.97951 14.3185C1.90451 14.0525 1.63052 13.9005 1.3615 13.9745C1.09549 14.0505 0.942489 14.3275 1.01852 14.5925L2.39651 19.4165C2.82349 20.9115 4.20752 21.9555 5.76152 21.9555H18.2365C19.7915 21.9555 21.1745 20.9115 21.6015 19.4165L22.9795 14.5925C23.0565 14.3274 22.9025 14.0505 22.6375 13.9745ZM5.76251 19.9554C5.09651 19.9554 4.50251 19.5084 4.32049 18.8674L3.6715 16.5934C3.59552 16.3274 3.74951 16.0514 4.01449 15.9754C4.28247 15.8994 4.55749 16.0544 4.63249 16.3194L5.28147 18.5934C5.34349 18.8064 5.54046 18.9564 5.76246 18.9564C6.03846 18.9564 6.26247 19.1805 6.26247 19.4565C6.26252 19.7325 6.03851 19.9554 5.76251 19.9554Z" fill="#636D7E"/>
<path d="M6.72263 21.007C6.47564 20.886 6.17663 20.983 6.05161 21.231L5.05163 23.231C4.92863 23.478 5.02861 23.778 5.27564 23.902C5.34863 23.938 5.42466 23.955 5.49966 23.955C5.68266 23.955 5.85867 23.854 5.94666 23.6781L6.94664 21.678C7.06964 21.431 6.96961 21.131 6.72263 21.007Z" fill="#636D7E"/>
<path d="M18.9476 23.2329L17.9476 21.2328C17.8236 20.9848 17.5236 20.8858 17.2766 21.0088C17.0296 21.1328 16.9296 21.4328 17.0526 21.6799L18.0526 23.6799C18.1406 23.8548 18.3166 23.9559 18.4996 23.9559C18.5746 23.9559 18.6506 23.9388 18.7236 23.9039C18.9706 23.7798 19.0706 23.4798 18.9476 23.2329Z" fill="#636D7E"/>
<path d="M20.0852 0.0449219C19.5752 0.0449219 19.0952 0.243906 18.7342 0.604937L17.1472 2.19194C16.9522 2.38694 16.9522 2.70395 17.1472 2.89895C17.3422 3.09395 17.6592 3.09395 17.8542 2.89895L19.4412 1.31294C19.6122 1.14095 19.8412 1.04594 20.0902 1.04594C20.5922 1.04594 21.0002 1.45394 21.0002 1.95592V12.4559C21.0002 12.7319 21.2242 12.9559 21.5002 12.9559C21.7762 12.9559 22.0002 12.7319 22.0012 12.4549V1.95494C22.0012 0.901937 21.1452 0.0449219 20.0852 0.0449219Z" fill="#636D7E"/>
<path d="M18.3535 2.69185L17.3536 1.69186C17.2396 1.57786 17.0806 1.52485 16.9186 1.55185L14.4186 1.96186C14.2346 1.99186 14.0836 2.12185 14.0246 2.29786C13.9656 2.47388 14.0106 2.66986 14.1406 2.80285L17.1406 5.89285C17.2356 5.99185 17.3666 6.04486 17.4986 6.04486C17.5456 6.04486 17.5936 6.03788 17.6406 6.02386C17.8186 5.97188 17.9536 5.82488 17.9896 5.64286L18.4896 3.14288C18.5225 2.97985 18.4715 2.81082 18.3535 2.69185Z" fill="#636D7E"/>
<path d="M11.8532 6.1023C11.6582 5.9073 11.3412 5.9073 11.1462 6.1023L10.1462 7.10229C9.95125 7.29729 9.95125 7.61431 10.1462 7.80931C10.2443 7.90629 10.3722 7.95532 10.5002 7.95532C10.6283 7.95532 10.7562 7.90634 10.8533 7.80931L11.8532 6.80932C12.0482 6.61427 12.0482 6.2973 11.8532 6.1023Z" fill="#636D7E"/>
<path d="M13.8533 8.1023C13.6583 7.9073 13.3412 7.9073 13.1462 8.1023L12.1463 9.10229C11.9512 9.29729 11.9512 9.61431 12.1463 9.80931C12.2443 9.90629 12.3722 9.95532 12.5003 9.95532C12.6283 9.95532 12.7562 9.90634 12.8533 9.80931L13.8533 8.80932C14.0483 8.61432 14.0483 8.29731 13.8533 8.1023Z" fill="#636D7E"/>
<path d="M14.8533 5.1023C14.6583 4.9073 14.3412 4.9073 14.1462 5.1023L13.1463 6.10229C12.9512 6.29729 12.9512 6.61431 13.1463 6.80931C13.2443 6.90629 13.3722 6.95532 13.5003 6.95532C13.6283 6.95532 13.7562 6.90634 13.8533 6.80931L14.8533 5.80932C15.0483 5.61432 15.0483 5.2973 14.8533 5.1023Z" fill="#636D7E"/>
</g>
<defs>
<clipPath id="clip0_3148_33581">
<rect width="24" height="24" fill="white"/>
</clipPath>
</defs>
</svg>
