<svg width="24" height="24" viewBox="0 0 24 24" fill="none" xmlns="http://www.w3.org/2000/svg">
<path d="M3.72824 7.72526C4.85247 6.83401 5.78511 7.44867 7.02983 8.91892C7.16961 9.08488 7.35758 8.89065 7.46482 8.79599C7.57086 8.7001 9.21322 7.19174 9.29395 7.1229C9.37348 7.05037 9.46988 6.91515 9.34336 6.76394C9.03859 6.37935 8.74012 5.9896 8.44807 5.59487C6.2695 2.68755 14.4078 0.715743 13.1583 0.68501C12.522 0.6678 9.96994 0.637067 9.58796 0.680093C8.042 0.84605 6.10081 2.31999 5.12358 3.00717C3.84512 3.89965 3.36796 4.42334 3.28963 4.49587C2.92815 4.81795 3.2318 5.56168 2.5763 6.14806C1.88345 6.7664 1.45087 6.29803 1.04961 6.65699C0.850795 6.83647 0.294103 7.26181 0.135048 7.40318C-0.0252113 7.54701 -0.0541304 7.78919 0.109744 7.98219C0.109744 7.98219 1.63281 9.6983 1.76054 9.85074C1.88706 10.0007 2.23168 10.131 2.44375 9.93802C2.65703 9.74625 3.20529 9.25821 3.29686 9.17216C3.39085 9.09102 3.23662 8.11372 3.72824 7.72526ZM10.6062 8.36082C10.4616 8.18994 10.282 8.18502 10.1278 8.32516L8.39987 9.86426C8.33316 9.92602 8.29251 10.0117 8.28644 10.1034C8.28037 10.1951 8.30937 10.2856 8.36734 10.356L18.3613 21.9594C18.595 22.2336 18.9999 22.2618 19.2662 22.0246L20.435 21.0252C20.5637 20.9096 20.6424 20.7469 20.6542 20.5724C20.6659 20.3979 20.6097 20.2258 20.4977 20.0933L10.6062 8.36082ZM23.9318 3.42268C23.8426 2.8154 23.5342 2.94202 23.3739 3.19895C23.2137 3.45833 22.5051 4.55365 22.2135 5.05029C21.9243 5.54201 21.211 6.51439 19.8831 5.5543C18.4999 4.55733 18.9806 3.86154 19.2216 3.39318C19.4638 2.92235 20.2073 1.60207 20.3145 1.43858C20.4218 1.27262 20.2964 0.790731 19.8675 0.992337C19.4373 1.19394 16.8274 2.25238 16.4659 3.77058C16.096 5.31459 16.7756 6.6951 15.4417 8.06578L13.8234 9.78681L15.4489 11.7119L17.4419 9.7819C17.9166 9.29509 18.9312 8.82181 19.8494 9.03571C21.8171 9.48932 22.8907 8.73575 23.5378 7.48924C24.1186 6.37548 24.0222 4.02996 23.9318 3.42268ZM3.25108 20.2187C3.13055 20.3426 3.06291 20.5101 3.06291 20.6846C3.06291 20.8592 3.13055 21.0267 3.25108 21.1505L4.39699 22.2938C4.64763 22.5507 5.04526 22.4425 5.29589 22.1856L11.2086 16.2554L9.39758 14.1484L3.25108 20.2187Z" fill="#636D7E"/>
</svg>
