<svg width="16" height="16" viewBox="0 0 16 16" fill="none" xmlns="http://www.w3.org/2000/svg">
<path fill-rule="evenodd" clip-rule="evenodd" d="M2.63372 6.12435C2.96533 5.41969 3.27621 4.67358 3.66999 3.86528C3.87724 3.49223 4.14667 3.1399 4.58191 3.09845H11.4006C11.8565 3.1399 12.1052 3.49223 12.3332 3.86528C12.727 4.67358 13.0379 5.41969 13.3695 6.12435H2.63372ZM4.58191 2C3.85652 2 3.40056 2.26943 2.79952 3.11917L1.78398 5.39896H0.229576C0.00159646 5.39896 -0.433637 6.66321 1.18294 6.70466L0.644084 8.03109C0.644084 9.68912 0.664809 11.3679 0.664809 13.0259C0.664809 13.3782 0.934239 13.6477 1.28657 13.6477H3.37983C3.73217 13.6477 4.0016 13.3782 4.0016 13.0259V11.6373H11.9809V13.0259C11.9809 13.3782 12.271 13.6477 12.6026 13.6477H14.7166C15.069 13.6477 15.3384 13.3782 15.3384 13.0259C15.3384 11.3679 15.3591 9.68912 15.3591 8.03109L14.7995 6.70466C16.4368 6.66321 15.9809 5.39896 15.7529 5.39896H14.1985L13.2037 3.11917C12.5819 2.26943 12.1467 2 11.4006 2H4.58191ZM13.0586 8.13472C12.499 8.13472 12.043 8.59067 12.043 9.15026C12.043 9.70984 12.499 10.1658 13.0586 10.1658C13.6182 10.1658 14.0741 9.70984 14.0741 9.15026C14.0741 8.59067 13.6182 8.13472 13.0586 8.13472ZM2.92388 8.13472C3.48346 8.13472 3.93942 8.59067 3.93942 9.15026C3.93942 9.70984 3.48346 10.1658 2.92388 10.1658C2.36429 10.1658 1.90833 9.70984 1.90833 9.15026C1.90833 8.59067 2.36429 8.13472 2.92388 8.13472Z" fill="#8593A9"/>
</svg>
