<svg width="16" height="16" viewBox="0 0 16 16" fill="none" xmlns="http://www.w3.org/2000/svg">
<g clip-path="url(#clip0_3148_18088)">
<path d="M15.9889 5.31648C15.9845 5.26068 15.9796 5.21792 15.9752 5.18855C15.7513 2.65379 13.8917 0.647461 11.4783 0.647461C10.0801 0.647461 8.80234 1.3091 7.9657 2.38173C7.14858 1.30189 5.91951 0.647461 4.52872 0.647461C2.1235 0.647461 0.268152 2.6402 0.0292673 5.20295C0.0246751 5.23282 0.0200518 5.26918 0.0158345 5.31195C-0.0249949 5.72599 0.0089619 6.27461 0.16675 6.94306C0.502007 8.36328 1.28598 9.65683 2.39172 10.6592L7.54078 15.1864C7.79157 15.4069 8.16688 15.4077 8.41863 15.1883L13.6055 10.6685C14.828 9.39623 15.5546 8.2517 15.8427 6.93285C15.9872 6.27052 16.0209 5.72549 15.9889 5.31648ZM14.5405 6.64857C14.3139 7.68583 13.7111 8.63547 12.6864 9.70509L7.98297 13.8004L3.27934 9.66495C2.37713 8.84698 1.73595 7.78901 1.46395 6.63686C1.34046 6.1137 1.31566 5.71265 1.34515 5.41385L1.35455 5.34681C1.52599 3.41693 2.85768 1.98034 4.52872 1.98034C5.77275 1.98034 6.83116 2.73904 7.34554 3.95758C7.57477 4.50058 8.34425 4.50058 8.57348 3.95758C9.07756 2.76347 10.211 1.98034 11.4783 1.98034C13.1494 1.98034 14.481 3.41702 14.6524 5.34747C14.657 5.38626 14.6583 5.39701 14.6601 5.42035C14.6821 5.70228 14.6565 6.11682 14.5405 6.64857Z" fill="white" fill-opacity="0.64"/>
<path d="M14.5405 6.64857C14.3139 7.68583 13.7111 8.63547 12.6864 9.70509L7.98297 13.8004L3.27934 9.66495C2.37713 8.84698 1.73595 7.78901 1.46395 6.63686C1.34046 6.1137 1.31566 5.71265 1.34515 5.41385L1.35455 5.34681C1.52599 3.41693 2.85768 1.98034 4.52872 1.98034C5.77275 1.98034 6.83116 2.73904 7.34554 3.95758C7.57477 4.50058 8.34425 4.50058 8.57348 3.95758C9.07756 2.76347 10.211 1.98034 11.4783 1.98034C13.1494 1.98034 14.481 3.41702 14.6524 5.34747C14.657 5.38626 14.6583 5.39701 14.6601 5.42035C14.6821 5.70228 14.6565 6.11682 14.5405 6.64857Z" fill="black" fill-opacity="0.32"/>
</g>
<defs>
<clipPath id="clip0_3148_18088">
<rect width="16" height="16" fill="white"/>
</clipPath>
</defs>
</svg>
