<svg width="24" height="24" viewBox="0 0 24 24" fill="none" xmlns="http://www.w3.org/2000/svg">
<g clip-path="url(#clip0_3148_33766)">
<g clip-path="url(#clip1_3148_33766)">
<path d="M8.1172 0.734863H1.10306C0.688031 0.734863 0.351562 1.07133 0.351562 1.48636V15.0136C0.351562 15.4286 0.688031 15.7651 1.10306 15.7651H8.1172L8.99395 14.6377V1.8623L8.1172 0.734863Z" fill="#95CC81"/>
<path d="M8.70164 14.6378H3.35761C2.32167 14.6378 1.47881 13.795 1.47881 12.7591V0.734863H1.10306C0.688031 0.734863 0.351562 1.07133 0.351562 1.48636V15.0136C0.351562 15.4286 0.688078 15.7651 1.10306 15.7651H8.1172L8.99386 14.6378H8.70164Z" fill="#7DBD80"/>
<path d="M15.8829 15.765H22.897C23.312 15.765 23.6485 15.4286 23.6485 15.0136V1.48636C23.6485 1.07133 23.312 0.734863 22.897 0.734863H15.8829L15.0061 1.8623V14.6377L15.8829 15.765Z" fill="#E5646E"/>
<path d="M23.6484 15.0134V14.6377H15.0061L15.8828 15.7649H22.8969C23.3119 15.7649 23.6484 15.4285 23.6484 15.0134Z" fill="#DB4655"/>
<path d="M8.11719 0.734863H15.8828V15.7651H8.11719V0.734863Z" fill="#F2F2F6"/>
<path d="M8.11719 14.6377H15.8828V15.7649H8.11719V14.6377Z" fill="#E1E1E6"/>
<path d="M10.8728 6.37109H11.6243C12.2469 6.37109 12.7516 6.8758 12.7516 7.49834V9.00139H12.2262C11.6652 9.00139 11.1896 8.58889 11.1103 8.03356L10.8728 6.37109Z" fill="#966A5B"/>
<path d="M3.45117 17.918L4.98926 22.0049L6.52368 17.918H7.72119V23.25H6.79834V21.4922L6.88989 19.1411L5.31519 23.25H4.65234L3.0813 19.1448L3.17285 21.4922V23.25H2.25V17.918H3.45117Z" fill="#8593A9"/>
<path d="M12.858 19.8442L13.9786 17.918H15.0479L13.4366 20.562L15.0845 23.25H14.0042L12.858 21.2944L11.7081 23.25H10.6314L12.283 20.562L10.668 17.918H11.7374L12.858 19.8442Z" fill="#8593A9"/>
<path d="M22.1366 23.25H21.2101L18.8334 19.467V23.25H17.9068V17.918H18.8334L21.2174 21.7156V17.918H22.1366V23.25Z" fill="#8593A9"/>
</g>
</g>
<defs>
<clipPath id="clip0_3148_33766">
<rect width="24" height="24" fill="white"/>
</clipPath>
<clipPath id="clip1_3148_33766">
<rect width="24" height="24" fill="white"/>
</clipPath>
</defs>
</svg>
