<svg width="24" height="24" viewBox="0 0 24 24" fill="none" xmlns="http://www.w3.org/2000/svg">
<path fill-rule="evenodd" clip-rule="evenodd" d="M3.95058 9.18653C4.44799 8.12953 4.91431 7.01036 5.50499 5.79793C5.81587 5.23834 6.22001 4.70984 6.87286 4.64767H17.1008C17.7848 4.70984 18.1578 5.23834 18.4998 5.79793C19.0905 7.01036 19.5568 8.12953 20.0542 9.18653H3.95058ZM6.87286 3C5.78478 3 5.10084 3.40415 4.19929 4.67876L2.67597 8.09845H0.344364C0.00239469 8.09845 -0.650455 9.99482 1.77442 10.057L0.966125 12.0466C0.966125 14.5337 0.997213 17.0518 0.997213 19.5389C0.997213 20.0674 1.40136 20.4715 1.92986 20.4715H5.06975C5.59825 20.4715 6.00239 20.0674 6.00239 19.5389V17.456H17.9713V19.5389C17.9713 20.0674 18.4065 20.4715 18.9039 20.4715H22.0749C22.6034 20.4715 23.0076 20.0674 23.0076 19.5389C23.0076 17.0518 23.0387 14.5337 23.0387 12.0466L22.1993 10.057C24.6552 9.99482 23.9713 8.09845 23.6293 8.09845H21.2977L19.8055 4.67876C18.8729 3.40415 18.22 3 17.1008 3H6.87286ZM19.5879 12.2021C18.7485 12.2021 18.0646 12.886 18.0646 13.7254C18.0646 14.5648 18.7485 15.2487 19.5879 15.2487C20.4273 15.2487 21.1112 14.5648 21.1112 13.7254C21.1112 12.886 20.4273 12.2021 19.5879 12.2021ZM4.38581 12.2021C5.22519 12.2021 5.90913 12.886 5.90913 13.7254C5.90913 14.5648 5.22519 15.2487 4.38581 15.2487C3.54644 15.2487 2.8625 14.5648 2.8625 13.7254C2.8625 12.886 3.54644 12.2021 4.38581 12.2021Z" fill="#636D7E"/>
</svg>
