<svg width="26" height="25" viewBox="0 0 26 25" fill="none" xmlns="http://www.w3.org/2000/svg">
<path d="M25.0629 21.8527L25.0568 21.8658C24.4361 23.1981 23.0112 24.0415 21.4304 24.0415C20.3382 24.0415 19.3292 23.6437 18.5984 22.9569C17.8666 23.6439 16.852 24.0415 15.7666 24.0415C14.6743 24.0415 13.6653 23.6437 12.9346 22.9569C12.2028 23.6439 11.1881 24.0415 10.1027 24.0415C9.01048 24.0415 8.00146 23.6437 7.27072 22.9569C6.53891 23.6439 5.52426 24.0415 4.43885 24.0415C2.85897 24.0415 1.42568 23.1987 0.811977 21.8647L0.811392 21.8634L0.811395 21.8634C0.636875 21.4784 0.846612 21.0614 1.2342 20.9209C1.60252 20.7874 2.05194 20.928 2.22234 21.3025C2.58656 22.0904 3.44652 22.6159 4.43166 22.6159C5.35694 22.6159 6.18036 22.1491 6.57736 21.4275C6.72223 21.1635 7.01538 21.0618 7.26 21.0618C7.50476 21.0618 7.79809 21.1636 7.94288 21.428L7.94304 21.4283C8.33979 22.1551 9.15526 22.6159 10.0883 22.6159C11.0136 22.6159 11.837 22.1491 12.234 21.4275C12.3789 21.1635 12.6721 21.0618 12.9167 21.0618C13.1614 21.0618 13.4548 21.1636 13.5996 21.428L13.5997 21.4283C13.9965 22.1551 14.8119 22.6159 15.745 22.6159C16.6701 22.6159 17.4934 22.1493 17.8905 21.428L25.0629 21.8527ZM25.0629 21.8527L25.0674 21.8391M25.0629 21.8527L25.0674 21.8391M25.0674 21.8391C25.1922 21.4638 24.9834 21.0602 24.5992 20.9209C24.2308 20.7874 23.7814 20.928 23.611 21.3025C23.2468 22.0903 22.3868 22.6159 21.4017 22.6159C20.4686 22.6159 19.6531 22.1551 19.2564 21.4283L19.2562 21.428M25.0674 21.8391L19.2562 21.428M19.2562 21.428C19.1114 21.1636 18.8181 21.0618 18.5734 21.0618M19.2562 21.428L18.5734 21.0618M18.5734 21.0618C18.3287 21.0618 18.0356 21.1635 17.8907 21.4275L18.5734 21.0618ZM25.0353 17.2585L25.0363 17.2561C25.2109 16.8711 25.0011 16.4541 24.6135 16.3136C24.2452 16.1801 23.7958 16.3207 23.6254 16.6952C23.2612 17.483 22.4012 18.0086 21.4161 18.0086C20.483 18.0086 19.6675 17.5478 19.2708 16.821L19.2706 16.8207C19.1258 16.5563 18.8325 16.4545 18.5877 16.4545C18.3431 16.4545 18.05 16.5562 17.9051 16.8203C17.5081 17.5418 16.6847 18.0086 15.7594 18.0086C14.8263 18.0086 14.0108 17.5478 13.6141 16.821L13.6139 16.8207C13.4691 16.5563 13.1758 16.4545 12.9311 16.4545C12.6864 16.4545 12.3933 16.5562 12.2484 16.8203C11.8514 17.5418 11.028 18.0086 10.1027 18.0086C9.16964 18.0086 8.35417 17.5478 7.95742 16.821L7.95725 16.8207C7.81246 16.5563 7.51913 16.4545 7.27438 16.4545C7.02975 16.4545 6.73661 16.5562 6.59174 16.8203C6.19474 17.5418 5.37131 18.0086 4.44604 18.0086C3.46089 18.0086 2.60093 17.4831 2.23671 16.6952C2.06631 16.3207 1.61689 16.1801 1.24857 16.3136C0.861558 16.4539 0.65187 16.8699 0.825001 17.2544C1.41 18.5921 2.83866 19.4343 4.41729 19.4343C5.5027 19.4343 6.51735 19.0366 7.24916 18.3496C7.9799 19.0365 8.98891 19.4343 10.0812 19.4343C11.1666 19.4343 12.1812 19.0366 12.913 18.3496C13.6438 19.0365 14.6528 19.4343 15.745 19.4343C16.8304 19.4343 17.8451 19.0366 18.5769 18.3496C19.3076 19.0365 20.3166 19.4343 21.4089 19.4343C22.9896 19.4343 24.4146 18.5908 25.0353 17.2585Z" fill="#636D7E" stroke="#636D7E" stroke-width="0.5"/>
<rect x="7.422" width="1.83486" height="15.5963" fill="#636D7E"/>
<rect x="16.5958" width="1.83486" height="15.5963" fill="#636D7E"/>
<rect x="8.33899" y="10.0918" width="9.17431" height="1.83486" fill="#636D7E"/>
<rect x="8.33899" y="3.66992" width="9.17431" height="1.83486" fill="#636D7E"/>
</svg>
