<svg width="24" height="24" viewBox="0 0 24 24" fill="none" xmlns="http://www.w3.org/2000/svg">
<g clip-path="url(#clip0_3148_33766)">
<g clip-path="url(#clip1_3148_33766)">
<path d="M22.8969 0.734863H1.10306C0.688031 0.734863 0.351562 1.07133 0.351562 1.48636V15.0136C0.351562 15.4286 0.688031 15.7651 1.10306 15.7651H22.8969C23.3119 15.7651 23.6484 15.4286 23.6484 15.0136V1.48641C23.6484 1.07133 23.312 0.734863 22.8969 0.734863V0.734863Z" fill="#E5646E"/>
<path d="M12.3757 2.88232H23.6484V5.02948H12.3757V2.88232Z" fill="#F2F2F6"/>
<path d="M12 7.17627L12.3757 9.32347H23.6484V7.17627H12Z" fill="#F2F2F6"/>
<path d="M1.47881 12.7591V0.734863H1.10306C0.688031 0.734863 0.351562 1.07133 0.351562 1.48636V15.0136C0.351562 15.4286 0.688078 15.7651 1.10306 15.7651H22.8969C23.3119 15.7651 23.6484 15.4286 23.6484 15.0136V14.6378H3.35761C2.32167 14.6378 1.47881 13.795 1.47881 12.7591V12.7591Z" fill="#DB4655"/>
<path d="M12.3757 0.734863H1.10306C0.688031 0.734863 0.351562 1.07133 0.351562 1.48636V9.32354H12.3757V0.734863Z" fill="#5055A0"/>
<path d="M0.351562 11.4707H23.6484V13.6179H0.351562V11.4707Z" fill="#F2F2F6"/>
<path d="M1.47881 0.734863H1.10306C0.688031 0.734863 0.351562 1.07133 0.351562 1.48636V9.32354H1.47881V0.734863Z" fill="#3F3F8F"/>
<path d="M1.47881 12.759V11.4707H0.351562V13.6179H1.69645C1.56202 13.3593 1.47881 13.07 1.47881 12.759V12.759Z" fill="#E1E1E6"/>
<path d="M6.69531 17.918V21.4812C6.69531 22.0476 6.51343 22.4968 6.14966 22.8289C5.78833 23.1584 5.30615 23.3232 4.70312 23.3232C4.09277 23.3232 3.60815 23.1609 3.24927 22.8362C2.89038 22.509 2.71094 22.0562 2.71094 21.4775V17.918H3.63379V21.4849C3.63379 21.8413 3.72412 22.1135 3.90479 22.3015C4.08545 22.4895 4.35156 22.5835 4.70312 22.5835C5.41602 22.5835 5.77246 22.2075 5.77246 21.4556V17.918H6.69531Z" fill="#8593A9"/>
<path d="M13.0621 21.8767C13.0621 21.6423 12.9791 21.4617 12.8131 21.3347C12.6495 21.2078 12.3529 21.0796 11.9232 20.9502C11.4935 20.8208 11.1517 20.6768 10.8978 20.5181C10.412 20.2129 10.169 19.8149 10.169 19.3242C10.169 18.8945 10.3436 18.5405 10.6927 18.2622C11.0443 17.9839 11.4996 17.8447 12.0587 17.8447C12.4298 17.8447 12.7606 17.9131 13.0511 18.0498C13.3417 18.1865 13.5699 18.3818 13.7359 18.6357C13.902 18.8872 13.985 19.1667 13.985 19.4744H13.0621C13.0621 19.196 12.9742 18.9788 12.7984 18.8225C12.6251 18.6638 12.3761 18.5845 12.0514 18.5845C11.7486 18.5845 11.513 18.6492 11.3446 18.7786C11.1786 18.908 11.0956 19.0886 11.0956 19.3206C11.0956 19.5159 11.1859 19.6794 11.3666 19.8113C11.5472 19.9407 11.8451 20.0676 12.2601 20.1921C12.6751 20.3142 13.0084 20.4546 13.2599 20.6133C13.5113 20.7695 13.6957 20.9502 13.8128 21.1553C13.93 21.3579 13.9886 21.5959 13.9886 21.8694C13.9886 22.3137 13.8177 22.6677 13.4759 22.9314C13.1366 23.1926 12.6751 23.3232 12.0917 23.3232C11.7059 23.3232 11.3507 23.2524 11.026 23.1108C10.7037 22.9668 10.4522 22.769 10.2716 22.5176C10.0934 22.2661 10.0042 21.9731 10.0042 21.6387H10.9308C10.9308 21.9414 11.0309 22.1758 11.2311 22.3418C11.4312 22.5078 11.7181 22.5908 12.0917 22.5908C12.4139 22.5908 12.6556 22.5261 12.8167 22.3967C12.9803 22.2649 13.0621 22.0916 13.0621 21.8767Z" fill="#8593A9"/>
<path d="M17.3891 23.25V17.918H18.9638C19.435 17.918 19.8525 18.0229 20.2163 18.2329C20.5825 18.4429 20.8657 18.7407 21.0659 19.1265C21.2661 19.5122 21.3662 19.9541 21.3662 20.4521V20.7195C21.3662 21.2249 21.2648 21.6692 21.0622 22.0525C20.862 22.4358 20.5751 22.7312 20.2016 22.9387C19.8305 23.1462 19.4045 23.25 18.9235 23.25H17.3891ZM18.3156 18.665V22.5103H18.9199C19.4057 22.5103 19.778 22.3589 20.0368 22.0562C20.298 21.751 20.4311 21.314 20.436 20.7451V20.4485C20.436 19.8699 20.3103 19.428 20.0588 19.1228C19.8073 18.8176 19.4423 18.665 18.9638 18.665H18.3156Z" fill="#8593A9"/>
</g>
</g>
<defs>
<clipPath id="clip0_3148_33766">
<rect width="24" height="24" fill="white"/>
</clipPath>
<clipPath id="clip1_3148_33766">
<rect width="24" height="24" fill="white"/>
</clipPath>
</defs>
</svg>
