<svg width="24" height="24" viewBox="0 0 24 24" fill="none" xmlns="http://www.w3.org/2000/svg">
<path d="M12.0004 17.7775C14.0714 17.7775 15.7504 16.1193 15.7504 14.0738C15.7504 12.0283 14.0714 10.3701 12.0004 10.3701C9.9293 10.3701 8.25037 12.0283 8.25037 14.0738C8.25037 16.1193 9.9293 17.7775 12.0004 17.7775Z" fill="#636D7E"/>
<path d="M19.5 1.48145H4.5C4.10218 1.48145 3.72064 1.63753 3.43934 1.91536C3.15804 2.19319 3 2.57001 3 2.96293V5.92589H21V2.96293C21 2.57001 20.842 2.19319 20.5607 1.91536C20.2794 1.63753 19.8978 1.48145 19.5 1.48145ZM7.5 5.18515H6C5.80109 5.18515 5.61032 5.10711 5.46967 4.96819C5.32902 4.82927 5.25 4.64086 5.25 4.44441C5.25 4.24795 5.32902 4.05954 5.46967 3.92063C5.61032 3.78171 5.80109 3.70367 6 3.70367H7.5C7.69891 3.70367 7.88968 3.78171 8.03033 3.92063C8.17098 4.05954 8.25 4.24795 8.25 4.44441C8.25 4.64086 8.17098 4.82927 8.03033 4.96819C7.88968 5.10711 7.69891 5.18515 7.5 5.18515ZM18 5.18515H13.5C13.3011 5.18515 13.1103 5.10711 12.9697 4.96819C12.829 4.82927 12.75 4.64086 12.75 4.44441C12.75 4.24795 12.829 4.05954 12.9697 3.92063C13.1103 3.78171 13.3011 3.70367 13.5 3.70367H18C18.1989 3.70367 18.3897 3.78171 18.5303 3.92063C18.671 4.05954 18.75 4.24795 18.75 4.44441C18.75 4.64086 18.671 4.82927 18.5303 4.96819C18.3897 5.10711 18.1989 5.18515 18 5.18515Z" fill="#636D7E"/>
<path d="M3 20.7406C3 21.1335 3.15804 21.5103 3.43934 21.7881C3.72064 22.066 4.10218 22.222 4.5 22.222H19.5C19.8978 22.222 20.2794 22.066 20.5607 21.7881C20.842 21.5103 21 21.1335 21 20.7406V7.40723H3V20.7406ZM12 8.88871C13.0384 8.88871 14.0534 9.19281 14.9167 9.76257C15.7801 10.3323 16.453 11.1421 16.8504 12.0896C17.2477 13.0371 17.3517 14.0796 17.1491 15.0855C16.9466 16.0913 16.4465 17.0152 15.7123 17.7404C14.9781 18.4655 14.0426 18.9594 13.0242 19.1594C12.0058 19.3595 10.9502 19.2568 9.99091 18.8644C9.0316 18.4719 8.21166 17.8073 7.63478 16.9546C7.05791 16.1019 6.75 15.0994 6.75 14.0739C6.75 12.6987 7.30312 11.3798 8.28769 10.4074C9.27226 9.435 10.6076 8.88871 12 8.88871V8.88871Z" fill="#636D7E"/>
</svg>
