<svg width="100" height="28" viewBox="0 0 100 28" fill="none" xmlns="http://www.w3.org/2000/svg">
<path d="M42.185 8.41833C43.6106 8.41833 44.3233 7.74999 44.3233 6.41345C44.3233 5.69448 44.1419 5.18769 43.779 4.88993C43.4161 4.5953 42.8848 4.44654 42.185 4.44654H36.8586L36.8618 8.98853C37.3024 8.73513 37.7527 8.57673 38.2128 8.51344C38.6729 8.45015 39.1427 8.41844 39.6221 8.41844H42.1849L42.185 8.41833ZM34.7397 16.5331V2.35596H42.1979C42.833 2.35596 43.4129 2.44782 43.9409 2.63154C44.4657 2.81525 44.9129 3.08131 45.2823 3.4297C45.6549 3.77809 45.94 4.20255 46.1409 4.70296C46.3418 5.20336 46.4423 5.77031 46.4423 6.40381C46.4423 7.0373 46.3418 7.60425 46.1409 8.10466C45.94 8.60506 45.6549 9.03591 45.2823 9.39696C44.913 9.75801 44.4659 10.0336 43.9377 10.2237C43.4129 10.4137 42.833 10.5088 42.1946 10.5088H39.6254C39.1556 10.5088 38.6891 10.5468 38.2225 10.6228C37.756 10.6989 37.2992 10.8509 36.8586 11.079V16.5332H34.7397V16.5331Z" fill="#282828"/>
<path d="M53.2557 2.10883H55.5883L62.567 16.533H60.1954L59.2428 14.4615H54.8301C54.1692 14.4615 53.5827 14.5059 53.0709 14.5946C52.559 14.6833 52.1216 14.7974 51.7587 14.9367C51.3958 15.0761 51.1043 15.2281 50.8839 15.3929C50.6636 15.5576 50.5146 15.716 50.4368 15.868L50.0675 16.5332H47.7737L54.0525 3.85741L53.2555 2.10906L53.2557 2.10883ZM58.2904 12.3711L55.1219 6.38476L51.9144 13.1692C52.1736 12.9538 52.6013 12.7669 53.1975 12.6085C53.7936 12.4501 54.5971 12.3709 55.608 12.3709H58.2906L58.2904 12.3711Z" fill="#282828"/>
<path d="M71.0219 4.44661V16.5333H68.9614V4.44661H63.7905V2.35614H76.1345V4.44661H71.0219Z" fill="#282828"/>
<path d="M78.8423 16.5333V2.35614H80.9223V16.5333H78.8423Z" fill="#282828"/>
<path d="M97.827 9.34003C97.827 8.56718 97.6747 7.85774 97.3702 7.2052C97.0656 6.55591 96.6509 5.9921 96.1261 5.51701C95.6013 5.04192 94.9953 4.67762 94.3085 4.41795C93.6216 4.15828 92.8894 4.02833 92.1118 4.02833C91.3083 4.02833 90.5566 4.16141 89.8569 4.42747C89.1571 4.69352 88.5513 5.06723 88.0393 5.5551C87.5274 6.04285 87.1257 6.61932 86.834 7.28126C86.5424 7.94646 86.3967 8.67495 86.3967 9.47311C86.3967 10.2333 86.5521 10.9365 86.8631 11.5889C87.1741 12.2382 87.5954 12.7989 88.1267 13.2676C88.658 13.7364 89.2672 14.1006 89.954 14.3666C90.6409 14.6327 91.3666 14.7658 92.1312 14.7658C92.9088 14.7658 93.6442 14.6264 94.3376 14.3477C95.031 14.069 95.6336 13.6889 96.1454 13.2011C96.6573 12.7134 97.0656 12.1401 97.3702 11.4844C97.6747 10.8256 97.827 10.1129 97.827 9.34003ZM99.9459 9.46359C99.9459 10.5152 99.7353 11.4907 99.3142 12.3902C98.8929 13.2898 98.3227 14.0689 97.61 14.7277C96.8973 15.3865 96.0679 15.9059 95.1185 16.286C94.1725 16.6661 93.1713 16.8561 92.1217 16.8561C91.0202 16.8561 89.9931 16.6597 89.0471 16.267C88.0978 15.8742 87.2749 15.3357 86.5751 14.6516C85.8753 13.9675 85.3213 13.1598 84.9195 12.2285C84.5178 11.2973 84.3169 10.2996 84.3169 9.2354C84.3169 8.19649 84.5275 7.2304 84.9487 6.33724C85.37 5.44408 85.9434 4.67123 86.6626 4.01869C87.3819 3.36627 88.2178 2.85622 89.1638 2.4889C90.1099 2.12146 91.1045 1.93774 92.1413 1.93774C93.2169 1.93774 94.231 2.13099 95.1771 2.51735C96.1263 2.90372 96.9525 3.43583 97.6588 4.11368C98.3651 4.79154 98.9256 5.58645 99.3339 6.49866C99.7421 7.41087 99.9462 8.39902 99.9462 9.46336L99.9459 9.46359Z" fill="#282828"/>
<path d="M34.7397 25.4143V19.3976H35.6225V25.4143H34.7397Z" fill="#282828"/>
<path d="M36.8533 19.3976H38.0165L41.9682 23.9948V19.3976H42.8675V25.4143H41.9778L38.4537 21.2768V25.4143H37.571V20.2444L36.8533 19.3976Z" fill="#282828"/>
<path d="M47.7944 23.7367L45.7071 21.2768V25.4143H44.8244V20.2444L44.1067 19.3976H45.2699L47.7861 22.3495L50.3353 19.3976H51.4986L50.7809 20.2444V25.4143H49.8981V21.2768L47.7944 23.7367Z" fill="#282828"/>
<path d="M58.0511 22.3617C58.0511 22.0337 57.9865 21.7326 57.8572 21.4556C57.728 21.18 57.5519 20.9408 57.3292 20.7392C57.1065 20.5376 56.8493 20.383 56.5578 20.2727C56.2663 20.1625 55.9555 20.1073 55.6255 20.1073C55.2845 20.1073 54.9655 20.1638 54.6686 20.2768C54.3716 20.3897 54.1144 20.5483 53.8972 20.7553C53.6799 20.9623 53.5094 21.207 53.3857 21.4879C53.2619 21.7702 53.2 22.0794 53.2 22.4181C53.2 22.7407 53.266 23.0392 53.398 23.316C53.53 23.5916 53.7088 23.8296 53.9342 24.0285C54.1597 24.2274 54.4182 24.382 54.7097 24.4949C55.0012 24.6077 55.3092 24.6642 55.6336 24.6642C55.9636 24.6642 56.2758 24.6051 56.57 24.4867C56.8643 24.3684 57.12 24.2071 57.3373 24.0002C57.5546 23.7931 57.7278 23.5498 57.857 23.2715C57.9862 22.9919 58.0509 22.6895 58.0509 22.3615L58.0511 22.3617ZM58.9503 22.414C58.9503 22.8603 58.861 23.2743 58.6822 23.6561C58.5034 24.0378 58.2615 24.3685 57.959 24.648C57.6566 24.9277 57.3045 25.1481 56.9017 25.3094C56.5002 25.4707 56.0753 25.5514 55.6298 25.5514C55.1624 25.5514 54.7264 25.468 54.3249 25.3014C53.9221 25.1347 53.5727 24.9062 53.2758 24.6159C52.9788 24.3255 52.7437 23.9827 52.5731 23.5875C52.4027 23.1923 52.3174 22.7689 52.3174 22.3173C52.3174 21.8764 52.4067 21.4664 52.5855 21.0874C52.7643 20.7083 53.0075 20.3804 53.3128 20.1034C53.6181 19.8265 53.9728 19.6101 54.3743 19.4541C54.7758 19.2981 55.1979 19.2202 55.6379 19.2202C56.0944 19.2202 56.5248 19.3022 56.9263 19.4662C57.3291 19.6302 57.6798 19.856 57.9795 20.1437C58.2792 20.4313 58.5171 20.7687 58.6903 21.1559C58.8635 21.5431 58.9502 21.9624 58.9502 22.414H58.9503Z" fill="#282828"/>
<path d="M61.196 22.1292C61.383 22.023 61.5728 21.9571 61.768 21.9302C61.9632 21.9034 62.1612 21.8899 62.3646 21.8899H63.4178C63.697 21.8899 63.9197 21.8214 64.0833 21.6829C64.2483 21.5457 64.3308 21.3361 64.3308 21.0552C64.3308 20.7688 64.2455 20.5686 64.0751 20.4557C63.9059 20.3414 63.6859 20.285 63.4178 20.285H61.1959V22.1293L61.196 22.1292ZM61.196 24.5273H63.5087C63.6297 24.5273 63.7576 24.5098 63.891 24.4749C64.0257 24.4399 64.1481 24.3862 64.2581 24.315C64.3667 24.2424 64.4575 24.151 64.529 24.0421C64.6005 23.9319 64.6362 23.8014 64.6362 23.6522C64.6362 23.4762 64.6005 23.331 64.529 23.218C64.4575 23.1064 64.364 23.0177 64.2498 22.9532C64.1344 22.89 64.0037 22.8443 63.8579 22.8175C63.7136 22.7906 63.5664 22.7772 63.4179 22.7772H62.3648C62.1667 22.7772 61.9701 22.7933 61.7721 22.8256C61.5741 22.8579 61.383 22.9211 61.196 23.0178V24.5274V24.5273ZM65.5355 23.7718C65.5355 24.073 65.4736 24.3257 65.3498 24.5326C65.226 24.7395 65.0625 24.909 64.8617 25.0394C64.661 25.1711 64.4341 25.2665 64.1797 25.3257C63.9267 25.3848 63.6737 25.4144 63.4208 25.4144H60.2969V19.3978H63.4153C63.6738 19.3978 63.9145 19.434 64.1372 19.5067C64.3599 19.5793 64.5525 19.6854 64.7148 19.8266C64.877 19.9665 65.0035 20.1384 65.0943 20.3428C65.185 20.5471 65.2304 20.7824 65.2304 21.0459C65.2304 21.3039 65.1836 21.5392 65.0901 21.7489C64.9966 21.9587 64.8591 22.1213 64.6777 22.2343C64.7835 22.2827 64.8881 22.3512 64.9939 22.4385C65.0998 22.5273 65.1919 22.6361 65.2689 22.7652C65.3473 22.8942 65.4105 23.0421 65.46 23.2088C65.5109 23.3742 65.5357 23.5623 65.5357 23.7721L65.5355 23.7718Z" fill="#282828"/>
<path d="M66.9644 25.4143V19.3976H67.8471V25.4143H66.9644Z" fill="#282828"/>
<path d="M69.6145 25.4143V19.3976H70.5137V24.5271H73.9293V25.4143H69.6145Z" fill="#282828"/>
<path d="M74.9543 25.4143V19.3976H75.8371V25.4143H74.9543Z" fill="#282828"/>
<path d="M79.1885 19.2928H80.1785L83.1402 25.4143H82.1337L81.7294 24.5352H79.8567C79.5763 24.5352 79.3274 24.554 79.1101 24.5917C78.8929 24.6293 78.7073 24.6777 78.5533 24.7368C78.3993 24.7959 78.2755 24.8605 78.182 24.9304C78.0886 25.0003 78.0252 25.0676 77.9923 25.132L77.8355 25.4143H76.8621L79.5267 20.0348L79.1885 19.2928ZM81.3252 23.6481L79.9805 21.1075L78.6193 23.9868C78.7293 23.8955 78.9108 23.8161 79.1638 23.7489C79.4169 23.6817 79.7578 23.6481 80.1868 23.6481H81.3253H81.3252Z" fill="#282828"/>
<path d="M85.1465 22.2717C85.3335 22.1627 85.5233 22.0956 85.7158 22.0713C85.9083 22.0472 86.1062 22.0351 86.3097 22.0351H87.4812C87.7947 22.0351 88.0477 21.9625 88.2402 21.8186C88.4326 21.6747 88.529 21.4436 88.529 21.1237C88.529 20.9691 88.5015 20.8387 88.4464 20.7326C88.3914 20.6264 88.3171 20.539 88.2237 20.4731C88.1302 20.4059 88.0202 20.3589 87.8937 20.3293C87.7672 20.2996 87.6297 20.2849 87.4811 20.2849H85.1464V22.2717H85.1465ZM87.0316 22.9222H86.3125C86.1131 22.9222 85.9164 22.937 85.7213 22.9666C85.526 22.9962 85.3335 23.0594 85.1465 23.1561V25.4144H84.2473V19.3978H87.4868C87.7673 19.3978 88.0258 19.4368 88.2637 19.5147C88.5002 19.5926 88.7051 19.7069 88.8783 19.8575C89.0529 20.008 89.1876 20.1936 89.284 20.414C89.3802 20.6344 89.4283 20.8871 89.4283 21.1721C89.4283 21.6292 89.3018 22.0028 89.0502 22.2933C88.7972 22.5836 88.4479 22.7825 88.0011 22.89L88.4795 23.8498C88.5799 23.9896 88.6652 24.1025 88.738 24.1885C88.8095 24.2746 88.8796 24.3431 88.9457 24.3942C89.0117 24.4453 89.0818 24.4802 89.1533 24.499C89.2261 24.5179 89.3114 24.5273 89.4118 24.5273L89.7006 24.5192V25.4145C89.5245 25.4145 89.3472 25.4092 89.1685 25.3984C88.9884 25.3876 88.8165 25.3527 88.6515 25.2935C88.4865 25.2344 88.3284 25.1402 88.18 25.0112C88.0315 24.8822 87.8995 24.6994 87.7839 24.4627L87.0317 22.9222H87.0316Z" fill="#282828"/>
<path d="M91.1294 25.4143V19.3976H92.0121V25.4143H91.1294Z" fill="#282828"/>
<path d="M99.1007 22.3617C99.1007 22.0337 99.036 21.7326 98.9068 21.4556C98.7776 21.18 98.6015 20.9408 98.3788 20.7392C98.156 20.5376 97.8989 20.383 97.6074 20.2727C97.3159 20.1625 97.0051 20.1073 96.6751 20.1073C96.3341 20.1073 96.0151 20.1638 95.7181 20.2768C95.4212 20.3897 95.164 20.5483 94.9467 20.7553C94.7295 20.9623 94.559 21.207 94.4352 21.4879C94.3114 21.7702 94.2495 22.0794 94.2495 22.4181C94.2495 22.7407 94.3156 23.0392 94.4476 23.316C94.5795 23.5916 94.7583 23.8296 94.9838 24.0285C95.2092 24.2274 95.4677 24.382 95.7592 24.4949C96.0507 24.6077 96.3588 24.6642 96.6832 24.6642C97.0132 24.6642 97.3254 24.6051 97.6196 24.4867C97.9138 24.3684 98.1696 24.2071 98.3869 24.0002C98.6041 23.7931 98.7773 23.5498 98.9066 23.2715C99.0358 22.9919 99.1004 22.6895 99.1004 22.3615L99.1007 22.3617ZM99.9999 22.414C99.9999 22.8603 99.9106 23.2743 99.7318 23.6561C99.553 24.0378 99.311 24.3685 99.0086 24.648C98.7062 24.9277 98.3541 25.1481 97.9513 25.3094C97.5497 25.4707 97.1248 25.5514 96.6794 25.5514C96.2119 25.5514 95.776 25.468 95.3745 25.3014C94.9717 25.1347 94.6223 24.9062 94.3253 24.6159C94.0284 24.3255 93.7933 23.9827 93.6227 23.5875C93.4522 23.1923 93.3669 22.7689 93.3669 22.3173C93.3669 21.8764 93.4563 21.4664 93.635 21.0874C93.8138 20.7083 94.0571 20.3804 94.3624 20.1034C94.6677 19.8265 95.0224 19.6101 95.4239 19.4541C95.8254 19.2981 96.2475 19.2202 96.6875 19.2202C97.144 19.2202 97.5743 19.3022 97.9758 19.4662C98.3787 19.6302 98.7293 19.856 99.029 20.1437C99.3287 20.4313 99.5667 20.7687 99.7399 21.1559C99.9131 21.5431 99.9998 21.9624 99.9998 22.414H99.9999Z" fill="#282828"/>
<path fill-rule="evenodd" clip-rule="evenodd" d="M2.03675 21.9493C2.12929 23.7589 3.31575 25.0109 4.54665 25.5947C5.46204 26.0287 6.1528 26.0094 7.25195 26.0094L22.8329 26.0095C24.8233 26.0083 26.11 24.9477 26.7892 23.7652C27.2495 22.9639 27.3244 22.279 27.3244 21.2391V9.05846C27.3244 8.0861 27.3726 6.98994 27.3169 6.03256C27.2141 4.2683 26.0224 2.94546 24.8031 2.39802C23.8583 1.97391 23.234 1.99017 22.1063 1.99017L6.52532 1.99005C5.57501 1.99028 4.74408 2.23706 4.08788 2.65025C3.46994 3.03929 2.94406 3.54818 2.57415 4.22278C2.10577 5.0768 2.03034 5.64619 2.03034 6.74328V18.9239C2.03034 19.904 1.98722 20.9809 2.03675 21.9493Z" fill="#282828"/>
<path fill-rule="evenodd" clip-rule="evenodd" d="M2.03664 21.9493C1.9871 20.9809 2.03022 19.904 2.03022 18.9239V6.74326C2.03022 5.64617 2.10565 5.07678 2.57404 4.22276C2.94407 3.54815 3.46983 3.03939 4.08777 2.65023C4.74408 2.23704 5.57489 1.99026 6.52521 1.99003L22.1062 1.99015C23.2339 1.99015 23.8582 1.97377 24.8029 2.398C26.0223 2.94555 27.214 4.26828 27.3168 6.03254C27.3725 6.98992 27.3242 8.08608 27.3242 9.05844V21.239C27.3242 22.279 27.2495 22.9639 26.7891 23.7652C26.1097 24.9477 24.823 26.0083 22.8328 26.0094L7.25184 26.0093C6.15268 26.0093 5.46192 26.0287 4.54653 25.5946C3.31564 25.0108 2.12917 23.759 2.03664 21.9493ZM0.0280309 22.1597C0.185189 24.3239 1.42048 25.8857 2.59507 26.7385C4.55699 28.1631 6.18202 27.9824 8.57052 27.9824C10.9835 27.9824 13.3965 27.9824 15.8094 27.9824C18.2118 27.9824 20.6504 28.0229 23.0483 27.981C25.3156 27.9414 26.991 26.775 27.9137 25.6536C29.4573 23.7778 29.3427 22.2387 29.3427 19.9761V9.34772C29.3427 8.5132 29.3778 6.54119 29.3262 5.83686C29.1667 3.65987 27.9284 2.1079 26.7519 1.25469C24.7723 -0.181149 23.1006 0.0169698 20.7878 0.0169698C18.3748 0.0169698 15.9618 0.0169698 13.5489 0.0169698C11.1454 0.0169698 8.7082 -0.0220501 6.30889 0.0182472C5.25523 0.0360152 4.21499 0.320187 3.42908 0.743832C1.83885 1.60111 0.70014 2.93661 0.222132 4.68635C-0.0611798 5.7234 0.0118756 6.89504 0.0118756 8.00595V18.6343C0.0118756 19.4749 -0.0235236 21.4505 0.0279121 22.1596L0.0280309 22.1597Z" fill="#282828"/>
<path fill-rule="evenodd" clip-rule="evenodd" d="M16.473 20.3551L16.4774 14.391L12.9018 14.3987L12.9054 18.4489L9.86949 18.4487L9.86818 12.2156C9.92152 12.0977 10.8632 11.6848 11.0349 11.5982C11.4417 11.3934 11.8442 11.1874 12.2465 10.9938C12.652 10.7986 13.0458 10.5715 13.4534 10.3863C15.1722 9.60544 14.1904 9.58756 15.8759 10.3612C16.2255 10.5217 19.401 12.1097 19.4845 12.1893L19.4867 21.9565H23.0746V12.6367C23.0746 12.1449 23.1266 11.2364 23.0463 10.7965C22.8491 9.71518 21.958 9.47886 21.0483 9.01468C19.367 8.15683 17.682 7.33404 16.0016 6.47758C14.682 5.80506 14.4413 5.95127 13.1596 6.59893C12.3177 7.02432 11.4781 7.43229 10.6296 7.86139C10.0801 8.13929 7.22346 9.49872 6.87255 9.7938C6.56465 10.0527 6.29286 10.5291 6.28051 11.0839C6.25307 12.3174 6.28015 13.5831 6.28015 14.8202C6.28015 15.4519 6.24463 20.0214 6.29417 20.4184C6.36021 20.9484 6.68273 21.3852 6.9898 21.6007C7.48871 21.9509 7.82275 21.9565 8.54368 21.9565H14.2755C14.9518 21.9565 15.3757 21.9246 15.8078 21.5799C16.0615 21.3775 16.4964 20.8959 16.473 20.3553V20.3551Z" fill="white"/>
</svg>
