<svg width="112" height="32" viewBox="0 0 112 32" fill="none" xmlns="http://www.w3.org/2000/svg">
<path d="M44.3184 10.4064C45.9112 10.4064 46.7075 9.64258 46.7075 8.1151C46.7075 7.29342 46.5048 6.71423 46.0994 6.37393C45.6939 6.03722 45.1003 5.86721 44.3184 5.86721H38.3673L38.3709 11.058C38.8632 10.7685 39.3663 10.5874 39.8804 10.5151C40.3944 10.4428 40.9193 10.4065 41.455 10.4065H44.3183L44.3184 10.4064ZM36 19.6804V3.47797H44.3329C45.0424 3.47797 45.6903 3.58295 46.2803 3.79291C46.8666 4.00288 47.3662 4.30694 47.779 4.7051C48.1953 5.10326 48.5138 5.58836 48.7383 6.16025C48.9627 6.73215 49.075 7.38009 49.075 8.10408C49.075 8.82807 48.9627 9.47602 48.7383 10.0479C48.5138 10.6198 48.1953 11.1122 47.779 11.5248C47.3663 11.9375 46.8668 12.2524 46.2767 12.4697C45.6903 12.6868 45.0424 12.7955 44.3292 12.7955H41.4587C40.9338 12.7955 40.4126 12.8389 39.8912 12.9258C39.37 13.0128 38.8596 13.1865 38.3673 13.4472V19.6805H36V19.6804Z" fill="#252A34"/>
<path d="M56.6874 3.19556H59.2937L67.0907 19.6803H64.441L63.3767 17.3129H58.4465C57.7081 17.3129 57.0528 17.3636 56.4809 17.465C55.909 17.5664 55.4203 17.6968 55.0149 17.856C54.6094 18.0153 54.2837 18.189 54.0375 18.3774C53.7913 18.5655 53.6249 18.7466 53.538 18.9203L53.1253 19.6805H50.5625L57.5777 5.19393L56.6872 3.19582L56.6874 3.19556ZM62.3127 14.9238L58.7725 8.08233L55.1889 15.836C55.4785 15.5898 55.9563 15.3763 56.6224 15.1952C57.2884 15.0142 58.1861 14.9237 59.3156 14.9237H62.3128L62.3127 14.9238Z" fill="#252A34"/>
<path d="M76.5375 5.86729V19.6806H74.2353V5.86729H68.458V3.47818H82.2497V5.86729H76.5375Z" fill="#252A34"/>
<path d="M85.2749 19.6806V3.47818H87.5988V19.6806H85.2749Z" fill="#252A34"/>
<path d="M106.486 11.4598C106.486 10.5765 106.316 9.76571 105.975 9.01995C105.635 8.27791 105.172 7.63355 104.585 7.09059C103.999 6.54763 103.322 6.13128 102.555 5.83452C101.787 5.53775 100.969 5.38924 100.1 5.38924C99.2025 5.38924 98.3627 5.54134 97.5808 5.8454C96.7989 6.14946 96.1221 6.57656 95.55 7.13412C94.9782 7.69155 94.5293 8.35037 94.2035 9.10688C93.8776 9.8671 93.7148 10.6997 93.7148 11.6119C93.7148 12.4806 93.8885 13.2843 94.236 14.0299C94.5834 14.7719 95.0541 15.4127 95.6477 15.9484C96.2414 16.4842 96.922 16.9004 97.6894 17.2044C98.4568 17.5085 99.2676 17.6606 100.122 17.6606C100.991 17.6606 101.812 17.5013 102.587 17.1828C103.362 16.8643 104.035 16.4299 104.607 15.8725C105.179 15.315 105.635 14.6598 105.975 13.9104C106.316 13.1575 106.486 12.343 106.486 11.4598V11.4598ZM108.853 11.601C108.853 12.8028 108.618 13.9176 108.147 14.9457C107.677 15.9737 107.04 16.8641 106.243 17.6171C105.447 18.37 104.52 18.9637 103.46 19.398C102.403 19.8324 101.284 20.0496 100.111 20.0496C98.8805 20.0496 97.733 19.8251 96.676 19.3763C95.6155 18.9274 94.696 18.312 93.9141 17.5301C93.1323 16.7483 92.5133 15.8252 92.0644 14.7609C91.6155 13.6966 91.3911 12.5564 91.3911 11.3402C91.3911 10.1529 91.6264 9.04875 92.0971 8.02799C92.5677 7.00724 93.2083 6.12398 94.0119 5.37822C94.8156 4.6326 95.7495 4.04969 96.8065 3.62989C97.8635 3.20996 98.9748 3 100.133 3C101.335 3 102.468 3.22085 103.525 3.66241C104.586 4.10397 105.509 4.7121 106.298 5.48679C107.087 6.26148 107.713 7.16995 108.169 8.21248C108.625 9.255 108.853 10.3843 108.853 11.6007L108.853 11.601Z" fill="#252A34"/>
<path d="M36 29.1285V22.2522H36.9862V29.1285H36Z" fill="#252A34"/>
<path d="M38.3613 22.2522H39.6609L44.0762 27.5062V22.2522H45.0808V29.1285H44.0869L40.1495 24.3999V29.1285H39.1632V23.22L38.3613 22.2522Z" fill="#252A34"/>
<path d="M50.586 27.2112L48.254 24.3999V29.1285H47.2677V23.22L46.4658 22.2522H47.7654L50.5767 25.6259L53.4249 22.2522H54.7246L53.9227 23.22V29.1285H52.9365V24.3999L50.586 27.2112Z" fill="#252A34"/>
<path d="M62.0453 25.6398C62.0453 25.265 61.9731 24.9208 61.8287 24.6043C61.6843 24.2894 61.4876 24.016 61.2388 23.7855C60.9899 23.5551 60.7026 23.3785 60.3769 23.2524C60.0512 23.1265 59.704 23.0634 59.3353 23.0634C58.9543 23.0634 58.5979 23.1279 58.2661 23.2571C57.9343 23.3861 57.647 23.5674 57.4042 23.804C57.1615 24.0405 56.971 24.3201 56.8327 24.6412C56.6944 24.9638 56.6253 25.3171 56.6253 25.7043C56.6253 26.073 56.6991 26.4141 56.8465 26.7305C56.994 27.0454 57.1937 27.3174 57.4456 27.5447C57.6975 27.7721 57.9863 27.9487 58.312 28.0777C58.6377 28.2067 58.9819 28.2712 59.3443 28.2712C59.713 28.2712 60.0618 28.2037 60.3906 28.0684C60.7193 27.9332 61.0051 27.7489 61.2478 27.5123C61.4906 27.2757 61.6841 26.9977 61.8285 26.6797C61.9729 26.3601 62.0451 26.0145 62.0451 25.6397L62.0453 25.6398ZM63.05 25.6996C63.05 26.2097 62.9502 26.6828 62.7505 27.1191C62.5507 27.5553 62.2804 27.9333 61.9425 28.2528C61.6046 28.5724 61.2112 28.8243 60.7611 29.0086C60.3125 29.193 59.8378 29.2852 59.3401 29.2852C58.8178 29.2852 58.3307 29.1899 57.8821 28.9995C57.4321 28.809 57.0417 28.5478 56.7099 28.216C56.3781 27.8842 56.1155 27.4924 55.9249 27.0408C55.7345 26.5891 55.6392 26.1052 55.6392 25.5891C55.6392 25.0851 55.739 24.6166 55.9387 24.1834C56.1385 23.7502 56.4103 23.3754 56.7514 23.0589C57.0924 22.7425 57.4888 22.4951 57.9373 22.3169C58.3859 22.1386 58.8575 22.0496 59.3491 22.0496C59.8591 22.0496 60.34 22.1433 60.7886 22.3307C61.2386 22.5181 61.6304 22.7762 61.9653 23.105C62.3001 23.4337 62.566 23.8193 62.7595 24.2617C62.953 24.7042 63.0499 25.1835 63.0499 25.6996H63.05Z" fill="#252A34"/>
<path d="M65.5593 25.3741C65.7682 25.2528 65.9802 25.1774 66.1983 25.1467C66.4165 25.1161 66.6376 25.1007 66.865 25.1007H68.0417C68.3536 25.1007 68.6024 25.0224 68.7852 24.864C68.9695 24.7073 69.0617 24.4677 69.0617 24.1467C69.0617 23.8194 68.9665 23.5906 68.776 23.4616C68.587 23.331 68.3412 23.2665 68.0417 23.2665H65.5591V25.3742L65.5593 25.3741ZM65.5593 28.1147H68.1432C68.2784 28.1147 68.4212 28.0948 68.5703 28.0549C68.7208 28.0149 68.8576 27.9535 68.9805 27.8721C69.1018 27.7892 69.2032 27.6847 69.2831 27.5602C69.363 27.4343 69.403 27.2852 69.403 27.1147C69.403 26.9135 69.363 26.7476 69.2831 26.6185C69.2032 26.4909 69.0988 26.3895 68.9712 26.3159C68.8422 26.2437 68.6962 26.1914 68.5334 26.1607C68.3721 26.13 68.2077 26.1146 68.0418 26.1146H66.8651C66.6438 26.1146 66.4242 26.1331 66.2029 26.17C65.9817 26.2069 65.7682 26.2791 65.5593 26.3896V28.1149V28.1147ZM70.4077 27.2514C70.4077 27.5955 70.3385 27.8843 70.2002 28.1209C70.0619 28.3574 69.8792 28.551 69.6549 28.7C69.4306 28.8506 69.1771 28.9596 68.8929 29.0272C68.6102 29.0948 68.3275 29.1286 68.045 29.1286H64.5547V22.2525H68.0389C68.3277 22.2525 68.5966 22.2939 68.8454 22.377C69.0943 22.4599 69.3094 22.5812 69.4907 22.7426C69.672 22.9024 69.8133 23.099 69.9147 23.3326C70.0161 23.566 70.0668 23.8349 70.0668 24.136C70.0668 24.431 70.0146 24.6998 69.9101 24.9395C69.8056 25.1792 69.652 25.365 69.4493 25.4942C69.5676 25.5495 69.6843 25.6278 69.8026 25.7276C69.9208 25.829 70.0238 25.9534 70.1098 26.101C70.1974 26.2484 70.268 26.4174 70.3234 26.608C70.3802 26.797 70.4079 27.012 70.4079 27.2517L70.4077 27.2514Z" fill="#252A34"/>
<path d="M72.0044 29.1285V22.2522H72.9906V29.1285H72.0044Z" fill="#252A34"/>
<path d="M74.9653 29.1285V22.2522H75.97V28.1145H79.7861V29.1285H74.9653Z" fill="#252A34"/>
<path d="M80.9312 29.1285V22.2522H81.9174V29.1285H80.9312Z" fill="#252A34"/>
<path d="M85.6618 22.1325H86.7679L90.0769 29.1285H88.9524L88.5007 28.1238H86.4084C86.095 28.1238 85.817 28.1453 85.5742 28.1883C85.3315 28.2313 85.1242 28.2866 84.952 28.3542C84.78 28.4217 84.6417 28.4955 84.5373 28.5754C84.4328 28.6553 84.3621 28.7322 84.3253 28.8058L84.1501 29.1285H83.0625L86.0397 22.9805L85.6618 22.1325V22.1325ZM88.0491 27.1099L86.5467 24.2064L85.0258 27.4971C85.1487 27.3926 85.3515 27.302 85.6342 27.2251C85.9169 27.1483 86.2978 27.1099 86.7772 27.1099H88.0492H88.0491Z" fill="#252A34"/>
<path d="M92.3187 25.5369C92.5276 25.4124 92.7396 25.3357 92.9547 25.308C93.1698 25.2804 93.3909 25.2666 93.6183 25.2666H94.9272C95.2774 25.2666 95.5601 25.1836 95.7751 25.0192C95.9901 24.8547 96.0978 24.5906 96.0978 24.225C96.0978 24.0483 96.0671 23.8993 96.0055 23.778C95.9441 23.6567 95.8611 23.5567 95.7567 23.4815C95.6522 23.4046 95.5293 23.3509 95.388 23.317C95.2466 23.2832 95.0931 23.2663 94.927 23.2663H92.3185V25.5369H92.3187ZM94.4248 26.2804H93.6213C93.3986 26.2804 93.1788 26.2973 92.9608 26.3311C92.7426 26.365 92.5276 26.4372 92.3187 26.5477V29.1286H91.314V22.2525H94.9334C95.2467 22.2525 95.5355 22.2971 95.8014 22.3861C96.0656 22.4752 96.2946 22.6058 96.4881 22.7779C96.6832 22.9499 96.8337 23.162 96.9413 23.4139C97.0488 23.6658 97.1026 23.9546 97.1026 24.2803C97.1026 24.8027 96.9612 25.2297 96.6801 25.5616C96.3974 25.8934 96.0072 26.1208 95.5079 26.2437L96.0425 27.3405C96.1547 27.5003 96.25 27.6293 96.3313 27.7276C96.4112 27.8259 96.4895 27.9043 96.5633 27.9627C96.6371 28.021 96.7154 28.061 96.7953 28.0825C96.8767 28.104 96.972 28.1147 97.0841 28.1147L97.4068 28.1056V29.1287C97.2101 29.1287 97.0119 29.1226 96.8123 29.1103C96.6111 29.0979 96.4191 29.0581 96.2347 28.9904C96.0504 28.9229 95.8737 28.8152 95.7078 28.6678C95.5419 28.5203 95.3945 28.3114 95.2653 28.041L94.4249 26.2804H94.4248Z" fill="#252A34"/>
<path d="M99.0034 29.1285V22.2522H99.9897V29.1285H99.0034Z" fill="#252A34"/>
<path d="M107.91 25.6398C107.91 25.265 107.837 24.9208 107.693 24.6043C107.549 24.2894 107.352 24.016 107.103 23.7855C106.854 23.5551 106.567 23.3785 106.241 23.2524C105.915 23.1265 105.568 23.0634 105.2 23.0634C104.819 23.0634 104.462 23.1279 104.13 23.2571C103.799 23.3861 103.511 23.5674 103.268 23.804C103.026 24.0405 102.835 24.3201 102.697 24.6412C102.559 24.9638 102.49 25.3171 102.49 25.7043C102.49 26.073 102.563 26.4141 102.711 26.7305C102.858 27.0454 103.058 27.3174 103.31 27.5447C103.562 27.7721 103.851 27.9487 104.176 28.0777C104.502 28.2067 104.846 28.2712 105.209 28.2712C105.577 28.2712 105.926 28.2037 106.255 28.0684C106.584 27.9332 106.869 27.7489 107.112 27.5123C107.355 27.2757 107.548 26.9977 107.693 26.6797C107.837 26.3601 107.909 26.0145 107.909 25.6397L107.91 25.6398ZM108.914 25.6996C108.914 26.2097 108.814 26.6828 108.615 27.1191C108.415 27.5553 108.145 27.9333 107.807 28.2528C107.469 28.5724 107.075 28.8243 106.625 29.0086C106.177 29.193 105.702 29.2852 105.204 29.2852C104.682 29.2852 104.195 29.1899 103.746 28.9995C103.296 28.809 102.906 28.5478 102.574 28.216C102.242 27.8842 101.98 27.4924 101.789 27.0408C101.599 26.5891 101.503 26.1052 101.503 25.5891C101.503 25.0851 101.603 24.6166 101.803 24.1834C102.003 23.7502 102.275 23.3754 102.616 23.0589C102.957 22.7425 103.353 22.4951 103.802 22.3169C104.25 22.1386 104.722 22.0496 105.213 22.0496C105.723 22.0496 106.204 22.1433 106.653 22.3307C107.103 22.5181 107.495 22.7762 107.83 23.105C108.164 23.4337 108.43 23.8193 108.624 24.2617C108.817 24.7042 108.914 25.1835 108.914 25.6996H108.914Z" fill="#252A34"/>
<path fill-rule="evenodd" clip-rule="evenodd" d="M0.0300804 26.3403C0.146981 28.6786 1.64583 30.2965 3.20079 31.0509C4.35719 31.6118 5.22982 31.5867 6.61836 31.5867L26.3016 31.5869C28.8159 31.5854 30.4414 30.2149 31.2995 28.6869C31.881 27.6514 31.9755 26.7664 31.9755 25.4225V9.68272C31.9755 8.42623 32.0364 7.00977 31.9661 5.77264C31.8363 3.49286 30.3308 1.78347 28.7904 1.07607C27.5969 0.52803 26.8082 0.549039 25.3836 0.549039L5.70042 0.548889C4.4999 0.549189 3.4502 0.868076 2.62124 1.40201C1.84061 1.90472 1.17627 2.5623 0.708972 3.43403C0.117268 4.5376 0.0219768 5.27337 0.0219768 6.69103V22.4309C0.0219768 23.6974 -0.0324965 25.0889 0.0300804 26.3403V26.3403Z" fill="#FF2E63"/>
<path fill-rule="evenodd" clip-rule="evenodd" d="M18.402 22.9111L18.4069 16.095L14.412 16.1038L14.416 20.7326L11.0241 20.7323L11.0226 13.6088C11.0822 13.4741 12.1343 13.0022 12.3262 12.9033C12.7806 12.6692 13.2304 12.4337 13.6798 12.2125C14.1329 11.9894 14.5729 11.7299 15.0283 11.5182C16.9487 10.6258 15.8518 10.6054 17.735 11.4895C18.1256 11.673 21.6734 13.4878 21.7667 13.5788L21.7691 24.7413H25.7778V14.0901C25.7778 13.528 25.836 12.4897 25.7462 11.987C25.5259 10.7512 24.5303 10.4811 23.5139 9.95065C21.6355 8.97024 19.7528 8.02991 17.8754 7.0511C16.401 6.28251 16.1321 6.4496 14.7 7.18979C13.7594 7.67594 12.8214 8.14219 11.8733 8.6326C11.2594 8.9502 8.06771 10.5038 7.67565 10.8411C7.33164 11.1369 7.02798 11.6815 7.01417 12.3155C6.98351 13.7252 7.01377 15.1717 7.01377 16.5855C7.01377 17.3075 6.97409 22.5298 7.02944 22.9834C7.10323 23.5892 7.46357 24.0883 7.80665 24.3347C8.36408 24.7349 8.73729 24.7413 9.54277 24.7413H15.9468C16.7024 24.7413 17.1761 24.7048 17.6588 24.3109C17.9423 24.0796 18.4282 23.5289 18.402 22.9111Z" fill="white"/>
</svg>
