<svg width="12" height="12" viewBox="0 0 12 12" fill="none" xmlns="http://www.w3.org/2000/svg">
<g clip-path="url(#clip0_3622_31489)">
<path d="M11.085 0.910001L10.56 0.455001C9.95497 -0.149999 8.97497 -0.149999 8.36997 0.455001C8.35497 0.470001 7.42997 1.675 7.42997 1.675C6.85997 2.275 6.85997 3.22 7.42997 3.815L8.00997 4.545C7.27997 6.2 6.14497 7.34 4.54497 8.02L3.81497 7.435C3.21997 6.86 2.26997 6.86 1.67497 7.435C1.67497 7.435 0.469971 8.36 0.454971 8.375C-0.150029 8.98 -0.150029 9.96 0.429971 10.54L0.929971 11.115C1.50497 11.69 2.27997 12.005 3.11997 12.005C6.93997 12.005 12 6.94 12 3.125C12 2.29 11.685 1.51 11.085 0.915001V0.910001ZM3.11997 11C2.54997 11 2.02497 10.79 1.66497 10.425L1.16497 9.85C0.959971 9.645 0.949971 9.31 1.14497 9.095C1.14497 9.095 2.33997 8.175 2.35497 8.16C2.55997 7.955 2.91997 7.955 3.12997 8.16C3.14497 8.175 4.14997 8.98 4.14997 8.98C4.28997 9.09 4.47497 9.12 4.63997 9.055C6.70997 8.265 8.19497 6.785 9.04997 4.65C9.11497 4.485 9.08997 4.295 8.97497 4.15C8.97497 4.15 8.16997 3.14 8.15997 3.13C7.94497 2.915 7.94497 2.57 8.15997 2.355C8.17497 2.34 9.09497 1.145 9.09497 1.145C9.30997 0.950001 9.64497 0.955001 9.87497 1.185L10.4 1.64C10.785 2.025 11 2.55 11 3.12C11 6.6 6.11497 11 3.11997 11Z" fill="#636D7E"/>
</g>
<defs>
<clipPath id="clip0_3622_31489">
<rect width="12" height="12" fill="white"/>
</clipPath>
</defs>
</svg>
