<svg width="24" height="25" viewBox="0 0 24 25" fill="none" xmlns="http://www.w3.org/2000/svg">
<g clip-path="url(#clip0_3609_8871)">
<path d="M12 0.5C5.3736 0.5 0 5.8736 0 12.5C0 19.1264 5.3736 24.5 12 24.5C18.6264 24.5 24 19.1264 24 12.5C24 5.8736 18.6264 0.5 12 0.5ZM17.4791 9.85632C17.4844 9.97443 17.4869 10.0931 17.4869 10.2123C17.4869 13.8519 14.7166 18.0488 9.65021 18.049H9.65039H9.65021C8.09473 18.049 6.64728 17.5931 5.42834 16.8118C5.64386 16.8372 5.86322 16.8499 6.08533 16.8499C7.37585 16.8499 8.56348 16.4097 9.50629 15.6708C8.30054 15.6485 7.28394 14.8522 6.93311 13.7578C7.10101 13.79 7.27368 13.8076 7.45074 13.8076C7.70215 13.8076 7.94568 13.7737 8.17712 13.7105C6.91681 13.4582 5.96741 12.3444 5.96741 11.0106C5.96741 10.9982 5.96741 10.987 5.96777 10.9755C6.33893 11.1818 6.76337 11.306 7.21527 11.3199C6.47571 10.8264 5.98956 9.98285 5.98956 9.02722C5.98956 8.52258 6.12598 8.0498 6.36255 7.64276C7.72083 9.30939 9.75073 10.4055 12.0399 10.5206C11.9927 10.3188 11.9683 10.1086 11.9683 9.89258C11.9683 8.37207 13.2019 7.13849 14.723 7.13849C15.5153 7.13849 16.2308 7.47339 16.7335 8.00879C17.361 7.88501 17.9502 7.65576 18.4825 7.34027C18.2765 7.98315 17.84 8.52258 17.2712 8.86371C17.8284 8.79706 18.3594 8.64929 18.8529 8.42993C18.4843 8.98236 18.0168 9.46759 17.4791 9.85632Z" fill="#747C87"/>
</g>
<defs>
<clipPath id="clip0_3609_8871">
<rect width="24" height="24" fill="white" transform="translate(0 0.5)"/>
</clipPath>
</defs>
</svg>
